CommonSerif-NewsItalic.ufo
<glyph name="exclam" format="2">
  <advance width="234"/>
  <unicode hex="0021"/>
  <outline>
    <contour>
      <point x="252.667" y="665" type="curve" smooth="yes"/>
      <point x="203" y="665"/>
      <point x="180.333" y="629.167"/>
      <point x="176.333" y="585.5" type="curve" smooth="yes"/>
      <point x="167.667" y="478.833"/>
      <point x="177.833" y="378.667"/>
      <point x="154.333" y="210.5" type="curve"/>
      <point x="154.333" y="208" type="line" smooth="yes"/>
      <point x="154.333" y="199.833"/>
      <point x="159.667" y="195.5"/>
      <point x="167.833" y="195.5" type="curve" smooth="yes"/>
      <point x="179.833" y="195.5"/>
      <point x="186.333" y="207"/>
      <point x="188.667" y="219.167" type="curve" smooth="yes"/>
      <point x="216.5" y="374.667"/>
      <point x="299.333" y="547.833"/>
      <point x="299.333" y="609.667" type="curve" smooth="yes"/>
      <point x="299.333" y="642.5"/>
      <point x="281.167" y="665"/>
    </contour>
    <contour>
      <point x="82.833" y="35.5" type="curve" smooth="yes"/>
      <point x="82.833" y="8.167"/>
      <point x="104.5" y="-12.5"/>
      <point x="132.333" y="-12.5" type="curve" smooth="yes"/>
      <point x="166.5" y="-12.5"/>
      <point x="198" y="17"/>
      <point x="198" y="50.833" type="curve" smooth="yes"/>
      <point x="198" y="78.167"/>
      <point x="176.667" y="99"/>
      <point x="148.5" y="99" type="curve" smooth="yes"/>
      <point x="115.166" y="99"/>
      <point x="82.833" y="68.667"/>
    </contour>
  </outline>
</glyph>
<glyph name="quotedbl" format="2">
  <advance width="343"/>
  <unicode hex="0022"/>
  <outline>
    <contour>
      <point x="160" y="423.5" type="line"/>
      <point x="189" y="427.833" type="line"/>
      <point x="253.5" y="611.333" type="line"/>
      <point x="253.5" y="619.5" type="line" smooth="yes"/>
      <point x="253.5" y="632.5"/>
      <point x="247.333" y="644.167"/>
      <point x="224.167" y="644.167" type="curve" smooth="yes"/>
      <point x="191.5" y="644.167"/>
      <point x="165.333" y="615.667"/>
      <point x="161.167" y="593.5" type="curve"/>
    </contour>
    <contour>
      <point x="287.833" y="424.333" type="line"/>
      <point x="316.833" y="428.667" type="line"/>
      <point x="381.333" y="611.333" type="line"/>
      <point x="381.333" y="619.333" type="line" smooth="yes"/>
      <point x="381.333" y="632.333"/>
      <point x="374.5" y="645"/>
      <point x="351.167" y="645" type="curve" smooth="yes"/>
      <point x="319.5" y="645"/>
      <point x="292.333" y="616.5"/>
      <point x="289.167" y="594.333" type="curve"/>
    </contour>
  </outline>
</glyph>
<glyph name="numbersign" format="2">
  <advance width="451"/>
  <unicode hex="0023"/>
  <outline>
    <contour>
      <point x="382.833" y="344.167" type="line"/>
      <point x="476.333" y="344.167" type="line"/>
      <point x="493.333" y="396" type="line"/>
      <point x="400" y="396" type="line"/>
      <point x="457.833" y="566.5" type="line"/>
      <point x="422.333" y="566.5" type="line"/>
      <point x="410.333" y="532.667"/>
      <point x="376.167" y="429.833"/>
      <point x="364.167" y="396" type="curve"/>
      <point x="257.333" y="396" type="line"/>
      <point x="315.667" y="566.5" type="line"/>
      <point x="278.667" y="566.5" type="line"/>
      <point x="267.5" y="532.667"/>
      <point x="232.333" y="429"/>
      <point x="221.333" y="396" type="curve"/>
      <point x="129.833" y="396" type="line"/>
      <point x="112.667" y="344.167" type="line"/>
      <point x="203.333" y="344.167" type="line"/>
      <point x="196.167" y="322.167"/>
      <point x="174.167" y="256.667"/>
      <point x="166.833" y="234.667" type="curve"/>
      <point x="75.3333" y="234.667" type="line"/>
      <point x="58.3333" y="183.667" type="line"/>
      <point x="148.833" y="183.667" type="line"/>
      <point x="91.6667" y="13.1667" type="line"/>
      <point x="127.833" y="13.1667" type="line"/>
      <point x="139.833" y="47"/>
      <point x="173.833" y="148.667"/>
      <point x="186" y="183.667" type="curve"/>
      <point x="292.833" y="183.667" type="line"/>
      <point x="234.667" y="13.1667" type="line"/>
      <point x="270.5" y="13.1667" type="line"/>
      <point x="282.333" y="46.1667"/>
      <point x="317.167" y="148.667"/>
      <point x="329.333" y="183.667" type="curve"/>
      <point x="422.833" y="183.667" type="line"/>
      <point x="439" y="234.667" type="line"/>
      <point x="345.5" y="234.667" type="line"/>
    </contour>
    <contour>
      <point x="310.5" y="234.667" type="line"/>
      <point x="203" y="234.667" type="line"/>
      <point x="210.333" y="256.667"/>
      <point x="233.333" y="322.167"/>
      <point x="240.667" y="344.167" type="curve"/>
      <point x="347" y="344.167" type="line"/>
    </contour>
  </outline>
</glyph>
<glyph name="dollar" format="2">
  <advance width="451"/>
  <unicode hex="0024"/>
  <outline>
    <contour>
      <point x="468.667" y="567.5" type="curve"/>
      <point x="452" y="566.5"/>
      <point x="433.5" y="569.333"/>
      <point x="410.833" y="572.667" type="curve" smooth="yes"/>
      <point x="394.5" y="575"/>
      <point x="375.333" y="577.167"/>
      <point x="354.333" y="578.167" type="curve"/>
      <point x="367.333" y="638.333" type="line"/>
      <point x="356.167" y="638.333"/>
      <point x="343" y="638"/>
      <point x="332.333" y="637.5" type="curve"/>
      <point x="319.667" y="577.5" type="line"/>
      <point x="285.667" y="574.667"/>
      <point x="242.5" y="562.5"/>
      <point x="207.333" y="538.5" type="curve" smooth="yes"/>
      <point x="173.167" y="515.167"/>
      <point x="144.833" y="482.167"/>
      <point x="135.333" y="438.833" type="curve" smooth="yes"/>
      <point x="134.167" y="433.167"/>
      <point x="133.167" y="428.333"/>
      <point x="133" y="422.5" type="curve"/>
      <point x="130" y="389.833"/>
      <point x="137.667" y="361.333"/>
      <point x="152.5" y="338.333" type="curve" smooth="yes"/>
      <point x="177.333" y="301.167"/>
      <point x="221" y="277.833"/>
      <point x="253.5" y="260.333" type="curve"/>
      <point x="205" y="23.6667" type="line"/>
      <point x="141" y="32.1667"/>
      <point x="107.167" y="88.5"/>
      <point x="103" y="151.667" type="curve"/>
      <point x="97.6667" y="152.5"/>
      <point x="91.1667" y="151.167"/>
      <point x="85.5" y="150.5" type="curve"/>
      <point x="81.1667" y="149.667"/>
      <point x="77.6667" y="149.5"/>
      <point x="73.1667" y="148.667" type="curve"/>
      <point x="68.1667" y="90.3333"/>
      <point x="65.3333" y="37.1667"/>
      <point x="59.8333" y="0.666667" type="curve" name=".hr01"/>
      <point x="79.6667" y="0.666667"/>
      <point x="81.1667" y="9.66667"/>
      <point x="95.3333" y="9.33333" type="curve" smooth="yes"/>
      <point x="115.5" y="8.5"/>
      <point x="143" y="-7.83333"/>
      <point x="198.333" y="-11.3333" type="curve"/>
      <point x="182.667" y="-83.8333" type="line" name=".hr02"/>
      <point x="193.333" y="-83.8333"/>
      <point x="207.167" y="-83.6667"/>
      <point x="217.5" y="-83" type="curve"/>
      <point x="233" y="-10.6667" type="line" name=".hr03"/>
      <point x="279.833" y="-8.83333"/>
      <point x="317.833" y="3.83333"/>
      <point x="347.333" y="23.5" type="curve" name=".hr04"/>
      <point x="406.833" y="60.8333"/>
      <point x="429.833" y="121.5"/>
      <point x="437.667" y="154.333" type="curve"/>
      <point x="438.5" y="158.5" type="line" smooth="yes"/>
      <point x="446.833" y="204"/>
      <point x="432" y="237.833"/>
      <point x="408.833" y="264.5" type="curve" smooth="yes"/>
      <point x="381.333" y="296.167"/>
      <point x="341.667" y="316.667"/>
      <point x="312.5" y="329.833" type="curve"/>
      <point x="309.833" y="331.667"/>
      <point x="307.167" y="332.5"/>
      <point x="304.5" y="333.5" type="curve"/>
      <point x="347.5" y="545.5" type="line"/>
      <point x="400" y="539.167"/>
      <point x="421" y="502.833"/>
      <point x="426.833" y="440.5" type="curve"/>
      <point x="427.833" y="433.833"/>
      <point x="427.833" y="427.167"/>
      <point x="428.833" y="420.667" type="curve"/>
      <point x="438.167" y="420.833"/>
      <point x="449.333" y="422.667"/>
      <point x="458.667" y="424.833" type="curve"/>
      <point x="461.167" y="473.833"/>
      <point x="462" y="521"/>
    </contour>
    <contour>
      <point x="285.333" y="245.167" type="line"/>
      <point x="321" y="227.167"/>
      <point x="367.833" y="197.833"/>
      <point x="352.833" y="123.667" type="curve" smooth="yes"/>
      <point x="338.833" y="56"/>
      <point x="281.667" y="29.5"/>
      <point x="239.667" y="23.5" type="curve"/>
    </contour>
    <contour>
      <point x="272.667" y="349.5" type="line"/>
      <point x="239.333" y="368.833"/>
      <point x="199.667" y="401.333"/>
      <point x="208.333" y="446.5" type="curve" smooth="yes"/>
      <point x="220.167" y="503.667"/>
      <point x="266.167" y="538.833"/>
      <point x="313" y="546.167" type="curve"/>
    </contour>
  </outline>
</glyph>
<glyph name="percent" format="2">
  <advance width="637"/>
  <unicode hex="0025"/>
  <outline>
    <contour>
      <point x="102.333" y="-4.83333" type="line"/>
      <point x="141.167" y="-14.3333" type="line"/>
      <point x="625.5" y="548" type="line"/>
      <point x="591.333" y="569" type="line"/>
      <point x="549.167" y="525"/>
      <point x="482.667" y="515.667"/>
      <point x="441.167" y="515.667" type="curve" smooth="yes"/>
      <point x="421.333" y="515.667"/>
      <point x="384.833" y="517.667"/>
      <point x="336.167" y="541" type="curve"/>
      <point x="322.167" y="557"/>
      <point x="292.833" y="565.167"/>
      <point x="271.833" y="565.167" type="curve" smooth="yes"/>
      <point x="187.333" y="565.167"/>
      <point x="133.833" y="475.667"/>
      <point x="133.833" y="397.833" type="curve" smooth="yes"/>
      <point x="133.833" y="344.333"/>
      <point x="160.5" y="297"/>
      <point x="221.667" y="297" type="curve" smooth="yes"/>
      <point x="304.333" y="297"/>
      <point x="355.333" y="402.167"/>
      <point x="355.333" y="474.167" type="curve" smooth="yes"/>
      <point x="355.333" y="481.833"/>
      <point x="354.5" y="490.333"/>
      <point x="352.667" y="498" type="curve"/>
      <point x="371.167" y="487.167"/>
      <point x="407.167" y="477.333"/>
      <point x="430.5" y="477.333" type="curve" smooth="yes"/>
      <point x="459.333" y="477.333"/>
      <point x="494.833" y="481"/>
      <point x="534" y="497" type="curve"/>
    </contour>
    <contour>
      <point x="189.5" y="387.333" type="curve" smooth="yes"/>
      <point x="189.5" y="431.167"/>
      <point x="225.333" y="532.667"/>
      <point x="281" y="532.667" type="curve" smooth="yes"/>
      <point x="312.333" y="532.667"/>
      <point x="322.667" y="502.333"/>
      <point x="322.667" y="475.833" type="curve" smooth="yes"/>
      <point x="322.667" y="430.833"/>
      <point x="287.833" y="327.667"/>
      <point x="231.167" y="327.667" type="curve" smooth="yes"/>
      <point x="200" y="327.667"/>
      <point x="189.5" y="360.167"/>
    </contour>
    <contour>
      <point x="386.667" y="86.6667" type="curve" smooth="yes"/>
      <point x="386.667" y="33.3333"/>
      <point x="415.833" y="-19.1667"/>
      <point x="473" y="-19.1667" type="curve" smooth="yes" name=".hr01"/>
      <point x="559" y="-19.1667"/>
      <point x="608" y="92.5"/>
      <point x="608" y="165.167" type="curve" smooth="yes"/>
      <point x="608" y="215.833"/>
      <point x="581" y="249.833"/>
      <point x="527" y="249.833" type="curve" smooth="yes"/>
      <point x="448.5" y="249.833"/>
      <point x="386.667" y="166.667"/>
    </contour>
    <contour>
      <point x="442.833" y="72.1667" type="curve" smooth="yes"/>
      <point x="442.833" y="116.833"/>
      <point x="478.667" y="217.5"/>
      <point x="534.333" y="217.5" type="curve" smooth="yes"/>
      <point x="564.833" y="217.5"/>
      <point x="576" y="186.333"/>
      <point x="576" y="159.833" type="curve" smooth="yes"/>
      <point x="576" y="114.333"/>
      <point x="541.167" y="11.6667"/>
      <point x="483.667" y="11.6667" type="curve" smooth="yes"/>
      <point x="453.333" y="11.6667"/>
      <point x="442.833" y="46.6667"/>
    </contour>
  </outline>
</glyph>
<glyph name="ampersand" format="2">
  <advance width="709"/>
  <unicode hex="0026"/>
  <outline>
    <contour>
      <point x="603.833" y="380" type="curve"/>
      <point x="601" y="353.5"/>
      <point x="550" y="283.833"/>
      <point x="472" y="193.333" type="curve"/>
      <point x="467" y="200.833"/>
      <point x="461.667" y="208.666"/>
      <point x="457" y="216.5" type="curve"/>
      <point x="407.167" y="308.167"/>
      <point x="392.667" y="342.333"/>
      <point x="385.333" y="362" type="curve"/>
      <point x="382.667" y="366.5"/>
      <point x="381.833" y="369.167"/>
      <point x="380" y="372.833" type="curve"/>
      <point x="452.833" y="410.5"/>
      <point x="539.333" y="467.333"/>
      <point x="556" y="534.5" type="curve"/>
      <point x="558" y="541.5"/>
      <point x="558.833" y="549.5"/>
      <point x="558.833" y="556.5" type="curve"/>
      <point x="558.5" y="605"/>
      <point x="521" y="640.666"/>
      <point x="462.833" y="644.833" type="curve"/>
      <point x="457.833" y="645.666"/>
      <point x="452.167" y="645.666"/>
      <point x="447.167" y="645.666" type="curve"/>
      <point x="394.5" y="645.166"/>
      <point x="342.167" y="624.333"/>
      <point x="309.167" y="589.166" type="curve" smooth="yes"/>
      <point x="282.833" y="562.333"/>
      <point x="266.333" y="528.333"/>
      <point x="264.833" y="490" type="curve"/>
      <point x="264.666" y="489.5"/>
      <point x="264.666" y="489"/>
      <point x="264.5" y="488.5" type="curve"/>
      <point x="262.833" y="455.833"/>
      <point x="271" y="421.5"/>
      <point x="292" y="372.333" type="curve"/>
      <point x="146.333" y="298.166"/>
      <point x="81.666" y="232"/>
      <point x="70.833" y="145" type="curve"/>
      <point x="69.666" y="137.333"/>
      <point x="69.333" y="129"/>
      <point x="69.333" y="120.666" type="curve"/>
      <point x="68.833" y="79.833"/>
      <point x="82.166" y="48.666"/>
      <point x="105.833" y="28.499" type="curve"/>
      <point x="132.333" y="4"/>
      <point x="172.833" y="-7.5"/>
      <point x="219.5" y="-9.167" type="curve"/>
      <point x="225.333" y="-9.167"/>
      <point x="230.333" y="-9.167"/>
      <point x="235.333" y="-9.167" type="curve"/>
      <point x="316.833" y="-8.5"/>
      <point x="378.667" y="33.166"/>
      <point x="433.833" y="92.333" type="curve"/>
      <point x="442.167" y="77.499"/>
      <point x="450.167" y="64.833"/>
      <point x="459" y="52.166" type="curve"/>
      <point x="480.5" y="17.166"/>
      <point x="503.5" y="1.666"/>
      <point x="524.5" y="-4.167" type="curve" smooth="yes"/>
      <point x="538.833" y="-8.334"/>
      <point x="552.166" y="-8.667"/>
      <point x="564.833" y="-7.834" type="curve" smooth="yes"/>
      <point x="598.5" y="-6"/>
      <point x="641.333" y="23.999"/>
      <point x="675.5" y="88.499" type="curve"/>
      <point x="671.5" y="93.333"/>
      <point x="665.5" y="97.499"/>
      <point x="660.666" y="99.999" type="curve"/>
      <point x="633" y="61.333"/>
      <point x="608.166" y="46.166"/>
      <point x="578" y="45.999" type="curve"/>
      <point x="575.833" y="45.999"/>
      <point x="572.833" y="45.999"/>
      <point x="569.833" y="46.833" type="curve" smooth="yes"/>
      <point x="553.5" y="51.833"/>
      <point x="533.833" y="72.999"/>
      <point x="515.333" y="109.166" type="curve"/>
      <point x="506.5" y="124.666"/>
      <point x="498.833" y="140.5"/>
      <point x="490.167" y="156" type="curve"/>
      <point x="568.333" y="252"/>
      <point x="619.833" y="329.333"/>
      <point x="646.5" y="359.333" type="curve" smooth="yes"/>
      <point x="666.666" y="382.833"/>
      <point x="683" y="395"/>
      <point x="702" y="396.167" type="curve" smooth="yes"/>
      <point x="710.666" y="396.667"/>
      <point x="720.166" y="397"/>
      <point x="728.833" y="397" type="curve" smooth="yes"/>
      <point x="733.166" y="397"/>
      <point x="738.166" y="399.333"/>
      <point x="739.166" y="405.167" type="curve" smooth="yes"/>
      <point x="742.5" y="422.333" type="line"/>
      <point x="741.5" y="424.333" type="line"/>
      <point x="741.5" y="424.333"/>
      <point x="700" y="423.166"/>
      <point x="668.333" y="422.333" type="curve"/>
      <point x="662.5" y="422.333"/>
      <point x="657.333" y="422.333"/>
      <point x="652.166" y="422.333" type="curve"/>
      <point x="617.833" y="422.5"/>
      <point x="567.333" y="424.333"/>
      <point x="567.333" y="424.333" type="curve"/>
      <point x="564.833" y="422.166" type="line"/>
      <point x="561.5" y="404" type="line"/>
      <point x="560.666" y="401"/>
      <point x="561" y="397"/>
      <point x="565" y="397" type="curve"/>
      <point x="574.833" y="396.833"/>
      <point x="583.833" y="396.667"/>
      <point x="593.166" y="396.167" type="curve"/>
      <point x="602.833" y="395.167"/>
      <point x="606.166" y="389.667"/>
    </contour>
    <contour>
      <point x="308.5" y="336.167" type="curve"/>
      <point x="316.167" y="311.833"/>
      <point x="373" y="200.333"/>
      <point x="414" y="127.5" type="curve"/>
      <point x="355.833" y="63.166"/>
      <point x="316.667" y="26.999"/>
      <point x="251" y="26.166" type="curve" smooth="yes"/>
      <point x="243.333" y="25.999"/>
      <point x="236.666" y="26.833"/>
      <point x="229" y="27.666" type="curve"/>
      <point x="187.333" y="33.499"/>
      <point x="156.5" y="63.833"/>
      <point x="156" y="122.5" type="curve"/>
      <point x="156" y="143.166"/>
      <point x="158.667" y="162.5"/>
      <point x="163.333" y="179.166" type="curve" smooth="yes"/>
      <point x="185.667" y="261.5"/>
      <point x="253.666" y="305.833"/>
    </contour>
    <contour>
      <point x="345.5" y="509.333" type="curve" smooth="yes"/>
      <point x="346" y="535.666"/>
      <point x="356.5" y="558.333"/>
      <point x="372.333" y="576.833" type="curve"/>
      <point x="388" y="596.5"/>
      <point x="410.333" y="608"/>
      <point x="429.167" y="609.666" type="curve"/>
      <point x="432.167" y="610.5"/>
      <point x="434.5" y="610.5"/>
      <point x="437.5" y="610.333" type="curve"/>
      <point x="470.167" y="609.666"/>
      <point x="488.333" y="590.5"/>
      <point x="489" y="558.833" type="curve" smooth="yes"/>
      <point x="489.167" y="552"/>
      <point x="489.167" y="540.833"/>
      <point x="483.667" y="525.333" type="curve" smooth="yes"/>
      <point x="473.167" y="497.333"/>
      <point x="440.5" y="457.833"/>
      <point x="365.333" y="412.333" type="curve"/>
      <point x="364.333" y="416"/>
      <point x="362.333" y="420.5"/>
      <point x="361.333" y="424.166" type="curve"/>
      <point x="350.333" y="458.833"/>
      <point x="344.667" y="489.166"/>
    </contour>
  </outline>
</glyph>
<glyph name="quotesingle" format="2">
  <advance width="194"/>
  <unicode hex="0027"/>
  <outline>
    <contour>
      <point x="138.833" y="424.167" type="line"/>
      <point x="168.667" y="427.834" type="line"/>
      <point x="243.833" y="610.5" type="line"/>
      <point x="243.833" y="631.5"/>
      <point x="237.833" y="644.167"/>
      <point x="213.833" y="644.167" type="curve" smooth="yes"/>
      <point x="183" y="644.167"/>
      <point x="155.167" y="619.834"/>
      <point x="151.833" y="593.5" type="curve"/>
    </contour>
  </outline>
</glyph>
<glyph name="parenleft" format="2">
  <advance width="308"/>
  <unicode hex="0028"/>
  <outline>
    <contour>
      <point x="94.5" y="252.167" type="curve" smooth="yes"/>
      <point x="89.833" y="222.5"/>
      <point x="86.333" y="190.833"/>
      <point x="86" y="156.667" type="curve" smooth="yes"/>
      <point x="85.5" y="104.333"/>
      <point x="91.833" y="48.833"/>
      <point x="108.833" y="-5.667" type="curve"/>
      <point x="130.333" y="-82.167"/>
      <point x="168.167" y="-146.5"/>
      <point x="224.333" y="-205.5" type="curve"/>
      <point x="247.667" y="-186" type="line"/>
      <point x="198.5" y="-116.167"/>
      <point x="178.333" y="-41.5"/>
      <point x="171.167" y="14.333" type="curve"/>
      <point x="166" y="45.167"/>
      <point x="163.333" y="78"/>
      <point x="163.5" y="111.833" type="curve" smooth="yes"/>
      <point x="163.667" y="156.167"/>
      <point x="168.833" y="203.167"/>
      <point x="177.5" y="252.167" type="curve" smooth="yes"/>
      <point x="192.833" y="337"/>
      <point x="219.333" y="414.167"/>
      <point x="256.333" y="486" type="curve" smooth="yes"/>
      <point x="284.167" y="542.167"/>
      <point x="332.667" y="618.667"/>
      <point x="407.5" y="688.5" type="curve"/>
      <point x="391.833" y="709.167" type="line"/>
      <point x="295.5" y="637.333"/>
      <point x="234.667" y="556.167"/>
      <point x="200.167" y="504.5" type="curve" smooth="yes"/>
      <point x="146.667" y="426.333"/>
      <point x="111.167" y="343.167"/>
    </contour>
  </outline>
</glyph>
<glyph name="parenright" format="2">
  <advance width="313"/>
  <unicode hex="0029"/>
  <outline>
    <contour>
      <point x="325.833" y="251.833" type="curve"/>
      <point x="330.5" y="281.667"/>
      <point x="334" y="313.167"/>
      <point x="334.333" y="347.333" type="curve" smooth="yes"/>
      <point x="334.833" y="399.667"/>
      <point x="328.5" y="455.167"/>
      <point x="311.5" y="509.667" type="curve"/>
      <point x="290" y="585.333"/>
      <point x="252.167" y="650.5"/>
      <point x="196" y="709.5" type="curve"/>
      <point x="172.667" y="690" type="line"/>
      <point x="221.833" y="620.167"/>
      <point x="242" y="545.5"/>
      <point x="249.167" y="489.667" type="curve"/>
      <point x="254.333" y="458"/>
      <point x="257" y="426"/>
      <point x="256.833" y="392.167" type="curve" smooth="yes"/>
      <point x="256.667" y="347.833"/>
      <point x="251.5" y="300.833"/>
      <point x="242.833" y="251.833" type="curve" smooth="yes"/>
      <point x="227.5" y="167"/>
      <point x="201" y="89.8333"/>
      <point x="164" y="18" type="curve" smooth="yes"/>
      <point x="136.167" y="-38.1667"/>
      <point x="87.8333" y="-114.667"/>
      <point x="12.8333" y="-185.333" type="curve"/>
      <point x="28.5" y="-205.167" type="line"/>
      <point x="125" y="-133.333"/>
      <point x="185.833" y="-52.1667"/>
      <point x="220.167" y="-1.33333" type="curve" smooth="yes"/>
      <point x="273.833" y="77.8333"/>
      <point x="308.5" y="160.833"/>
    </contour>
  </outline>
</glyph>
<glyph name="asterisk" format="2">
  <advance width="433"/>
  <unicode hex="002A"/>
  <outline>
    <contour>
      <point x="289.5" y="566.833" type="curve"/>
      <point x="249.667" y="529.667"/>
      <point x="198.667" y="523.833"/>
      <point x="190.167" y="479" type="curve"/>
      <point x="190" y="477.833"/>
      <point x="190" y="475.667"/>
      <point x="190" y="474.5" type="curve" smooth="yes"/>
      <point x="190" y="461.667"/>
      <point x="199.833" y="451"/>
      <point x="214.5" y="451" type="curve" smooth="yes"/>
      <point x="254.5" y="451"/>
      <point x="269.333" y="509.5"/>
      <point x="302.333" y="554.5" type="curve"/>
      <point x="308.167" y="542.333"/>
      <point x="311" y="527.333"/>
      <point x="313.667" y="513.167" type="curve"/>
      <point x="320.167" y="484"/>
      <point x="325.667" y="456"/>
      <point x="348.333" y="451.833" type="curve"/>
      <point x="350.333" y="451"/>
      <point x="353.167" y="451"/>
      <point x="355.167" y="451.167" type="curve"/>
      <point x="368.833" y="451.5"/>
      <point x="385.5" y="462.5"/>
      <point x="388.5" y="480" type="curve"/>
      <point x="389.5" y="483.167"/>
      <point x="389.5" y="485.333"/>
      <point x="389.5" y="488.333" type="curve"/>
      <point x="389.833" y="509.833"/>
      <point x="372.333" y="522.333"/>
      <point x="352.667" y="536.833" type="curve"/>
      <point x="342.5" y="545.667"/>
      <point x="331.333" y="554.5"/>
      <point x="322.333" y="566.667" type="curve"/>
      <point x="340.333" y="569.667"/>
      <point x="357" y="570.5"/>
      <point x="376.667" y="570.5" type="curve" smooth="yes"/>
      <point x="410.5" y="570.5"/>
      <point x="446.167" y="578"/>
      <point x="451.5" y="608" type="curve"/>
      <point x="451.5" y="609"/>
      <point x="451.5" y="611"/>
      <point x="451.5" y="612.167" type="curve"/>
      <point x="451.667" y="623.167"/>
      <point x="446.5" y="638.667"/>
      <point x="423.167" y="638.667" type="curve" smooth="yes"/>
      <point x="389.667" y="638.667"/>
      <point x="368.333" y="606.167"/>
      <point x="319.833" y="586.333" type="curve"/>
      <point x="327.667" y="616"/>
      <point x="352.167" y="655.167"/>
      <point x="357.667" y="682" type="curve"/>
      <point x="357.833" y="683.167"/>
      <point x="358" y="685.167"/>
      <point x="358" y="686.333" type="curve"/>
      <point x="358.167" y="687.667"/>
      <point x="358.167" y="690"/>
      <point x="358.167" y="691.167" type="curve"/>
      <point x="358" y="709.167"/>
      <point x="346.333" y="718"/>
      <point x="330.5" y="718" type="curve" smooth="yes"/>
      <point x="312.667" y="718"/>
      <point x="295.5" y="700"/>
      <point x="291.5" y="679" type="curve"/>
      <point x="291.333" y="675.333"/>
      <point x="290.5" y="672.333"/>
      <point x="290.5" y="668.667" type="curve"/>
      <point x="290.333" y="659.5"/>
      <point x="292.5" y="650.333"/>
      <point x="294.5" y="640.167" type="curve"/>
      <point x="296.667" y="627.167"/>
      <point x="299.833" y="614"/>
      <point x="299.667" y="597.833" type="curve"/>
      <point x="299.667" y="594"/>
      <point x="299.5" y="591"/>
      <point x="299.5" y="587.167" type="curve"/>
      <point x="259.167" y="605.333"/>
      <point x="246.833" y="638.333"/>
      <point x="213.167" y="638.333" type="curve" smooth="yes"/>
      <point x="190.333" y="638.333"/>
      <point x="178.167" y="622"/>
      <point x="175.167" y="608" type="curve"/>
      <point x="175" y="605.833"/>
      <point x="175" y="603.5"/>
      <point x="175" y="601.333" type="curve"/>
      <point x="174.5" y="574.667"/>
      <point x="204" y="569.833"/>
      <point x="248.333" y="571" type="curve" smooth="yes"/>
      <point x="258.333" y="571.167"/>
      <point x="268.167" y="570.833"/>
      <point x="277" y="568.833" type="curve"/>
      <point x="281.667" y="568.667"/>
      <point x="285.667" y="567.833"/>
    </contour>
  </outline>
</glyph>
<glyph name="plus" format="2">
  <advance width="529"/>
  <unicode hex="002B"/>
  <outline>
    <contour>
      <point x="339.833" y="258.167" type="line"/>
      <point x="370.5" y="430.5" type="line"/>
      <point x="316.833" y="430.5" type="line"/>
      <point x="286" y="258.167" type="line"/>
      <point x="114.833" y="258.167" type="line"/>
      <point x="105.667" y="205" type="line"/>
      <point x="275.833" y="205" type="line"/>
      <point x="244.333" y="33.6667" type="line"/>
      <point x="298" y="33.6667" type="line"/>
      <point x="329.667" y="205" type="line"/>
      <point x="500" y="205" type="line"/>
      <point x="510" y="258.167" type="line"/>
    </contour>
  </outline>
</glyph>
<glyph name="comma" format="2">
  <advance width="223"/>
  <unicode hex="002C"/>
  <outline>
    <contour>
      <point x="123.833" y="100.333" type="curve" smooth="yes"/>
      <point x="92.6667" y="100.333"/>
      <point x="67.3333" y="80.1667"/>
      <point x="67.3333" y="47.1667" type="curve" smooth="yes"/>
      <point x="67.3333" y="-9.33333"/>
      <point x="126.333" y="8.33333"/>
      <point x="126.333" y="-22" type="curve" smooth="yes"/>
      <point x="126.333" y="-51.3333"/>
      <point x="69.6667" y="-102.167"/>
      <point x="20.1667" y="-113.5" type="curve"/>
      <point x="16.3333" y="-123.167"/>
      <point x="18.5" y="-131.5"/>
      <point x="26.8333" y="-137.833" type="curve"/>
      <point x="112.5" y="-122.667"/>
      <point x="180.333" y="-55.8333"/>
      <point x="180.333" y="34.6667" type="curve" smooth="yes"/>
      <point x="180.333" y="76.1667"/>
      <point x="156.333" y="100.333"/>
    </contour>
  </outline>
</glyph>
<glyph name="hyphen" format="2">
  <advance width="337"/>
  <unicode hex="002D"/>
  <outline>
    <contour>
      <point x="316.167" y="221.667" type="line" smooth="yes"/>
      <point x="332.5" y="221.667"/>
      <point x="353.167" y="256.667"/>
      <point x="353.167" y="271.333" type="curve" smooth="yes"/>
      <point x="353.167" y="279"/>
      <point x="349.333" y="284.833"/>
      <point x="338" y="284.833" type="curve" smooth="yes"/>
      <point x="113.833" y="284.833" type="line" smooth="yes"/>
      <point x="102" y="284.833"/>
      <point x="79.5" y="256.333"/>
      <point x="79.5" y="239.333" type="curve" smooth="yes"/>
      <point x="79.5" y="230.833"/>
      <point x="84.1667" y="221.667"/>
      <point x="94" y="221.667" type="curve" smooth="yes"/>
    </contour>
  </outline>
</glyph>
<glyph name="period" format="2">
  <advance width="220"/>
  <unicode hex="002E"/>
  <outline>
    <contour>
      <point x="58.6667" y="36.5" type="curve" smooth="yes"/>
      <point x="58.6667" y="9.66667"/>
      <point x="79.3333" y="-10.8333"/>
      <point x="106.833" y="-10.8333" type="curve" smooth="yes"/>
      <point x="143.333" y="-10.8333"/>
      <point x="173.5" y="22.1667"/>
      <point x="173.5" y="54.8333" type="curve" smooth="yes"/>
      <point x="173.5" y="81"/>
      <point x="152.833" y="100.667"/>
      <point x="125.333" y="100.667" type="curve" smooth="yes"/>
      <point x="88.1667" y="100.667"/>
      <point x="58.6667" y="66.5"/>
    </contour>
  </outline>
</glyph>
<glyph name="slash" format="2">
  <advance width="292"/>
  <unicode hex="002F"/>
  <outline>
    <contour>
      <point x="402.5" y="682" type="line"/>
      <point x="358.5" y="682" type="line"/>
      <point x="4.167" y="-21" type="line"/>
      <point x="49" y="-21" type="line"/>
    </contour>
  </outline>
</glyph>
<glyph name="zero" format="2">
  <advance width="456"/>
  <unicode hex="0030"/>
  <outline>
    <contour>
      <point x="230.501" y="-10" type="curve" smooth="yes"/>
      <point x="409.212" y="-10"/>
      <point x="494" y="274.704"/>
      <point x="494" y="413.333" type="curve" smooth="yes"/>
      <point x="494" y="521.666"/>
      <point x="453.667" y="610"/>
      <point x="357.5" y="610" type="curve" smooth="yes"/>
      <point x="184.614" y="610"/>
      <point x="95.167" y="325.979"/>
      <point x="95.167" y="192.5" type="curve" smooth="yes"/>
      <point x="95.167" y="88"/>
      <point x="132.667" y="-10"/>
    </contour>
    <contour>
      <point x="238" y="23.833" type="curve" smooth="yes"/>
      <point x="181.192" y="23.833"/>
      <point x="173.334" y="90.699"/>
      <point x="173.334" y="137.166" type="curve" smooth="yes"/>
      <point x="173.334" y="224.244"/>
      <point x="229.891" y="575.833"/>
      <point x="350.834" y="575.833" type="curve" smooth="yes"/>
      <point x="408.519" y="575.833"/>
      <point x="415" y="501.983"/>
      <point x="415" y="459" type="curve" smooth="yes"/>
      <point x="415" y="372.133"/>
      <point x="367.495" y="23.833"/>
    </contour>
  </outline>
</glyph>
<glyph name="one" format="2">
  <advance width="456"/>
  <unicode hex="0031"/>
  <outline>
    <contour>
      <point x="319.333" y="84.5" type="curve" smooth="yes"/>
      <point x="400.5" y="487.167" type="line"/>
      <point x="408.167" y="529.333"/>
      <point x="418.167" y="571.333"/>
      <point x="424.833" y="603.833" type="curve"/>
      <point x="425.333" y="607.667"/>
      <point x="422.5" y="610"/>
      <point x="418.667" y="610" type="curve" smooth="yes"/>
      <point x="417.5" y="610"/>
      <point x="416.167" y="610"/>
      <point x="414.833" y="609" type="curve"/>
      <point x="407" y="604.667"/>
      <point x="399" y="600.167"/>
      <point x="389.833" y="595.333" type="curve"/>
      <point x="386.5" y="593.333"/>
      <point x="383" y="592.167"/>
      <point x="379.5" y="590" type="curve"/>
      <point x="334" y="566.167"/>
      <point x="275.667" y="540.5"/>
      <point x="196.667" y="514.5" type="curve"/>
      <point x="196.167" y="502.5"/>
      <point x="199.167" y="492.333"/>
      <point x="205.167" y="483.167" type="curve"/>
      <point x="237" y="494.5"/>
      <point x="271" y="499"/>
      <point x="291.5" y="500.667" type="curve"/>
      <point x="294" y="500.667"/>
      <point x="296.5" y="500.667"/>
      <point x="299" y="500.667" type="curve" smooth="yes"/>
      <point x="308.833" y="500.667"/>
      <point x="314" y="492.833"/>
      <point x="313.5" y="475.833" type="curve" smooth="yes"/>
      <point x="313.333" y="467"/>
      <point x="311.5" y="459.667"/>
      <point x="309.333" y="446.667" type="curve"/>
      <point x="243.167" y="108.667" type="line"/>
      <point x="238.167" y="84.5" type="line" smooth="yes"/>
      <point x="231.833" y="51.5"/>
      <point x="210" y="35"/>
      <point x="166.333" y="31.1667" type="curve" smooth="yes"/>
      <point x="154" y="29.8333"/>
      <point x="141.5" y="29.6667"/>
      <point x="128.833" y="28.6667" type="curve"/>
      <point x="123.667" y="24.3333"/>
      <point x="121.333" y="7.33333"/>
      <point x="126" y="-1.16667" type="curve"/>
      <point x="176.667" y="-0.166667"/>
      <point x="214.5" y="0"/>
      <point x="265.833" y="0" type="curve" smooth="yes"/>
      <point x="312.167" y="0"/>
      <point x="343.833" y="-0.166667"/>
      <point x="395.333" y="-1.16667" type="curve"/>
      <point x="400.5" y="3.16667"/>
      <point x="402.833" y="23.5"/>
      <point x="399" y="28.6667" type="curve"/>
      <point x="387" y="29.6667"/>
      <point x="375.167" y="29.8333"/>
      <point x="363.667" y="31.3333" type="curve"/>
      <point x="324.167" y="35.1667"/>
      <point x="313.167" y="52.8333"/>
    </contour>
  </outline>
</glyph>
<glyph name="two" format="2">
  <advance width="456"/>
  <unicode hex="0032"/>
  <outline>
    <contour>
      <point x="246.167" y="586.333" type="curve" smooth="yes"/>
      <point x="188.333" y="558"/>
      <point x="147.5" y="507.833"/>
      <point x="147.5" y="467.5" type="curve" smooth="yes"/>
      <point x="147.5" y="450.5"/>
      <point x="163.333" y="430"/>
      <point x="184.167" y="430" type="curve" smooth="yes"/>
      <point x="202.833" y="430"/>
      <point x="220.5" y="443"/>
      <point x="227.333" y="459.833" type="curve"/>
      <point x="231" y="467.667"/>
      <point x="230.667" y="476.833"/>
      <point x="230.333" y="485" type="curve" smooth="yes"/>
      <point x="230.167" y="491.833"/>
      <point x="227.5" y="502.667"/>
      <point x="227.5" y="508.5" type="curve" smooth="yes"/>
      <point x="227.5" y="512"/>
      <point x="227.667" y="515.333"/>
      <point x="229" y="518.833" type="curve"/>
      <point x="234.167" y="537.333"/>
      <point x="252.833" y="560"/>
      <point x="291.667" y="569.167" type="curve"/>
      <point x="303.333" y="572.5"/>
      <point x="316.833" y="574.167"/>
      <point x="332.667" y="574" type="curve"/>
      <point x="362.833" y="572.833"/>
      <point x="405.833" y="543.667"/>
      <point x="405.833" y="481" type="curve" smooth="yes"/>
      <point x="405.833" y="402.667"/>
      <point x="359.5" y="340.5"/>
      <point x="302.5" y="287.333" type="curve"/>
      <point x="298.5" y="283.333"/>
      <point x="294.5" y="280.167"/>
      <point x="290.5" y="276.167" type="curve"/>
      <point x="218" y="211.5" type="line"/>
      <point x="208" y="202.333" type="line" smooth="yes"/>
      <point x="127.167" y="129.333"/>
      <point x="90" y="85"/>
      <point x="70" y="46.1667" type="curve"/>
      <point x="68.8333" y="45.1667" type="line"/>
      <point x="62" y="30.1667"/>
      <point x="58.3333" y="13.8333"/>
      <point x="56.5" y="-0.833333" type="curve"/>
      <point x="61.3333" y="-0.833333"/>
      <point x="105.5" y="0"/>
      <point x="135.333" y="0" type="curve" smooth="yes"/>
      <point x="303.833" y="0" type="line" smooth="yes"/>
      <point x="333.667" y="0"/>
      <point x="374.5" y="-0.833333"/>
      <point x="379.333" y="-0.833333" type="curve"/>
      <point x="401.667" y="48"/>
      <point x="425.167" y="127.833"/>
      <point x="428.333" y="137.333" type="curve"/>
      <point x="420.667" y="142.5"/>
      <point x="412" y="145.667"/>
      <point x="400" y="145.667" type="curve"/>
      <point x="372.5" y="84.3333"/>
      <point x="354.167" y="66.5"/>
      <point x="318.833" y="66.5" type="curve" smooth="yes"/>
      <point x="155.333" y="66.5" type="line"/>
      <point x="167" y="111.167"/>
      <point x="235.667" y="170.167"/>
      <point x="246.667" y="179.833" type="curve" smooth="yes"/>
      <point x="308.167" y="233" type="line" smooth="yes"/>
      <point x="325.833" y="248.667"/>
      <point x="343.333" y="263.333"/>
      <point x="360.333" y="278.5" type="curve" smooth="yes"/>
      <point x="415.167" y="325.833"/>
      <point x="484.333" y="397"/>
      <point x="491.833" y="477" type="curve"/>
      <point x="492.667" y="482.167"/>
      <point x="492.667" y="488.167"/>
      <point x="492.5" y="493.167" type="curve" smooth="yes"/>
      <point x="490.667" y="579.5"/>
      <point x="413.333" y="610"/>
      <point x="347.5" y="610" type="curve" smooth="yes"/>
      <point x="307.833" y="610"/>
      <point x="275.167" y="600.667"/>
    </contour>
  </outline>
</glyph>
<glyph name="three" format="2">
  <advance width="456"/>
  <unicode hex="0033"/>
  <outline>
    <contour>
      <point x="331.667" y="574.167" type="curve" smooth="yes"/>
      <point x="370.667" y="574.167"/>
      <point x="403.667" y="546.667"/>
      <point x="403.667" y="500.334" type="curve" smooth="yes"/>
      <point x="403.667" y="445.667"/>
      <point x="356.667" y="391.5"/>
      <point x="298" y="360.667" type="curve" smooth="yes"/>
      <point x="275.667" y="349.167"/>
      <point x="252" y="342.167"/>
      <point x="230" y="339" type="curve"/>
      <point x="229.167" y="307.333" type="line"/>
      <point x="241.5" y="308.5"/>
      <point x="251.834" y="310.166"/>
      <point x="260.834" y="310.166" type="curve"/>
      <point x="264.667" y="311"/>
      <point x="269.5" y="311"/>
      <point x="273.5" y="310.833" type="curve" smooth="yes"/>
      <point x="321.834" y="310"/>
      <point x="375.167" y="286.166"/>
      <point x="375.167" y="207.833" type="curve" smooth="yes"/>
      <point x="375.167" y="155.667"/>
      <point x="353.167" y="110.833"/>
      <point x="322.5" y="78.167" type="curve" smooth="yes"/>
      <point x="295" y="49.5"/>
      <point x="260.834" y="30.334"/>
      <point x="229.667" y="24.5" type="curve"/>
      <point x="221.167" y="23.667"/>
      <point x="213.834" y="23.167"/>
      <point x="206.5" y="23.667" type="curve" smooth="yes"/>
      <point x="179.5" y="25.167"/>
      <point x="164.167" y="36.167"/>
      <point x="154" y="48.167" type="curve" smooth="yes"/>
      <point x="138.667" y="66.5"/>
      <point x="130.334" y="90.167"/>
      <point x="102" y="90.167" type="curve" smooth="yes"/>
      <point x="84.834" y="90.167"/>
      <point x="66.834" y="74.667"/>
      <point x="61.834" y="57.167" type="curve"/>
      <point x="60.167" y="53.167"/>
      <point x="59.334" y="49.334"/>
      <point x="59.5" y="45.334" type="curve" smooth="yes"/>
      <point x="60" y="35.5"/>
      <point x="67" y="27.5"/>
      <point x="78" y="19.667" type="curve"/>
      <point x="105" y="2"/>
      <point x="155.5" y="-9.5"/>
      <point x="193.667" y="-10" type="curve"/>
      <point x="198.667" y="-10"/>
      <point x="203.5" y="-10"/>
      <point x="208.334" y="-10" type="curve"/>
      <point x="277.5" y="-6.667"/>
      <point x="342.667" y="20.834"/>
      <point x="390.167" y="69.167" type="curve" smooth="yes"/>
      <point x="428.5" y="108.333"/>
      <point x="454.001" y="156.833"/>
      <point x="457.334" y="214.5" type="curve"/>
      <point x="457.334" y="219.333"/>
      <point x="457.334" y="223.5"/>
      <point x="457.167" y="228.333" type="curve" smooth="yes"/>
      <point x="456.334" y="298.333"/>
      <point x="413.167" y="343.833"/>
      <point x="357.334" y="355.667" type="curve"/>
      <point x="357.334" y="356.167" type="line"/>
      <point x="435.334" y="404.333"/>
      <point x="466.834" y="446.167"/>
      <point x="473.5" y="491.167" type="curve"/>
      <point x="475.167" y="500.5"/>
      <point x="475.834" y="509"/>
      <point x="475.667" y="517.667" type="curve" smooth="yes"/>
      <point x="474.167" y="560.834"/>
      <point x="431.501" y="608.5"/>
      <point x="362.667" y="609.833" type="curve" smooth="yes"/>
      <point x="356.5" y="610"/>
      <point x="351.167" y="610"/>
      <point x="345.834" y="610" type="curve"/>
      <point x="281.334" y="606.667"/>
      <point x="232.667" y="579.667"/>
      <point x="201.5" y="551" type="curve"/>
      <point x="197.667" y="547.167"/>
      <point x="193.834" y="543.5"/>
      <point x="190" y="539.834" type="curve"/>
      <point x="166.667" y="515.167"/>
      <point x="154.667" y="490.834"/>
      <point x="154.667" y="473.167" type="curve" smooth="yes"/>
      <point x="154.667" y="459.667"/>
      <point x="161" y="447.5"/>
      <point x="176.5" y="446.833" type="curve"/>
      <point x="177.167" y="446.667"/>
      <point x="177.834" y="446.5"/>
      <point x="178.667" y="446.5" type="curve"/>
      <point x="206.5" y="446.5"/>
      <point x="223.334" y="478"/>
      <point x="227.334" y="498.667" type="curve" smooth="yes"/>
      <point x="228.334" y="503.667"/>
      <point x="230.167" y="509.334"/>
      <point x="231.167" y="513.334" type="curve"/>
      <point x="249.334" y="560"/>
      <point x="305.5" y="574.167"/>
    </contour>
  </outline>
</glyph>
<glyph name="four" format="2">
  <advance width="457"/>
  <unicode hex="0034"/>
  <outline>
    <contour>
      <point x="474.5" y="212.333" type="curve" smooth="yes"/>
      <point x="394.167" y="212.333" type="line"/>
      <point x="453.333" y="510.667" type="line" smooth="yes"/>
      <point x="462.833" y="560.167"/>
      <point x="469.833" y="596.333"/>
      <point x="473.5" y="610" type="curve"/>
      <point x="444.5" y="610" type="line" smooth="yes"/>
      <point x="432.5" y="610"/>
      <point x="413.833" y="600"/>
      <point x="407.667" y="595.833" type="curve"/>
      <point x="296.667" y="439"/>
      <point x="198.833" y="334.5"/>
      <point x="85.6667" y="220.5" type="curve" smooth="yes"/>
      <point x="81.8333" y="216.5"/>
      <point x="78.1667" y="213"/>
      <point x="74.8333" y="209" type="curve"/>
      <point x="72.3333" y="196"/>
      <point x="80.5" y="180.333"/>
      <point x="92.1667" y="173.167" type="curve"/>
      <point x="96" y="170.667"/>
      <point x="100.667" y="169.5"/>
      <point x="109.5" y="169.5" type="curve" smooth="yes"/>
      <point x="311.5" y="169.5" type="line"/>
      <point x="297.5" y="97.8333" type="line"/>
      <point x="295" y="84.5" type="line" smooth="yes"/>
      <point x="288.167" y="49.5"/>
      <point x="264.5" y="35.1667"/>
      <point x="235.667" y="31" type="curve"/>
      <point x="225.5" y="29.1667"/>
      <point x="215.833" y="28.8333"/>
      <point x="204.833" y="27.8333" type="curve"/>
      <point x="199.667" y="23.5"/>
      <point x="197.333" y="5.66667"/>
      <point x="202" y="-2" type="curve"/>
      <point x="236.5" y="-1"/>
      <point x="265" y="0"/>
      <point x="299.667" y="0" type="curve" smooth="yes"/>
      <point x="305.167" y="0"/>
      <point x="311.5" y="0"/>
      <point x="318" y="0" type="curve" smooth="yes"/>
      <point x="355.333" y="0"/>
      <point x="388.833" y="-1"/>
      <point x="423.833" y="-2" type="curve"/>
      <point x="428.167" y="2.33333"/>
      <point x="431.333" y="22.6667"/>
      <point x="427.5" y="27.8333" type="curve"/>
      <point x="419" y="28.8333"/>
      <point x="409.667" y="28.8333"/>
      <point x="401.5" y="30" type="curve"/>
      <point x="376.667" y="32.3333"/>
      <point x="364.167" y="44.8333"/>
      <point x="368.667" y="77.1667" type="curve" smooth="yes"/>
      <point x="371.167" y="92.3333"/>
      <point x="373.833" y="107.333"/>
      <point x="377" y="123.667" type="curve" smooth="yes"/>
      <point x="385.833" y="169.5" type="line"/>
      <point x="453.167" y="169.5" type="line" smooth="yes"/>
      <point x="467.333" y="169.5"/>
      <point x="487.333" y="188"/>
      <point x="487.333" y="202.333" type="curve" smooth="yes"/>
      <point x="487.333" y="209.167"/>
      <point x="482.5" y="212.333"/>
    </contour>
    <contour>
      <point x="377.667" y="503.5" type="curve"/>
      <point x="319.833" y="212.333" type="line"/>
      <point x="121.833" y="212.333" type="line"/>
      <point x="208.5" y="302.167"/>
      <point x="295.167" y="390.667"/>
    </contour>
  </outline>
</glyph>
<glyph name="five" format="2">
  <advance width="456"/>
  <unicode hex="0035"/>
  <outline>
    <contour>
      <point x="365.5" y="213" type="curve" smooth="yes"/>
      <point x="365.5" y="151.333"/>
      <point x="340" y="98.333"/>
      <point x="304.5" y="64.167" type="curve" smooth="yes"/>
      <point x="277.833" y="39.167"/>
      <point x="245.667" y="24"/>
      <point x="213.333" y="24" type="curve" smooth="yes"/>
      <point x="183.5" y="24"/>
      <point x="166.5" y="40.833"/>
      <point x="154.667" y="58.167" type="curve" smooth="yes"/>
      <point x="142.333" y="75.667"/>
      <point x="131.167" y="93.833"/>
      <point x="108.667" y="93.833" type="curve" smooth="yes"/>
      <point x="85.333" y="93.833"/>
      <point x="65.333" y="74.333"/>
      <point x="65.333" y="53" type="curve" smooth="yes"/>
      <point x="65.333" y="40.333"/>
      <point x="73.833" y="29"/>
      <point x="86.833" y="19.667" type="curve" smooth="yes"/>
      <point x="114.667" y="0.5"/>
      <point x="163" y="-10"/>
      <point x="203.833" y="-10" type="curve" smooth="yes"/>
      <point x="332.833" y="-10"/>
      <point x="439.5" y="89.5"/>
      <point x="447" y="213" type="curve"/>
      <point x="447.834" y="218.834"/>
      <point x="447.834" y="224.5"/>
      <point x="447.667" y="230.334" type="curve" smooth="yes"/>
      <point x="446.834" y="311.167"/>
      <point x="398.333" y="385"/>
      <point x="309.333" y="389" type="curve" smooth="yes"/>
      <point x="268.833" y="390.167"/>
      <point x="228.333" y="387.333"/>
      <point x="206.5" y="381.333" type="curve"/>
      <point x="258" y="540.5" type="line"/>
      <point x="293.667" y="535.833"/>
      <point x="339.667" y="533"/>
      <point x="377.167" y="533" type="curve" smooth="yes"/>
      <point x="406.167" y="533"/>
      <point x="435.834" y="535"/>
      <point x="479.667" y="539.833" type="curve"/>
      <point x="503.167" y="610" type="line"/>
      <point x="498" y="609.833"/>
      <point x="491.834" y="609.833"/>
      <point x="486.667" y="610.5" type="curve"/>
      <point x="433.334" y="603.5"/>
      <point x="383" y="600.833"/>
      <point x="336.167" y="600.833" type="curve" smooth="yes"/>
      <point x="300.667" y="600.833"/>
      <point x="269.167" y="603.5"/>
      <point x="232.833" y="605.833" type="curve"/>
      <point x="143.667" y="322.667" type="line"/>
      <point x="150" y="323.834"/>
      <point x="155.667" y="326"/>
      <point x="162" y="326.334" type="curve"/>
      <point x="205.5" y="337.834"/>
      <point x="247.667" y="338.667"/>
      <point x="278.5" y="337.167" type="curve" smooth="yes"/>
      <point x="327.167" y="335"/>
      <point x="365.5" y="282.167"/>
    </contour>
  </outline>
</glyph>
<glyph name="six" format="2">
  <advance width="456"/>
  <unicode hex="0036"/>
  <outline>
    <contour>
      <point x="511.167" y="587" type="curve"/>
      <point x="512.833" y="597.667"/>
      <point x="512.333" y="607.167"/>
      <point x="508.667" y="616" type="curve"/>
      <point x="410.333" y="609.167"/>
      <point x="308.5" y="563.833"/>
      <point x="230.167" y="488" type="curve" smooth="yes"/>
      <point x="104.5" y="365.666"/>
      <point x="88.333" y="214"/>
      <point x="88.333" y="167.333" type="curve" smooth="yes"/>
      <point x="88.333" y="29.5"/>
      <point x="164.167" y="-10"/>
      <point x="239" y="-10" type="curve" smooth="yes"/>
      <point x="367.667" y="-10"/>
      <point x="466" y="108.5"/>
      <point x="466" y="219.167" type="curve" smooth="yes"/>
      <point x="466" y="281.5"/>
      <point x="439.5" y="361.833"/>
      <point x="314.333" y="361.833" type="curve" smooth="yes"/>
      <point x="278.833" y="361.833"/>
      <point x="227.5" y="340.5"/>
      <point x="192.833" y="313.5" type="curve"/>
      <point x="214.833" y="381.333"/>
      <point x="258.167" y="443.5"/>
      <point x="304.333" y="486.5" type="curve" smooth="yes"/>
      <point x="362.833" y="541.167"/>
      <point x="440.833" y="575.667"/>
    </contour>
    <contour>
      <point x="185.333" y="281.667" type="curve"/>
      <point x="233" y="315.667"/>
      <point x="262.667" y="323.5"/>
      <point x="286.333" y="323.5" type="curve" smooth="yes"/>
      <point x="362.167" y="323.5"/>
      <point x="383.5" y="258.333"/>
      <point x="383.5" y="208.333" type="curve" smooth="yes"/>
      <point x="383.5" y="134.333"/>
      <point x="331.333" y="22"/>
      <point x="258" y="22" type="curve" smooth="yes"/>
      <point x="221.667" y="22"/>
      <point x="168.5" y="55"/>
      <point x="168.5" y="155.333" type="curve" smooth="yes"/>
      <point x="168.5" y="199.667"/>
      <point x="176.833" y="254.833"/>
    </contour>
  </outline>
</glyph>
<glyph name="seven" format="2">
  <advance width="456"/>
  <unicode hex="0037"/>
  <outline>
    <contour>
      <point x="271.5" y="536.333" type="curve" smooth="yes"/>
      <point x="457" y="536.333" type="line"/>
      <point x="348.5" y="349.5"/>
      <point x="228" y="147.333"/>
      <point x="131.5" y="-5" type="curve"/>
      <point x="137" y="-12.834" type="line"/>
      <point x="209" y="-8.667" type="line"/>
      <point x="297.167" y="161.5"/>
      <point x="381.167" y="325.666"/>
      <point x="543.5" y="598.5" type="curve"/>
      <point x="532.833" y="610" type="line"/>
      <point x="514" y="605.833"/>
      <point x="491.833" y="600.833"/>
      <point x="457.167" y="600.833" type="curve" smooth="yes"/>
      <point x="241.5" y="600.833" type="line" smooth="yes"/>
      <point x="213.667" y="600.833"/>
      <point x="211.333" y="606"/>
      <point x="207" y="610.833" type="curve"/>
      <point x="206.167" y="612.5"/>
      <point x="202.833" y="613.333"/>
      <point x="199.5" y="613.333" type="curve" smooth="yes"/>
      <point x="195.667" y="613.333"/>
      <point x="191.333" y="612.5"/>
      <point x="191.167" y="610.333" type="curve"/>
      <point x="180.167" y="564"/>
      <point x="166.667" y="517"/>
      <point x="150" y="465.666" type="curve"/>
      <point x="159.667" y="462.333"/>
      <point x="169" y="461.333"/>
      <point x="179.167" y="462.5" type="curve"/>
      <point x="206.833" y="522.833"/>
      <point x="223" y="536.333"/>
    </contour>
  </outline>
</glyph>
<glyph name="eight" format="2">
  <advance width="456"/>
  <unicode hex="0038"/>
  <outline>
    <contour>
      <point x="438.667" y="398.333" type="curve" smooth="yes"/>
      <point x="473.5" y="428"/>
      <point x="493.333" y="456.167"/>
      <point x="493.333" y="499.333" type="curve" smooth="yes"/>
      <point x="493.333" y="556.667"/>
      <point x="446" y="604.166"/>
      <point x="369.5" y="609.166" type="curve"/>
      <point x="363.334" y="610"/>
      <point x="356.5" y="610"/>
      <point x="350.334" y="609.833" type="curve" smooth="yes"/>
      <point x="299.001" y="609.333"/>
      <point x="252.334" y="588.333"/>
      <point x="218.334" y="557.5" type="curve" smooth="yes"/>
      <point x="183.667" y="527"/>
      <point x="161.5" y="486.333"/>
      <point x="160.667" y="443.833" type="curve" smooth="yes"/>
      <point x="160.5" y="439.5"/>
      <point x="160.5" y="434.333"/>
      <point x="161.334" y="430" type="curve"/>
      <point x="164.667" y="395.333"/>
      <point x="187.667" y="366.667"/>
      <point x="229.334" y="336" type="curve" smooth="yes"/>
      <point x="249.001" y="321.333" type="line"/>
      <point x="212.001" y="299.166"/>
      <point x="170.667" y="275.666"/>
      <point x="138.334" y="244.5" type="curve" smooth="yes"/>
      <point x="104" y="212.166"/>
      <point x="78" y="171.666"/>
      <point x="78" y="117.5" type="curve" smooth="yes"/>
      <point x="78" y="29"/>
      <point x="149.834" y="-10"/>
      <point x="236.334" y="-10" type="curve" smooth="yes"/>
      <point x="296.834" y="-10"/>
      <point x="347.834" y="11"/>
      <point x="385.667" y="44.333" type="curve" smooth="yes"/>
      <point x="429" y="83.833"/>
      <point x="453.334" y="137"/>
      <point x="453.334" y="200.666" type="curve" smooth="yes"/>
      <point x="453.334" y="238.833"/>
      <point x="440.667" y="277.166"/>
      <point x="407.167" y="304" type="curve"/>
      <point x="403.167" y="307.833"/>
      <point x="399.167" y="310.833"/>
      <point x="394.5" y="313.667" type="curve"/>
      <point x="354.5" y="340.333" type="line"/>
      <point x="387.834" y="361"/>
      <point x="416.333" y="379.5"/>
    </contour>
    <contour>
      <point x="244.501" y="20.333" type="curve" smooth="yes"/>
      <point x="207.001" y="20.333"/>
      <point x="157.167" y="45.833"/>
      <point x="148.834" y="104.166" type="curve" smooth="yes"/>
      <point x="148" y="109.833"/>
      <point x="147.167" y="116.5"/>
      <point x="147.167" y="123.833" type="curve"/>
      <point x="147.5" y="197.166"/>
      <point x="208.334" y="253.833"/>
      <point x="278.667" y="299.166" type="curve"/>
      <point x="312" y="274.833" type="line" smooth="yes"/>
      <point x="351.167" y="246"/>
      <point x="370.834" y="216.666"/>
      <point x="375" y="183.333" type="curve"/>
      <point x="375.834" y="179.166"/>
      <point x="375.834" y="174.166"/>
      <point x="375.667" y="169.166" type="curve" smooth="yes"/>
      <point x="375.167" y="121.5"/>
      <point x="358.834" y="79.666"/>
      <point x="331" y="53.833" type="curve"/>
      <point x="308.167" y="31.166"/>
      <point x="278.834" y="20.333"/>
    </contour>
    <contour>
      <point x="342.167" y="579.5" type="curve" smooth="yes"/>
      <point x="388.833" y="579.5"/>
      <point x="419.833" y="541.167"/>
      <point x="424" y="504.333" type="curve"/>
      <point x="424.833" y="501.833"/>
      <point x="424.833" y="498.5"/>
      <point x="424.833" y="496" type="curve" smooth="yes"/>
      <point x="424.833" y="462.833"/>
      <point x="410.5" y="428.667"/>
      <point x="323.667" y="361.833" type="curve"/>
      <point x="298.834" y="378.667" type="line" smooth="yes"/>
      <point x="293.501" y="382.333"/>
      <point x="288.834" y="385.833"/>
      <point x="284.167" y="389.5" type="curve" smooth="yes"/>
      <point x="247.501" y="417.667"/>
      <point x="237.001" y="440.5"/>
      <point x="235.334" y="462.667" type="curve"/>
      <point x="235.334" y="465.167"/>
      <point x="235.334" y="467.667"/>
      <point x="235.334" y="470.167" type="curve" smooth="yes"/>
      <point x="235.334" y="495.5"/>
      <point x="247.167" y="523.167"/>
      <point x="266.501" y="544.5" type="curve" smooth="yes"/>
      <point x="286.167" y="565.167"/>
      <point x="312.667" y="579.5"/>
    </contour>
  </outline>
</glyph>
<glyph name="nine" format="2">
  <advance width="456"/>
  <unicode hex="0039"/>
  <outline>
    <contour>
      <point x="77.1667" y="13" type="curve"/>
      <point x="75.5" y="2.33333"/>
      <point x="76" y="-7.16667"/>
      <point x="79.6667" y="-16" type="curve"/>
      <point x="178" y="-9.16667"/>
      <point x="279.667" y="36.1667"/>
      <point x="358" y="112" type="curve" smooth="yes"/>
      <point x="483.667" y="234.333"/>
      <point x="500" y="386"/>
      <point x="500" y="432.667" type="curve" smooth="yes"/>
      <point x="500" y="570.5"/>
      <point x="424" y="610"/>
      <point x="349.167" y="610" type="curve" smooth="yes"/>
      <point x="220.5" y="610"/>
      <point x="122.167" y="491.5"/>
      <point x="122.167" y="380.833" type="curve" smooth="yes"/>
      <point x="122.167" y="318.5"/>
      <point x="148.667" y="238.167"/>
      <point x="273.833" y="238.167" type="curve" smooth="yes"/>
      <point x="309.333" y="238.167"/>
      <point x="360.667" y="259.5"/>
      <point x="395.333" y="286.5" type="curve"/>
      <point x="373.333" y="218.667"/>
      <point x="330" y="156.5"/>
      <point x="283.833" y="113.5" type="curve" smooth="yes"/>
      <point x="225.333" y="58.8333"/>
      <point x="147.5" y="24.3333"/>
    </contour>
    <contour>
      <point x="402.833" y="318.333" type="curve"/>
      <point x="355.167" y="284.333"/>
      <point x="325.5" y="276.5"/>
      <point x="301.833" y="276.5" type="curve" smooth="yes"/>
      <point x="226" y="276.5"/>
      <point x="204.667" y="341.667"/>
      <point x="204.667" y="391.667" type="curve" smooth="yes"/>
      <point x="204.667" y="465.667"/>
      <point x="258.333" y="578"/>
      <point x="330" y="578" type="curve" smooth="yes"/>
      <point x="366.333" y="578"/>
      <point x="419.667" y="545"/>
      <point x="419.667" y="444.667" type="curve" smooth="yes"/>
      <point x="419.667" y="400.333"/>
      <point x="411.333" y="345.167"/>
    </contour>
  </outline>
</glyph>
<glyph name="less" format="2">
  <advance width="491"/>
  <unicode hex="003C"/>
  <outline>
    <contour>
      <point x="172" y="239.167" type="line"/>
      <point x="506.833" y="354.334" type="line"/>
      <point x="516.5" y="406.334" type="line"/>
      <point x="98" y="262.834" type="line"/>
      <point x="89.667" y="215.5" type="line"/>
      <point x="455.5" y="71.167" type="line"/>
      <point x="464.5" y="123.167" type="line"/>
    </contour>
  </outline>
</glyph>
<glyph name="equal" format="2">
  <advance width="531"/>
  <unicode hex="003D"/>
  <outline>
    <contour>
      <point x="523.667" y="318.833" type="line"/>
      <point x="125.667" y="318.833" type="line"/>
      <point x="116.167" y="268.5" type="line"/>
      <point x="514.167" y="268.5" type="line"/>
    </contour>
    <contour>
      <point x="501" y="193.834" type="line"/>
      <point x="103" y="193.834" type="line"/>
      <point x="93.5" y="143.667" type="line"/>
      <point x="491.5" y="143.667" type="line"/>
    </contour>
  </outline>
</glyph>
<glyph name="greater" format="2">
  <advance width="491"/>
  <unicode hex="003E"/>
  <outline>
    <contour>
      <point x="406.833" y="236.333" type="line"/>
      <point x="72.1667" y="121.167" type="line"/>
      <point x="63.3333" y="69.1667" type="line"/>
      <point x="481.833" y="212.5" type="line"/>
      <point x="490.167" y="259.833" type="line"/>
      <point x="124.333" y="404.333" type="line"/>
      <point x="114.667" y="352.333" type="line"/>
    </contour>
  </outline>
</glyph>
<glyph name="question" format="2">
  <advance width="409"/>
  <unicode hex="003F"/>
  <outline>
    <contour>
      <point x="222.166" y="564.167" type="curve"/>
      <point x="223" y="593.334"/>
      <point x="257.334" y="627"/>
      <point x="320.667" y="627.667" type="curve"/>
      <point x="324.834" y="627.834"/>
      <point x="328.834" y="627.834"/>
      <point x="333" y="627" type="curve"/>
      <point x="378.5" y="621.167"/>
      <point x="404.5" y="577.5"/>
      <point x="402.5" y="527" type="curve" smooth="yes"/>
      <point x="400.667" y="447.834"/>
      <point x="352.834" y="422.5"/>
      <point x="305.5" y="378.167" type="curve" smooth="yes"/>
      <point x="267.834" y="343.667"/>
      <point x="239.833" y="301"/>
      <point x="226.666" y="232.834" type="curve"/>
      <point x="225.666" y="228.667"/>
      <point x="225.5" y="224.334"/>
      <point x="224.5" y="221" type="curve"/>
      <point x="220.5" y="199.334" type="line"/>
      <point x="219.5" y="195.167"/>
      <point x="219.333" y="191"/>
      <point x="218.5" y="186.834" type="curve"/>
      <point x="217.666" y="180.334"/>
      <point x="222" y="177.334"/>
      <point x="228.166" y="176.834" type="curve" smooth="yes"/>
      <point x="235" y="176.334"/>
      <point x="240.5" y="178.5"/>
      <point x="241.833" y="184" type="curve"/>
      <point x="242.5" y="183.834"/>
      <point x="243.333" y="183.667"/>
      <point x="244.333" y="183.667" type="curve"/>
      <point x="249.667" y="189.5"/>
      <point x="251.5" y="197.667"/>
      <point x="254.167" y="207.667" type="curve"/>
      <point x="257" y="228.167" type="line"/>
      <point x="262.334" y="253.167"/>
      <point x="271.501" y="276.834"/>
      <point x="288.501" y="300.5" type="curve"/>
      <point x="299.667" y="317"/>
      <point x="319.834" y="331"/>
      <point x="342.834" y="346.334" type="curve" smooth="yes"/>
      <point x="396.167" y="382.5"/>
      <point x="467.666" y="426.834"/>
      <point x="482.666" y="506.667" type="curve" smooth="yes"/>
      <point x="484.666" y="516.667"/>
      <point x="485.666" y="527.334"/>
      <point x="485.833" y="538" type="curve" smooth="yes"/>
      <point x="486.5" y="608.167"/>
      <point x="435.167" y="653.834"/>
      <point x="351.667" y="658.834" type="curve"/>
      <point x="345.834" y="658.834"/>
      <point x="341" y="658.834"/>
      <point x="336" y="658.834" type="curve"/>
      <point x="284.167" y="658.501"/>
      <point x="242.167" y="643.667"/>
      <point x="212.166" y="623.167" type="curve" smooth="yes"/>
      <point x="174.167" y="596.834"/>
      <point x="152" y="563.834"/>
      <point x="145.833" y="535.5" type="curve"/>
      <point x="144.833" y="529.667"/>
      <point x="143.833" y="524.667"/>
      <point x="144" y="519.667" type="curve"/>
      <point x="144" y="492.5"/>
      <point x="164.334" y="485"/>
      <point x="179.333" y="485" type="curve" smooth="yes"/>
      <point x="209.833" y="485"/>
      <point x="227.333" y="508.5"/>
      <point x="228.333" y="529.334" type="curve"/>
      <point x="228.833" y="535.834"/>
      <point x="227.833" y="541.5"/>
      <point x="226" y="546.167" type="curve"/>
      <point x="223.5" y="551.5"/>
      <point x="221.666" y="557.5"/>
    </contour>
    <contour>
      <point x="156.667" y="38.834" type="curve" smooth="yes"/>
      <point x="155.334" y="10.834"/>
      <point x="175.833" y="-10.833"/>
      <point x="203.833" y="-10.833" type="curve" smooth="yes"/>
      <point x="236.833" y="-10.833"/>
      <point x="264.001" y="16.167"/>
      <point x="268.667" y="45.834" type="curve"/>
      <point x="269.667" y="49"/>
      <point x="269.834" y="51.5"/>
      <point x="269.834" y="54.667" type="curve"/>
      <point x="270.001" y="80.834"/>
      <point x="249.667" y="100.667"/>
      <point x="222.333" y="100.667" type="curve" smooth="yes"/>
      <point x="186.167" y="100.667"/>
      <point x="158" y="67.834"/>
    </contour>
  </outline>
</glyph>
<glyph name="at" format="2">
  <advance width="856"/>
  <unicode hex="0040"/>
  <outline>
    <contour>
      <point x="572.833" y="75" type="curve" smooth="yes"/>
      <point x="574.833" y="84.3333"/>
      <point x="587.833" y="115"/>
      <point x="598.833" y="141.833" type="curve" smooth="yes"/>
      <point x="708.833" y="399" type="line"/>
      <point x="695" y="405" type="line"/>
      <point x="644.667" y="388.667" type="line"/>
      <point x="640.167" y="385.5"/>
      <point x="633" y="381.667"/>
      <point x="622.833" y="375" type="curve"/>
      <point x="619.5" y="396.667"/>
      <point x="596.167" y="410.833"/>
      <point x="571.167" y="410.833" type="curve" smooth="yes"/>
      <point x="470.667" y="410.833"/>
      <point x="324.667" y="294.333"/>
      <point x="295.167" y="153.833" type="curve" smooth="yes"/>
      <point x="289.833" y="125.333"/>
      <point x="289" y="79.8333"/>
      <point x="316" y="52.3333" type="curve" smooth="yes"/>
      <point x="330.5" y="37.5"/>
      <point x="352.333" y="28.5"/>
      <point x="385.333" y="28.5" type="curve" smooth="yes"/>
      <point x="415.833" y="28.5"/>
      <point x="470.667" y="55.6667"/>
      <point x="524.833" y="124.333" type="curve"/>
      <point x="526.5" y="123.5" type="line"/>
      <point x="515.333" y="101.167"/>
      <point x="506.167" y="80.5"/>
      <point x="503.833" y="66.8333" type="curve"/>
      <point x="500.667" y="52.1667"/>
      <point x="503" y="30.1667"/>
      <point x="525.5" y="29" type="curve"/>
      <point x="538.833" y="27"/>
      <point x="555.5" y="27.3333"/>
      <point x="572.167" y="28.1667" type="curve"/>
      <point x="737.333" y="43.1667"/>
      <point x="830.167" y="171.167"/>
      <point x="854.333" y="282.833" type="curve" smooth="yes"/>
      <point x="894.333" y="470.167"/>
      <point x="780.833" y="612.667"/>
      <point x="578.833" y="612.667" type="curve" smooth="yes"/>
      <point x="364.167" y="612.667"/>
      <point x="156.833" y="436.333"/>
      <point x="112" y="222.667" type="curve"/>
      <point x="65.5" y="7.16667"/>
      <point x="179.833" y="-158.333"/>
      <point x="401" y="-158.333" type="curve" smooth="yes"/>
      <point x="507.833" y="-158.333"/>
      <point x="572.333" y="-123.167"/>
      <point x="639" y="-76.6667" type="curve"/>
      <point x="629.333" y="-56.8333" type="line"/>
      <point x="568.667" y="-101.167"/>
      <point x="504.167" y="-124.333"/>
      <point x="426.333" y="-124.333" type="curve" smooth="yes"/>
      <point x="199.667" y="-124.333"/>
      <point x="163.333" y="68.3333"/>
      <point x="187.833" y="216.333" type="curve"/>
      <point x="189.167" y="226"/>
      <point x="191.333" y="235.5"/>
      <point x="193.5" y="245.167" type="curve" smooth="yes"/>
      <point x="246" y="477.167"/>
      <point x="422.333" y="581.5"/>
      <point x="562.667" y="581.5" type="curve" smooth="yes"/>
      <point x="678.5" y="581.5"/>
      <point x="822.5" y="483.167"/>
      <point x="778" y="274.667" type="curve" smooth="yes"/>
      <point x="743.833" y="112.333"/>
      <point x="666.833" y="62.6667"/>
      <point x="581" y="62.6667" type="curve" smooth="yes"/>
      <point x="577.667" y="62.6667"/>
      <point x="570.667" y="64.5"/>
    </contour>
    <contour>
      <point x="605.333" y="316.667" type="curve" smooth="yes"/>
      <point x="598" y="284.667"/>
      <point x="571.833" y="232.5"/>
      <point x="552.333" y="200.667" type="curve" smooth="yes"/>
      <point x="548.667" y="195"/>
      <point x="545.833" y="189.333"/>
      <point x="542.167" y="183.833" type="curve"/>
      <point x="500.5" y="117.333"/>
      <point x="451.667" y="71.3333"/>
      <point x="423" y="70.5" type="curve" name=".hr01"/>
      <point x="422.667" y="70.3333"/>
      <point x="422.167" y="70.3333"/>
      <point x="421.833" y="70.3333" type="curve"/>
      <point x="366" y="70.3333"/>
      <point x="362.167" y="114.5"/>
      <point x="372.167" y="162.333" type="curve" smooth="yes"/>
      <point x="385" y="223.833"/>
      <point x="413.667" y="287.5"/>
      <point x="470.5" y="337.833" type="curve"/>
      <point x="475.333" y="341.833"/>
      <point x="480" y="345.833"/>
      <point x="484.833" y="349.667" type="curve"/>
      <point x="515.5" y="371.667"/>
      <point x="546.167" y="378.833"/>
      <point x="560.5" y="379.167" type="curve" smooth="yes"/>
      <point x="566.5" y="379.333"/>
      <point x="571.5" y="378.5"/>
      <point x="576.333" y="377.667" type="curve"/>
      <point x="600.333" y="371.833"/>
      <point x="612.5" y="349.167"/>
    </contour>
  </outline>
</glyph>
<glyph name="B" format="2">
  <advance width="560"/>
  <unicode hex="0042"/>
  <anchor x="397.167" y="740" name="t.uni0302"/>
  <anchor x="243.833" y="-60" name="b.minus-60"/>
  <outline>
    <contour>
      <point x="255.333" y="645" type="curve"/>
      <point x="130.667" y="0" type="line"/>
      <point x="150.667" y="0" type="line" smooth="yes"/>
      <point x="184.333" y="0"/>
      <point x="209" y="-2"/>
      <point x="281" y="-2" type="curve" smooth="yes"/>
      <point x="422.667" y="-2"/>
      <point x="565.333" y="63.833"/>
      <point x="565.333" y="222.166" type="curve" smooth="yes"/>
      <point x="565.333" y="293.833"/>
      <point x="519.5" y="337.666"/>
      <point x="450.333" y="359.833" type="curve"/>
      <point x="450.5" y="361.833" type="line"/>
      <point x="517.167" y="392.999"/>
      <point x="568.833" y="453.666"/>
      <point x="568.833" y="530.833" type="curve" smooth="yes"/>
      <point x="568.833" y="588.834"/>
      <point x="533.333" y="647"/>
      <point x="386" y="647" type="curve" smooth="yes"/>
      <point x="349.667" y="647"/>
      <point x="293.5" y="645"/>
    </contour>
    <contour>
      <point x="294.5" y="568.667" type="line" smooth="yes"/>
      <point x="300.5" y="601"/>
      <point x="303.833" y="611.667"/>
      <point x="384.167" y="611.667" type="curve" smooth="yes"/>
      <point x="429.5" y="611.667"/>
      <point x="483.167" y="590.334"/>
      <point x="483.167" y="518" type="curve" smooth="yes"/>
      <point x="483.167" y="420.666"/>
      <point x="420" y="367.666"/>
      <point x="323.667" y="367.666" type="curve" smooth="yes"/>
      <point x="240.5" y="367.666" type="line"/>
      <point x="234.167" y="332.333" type="line"/>
      <point x="312.667" y="332.333" type="line" smooth="yes"/>
      <point x="393.833" y="332.333"/>
      <point x="468.667" y="300.833"/>
      <point x="468.667" y="207.666" type="curve" smooth="yes"/>
      <point x="468.667" y="84.166"/>
      <point x="386.667" y="33.333"/>
      <point x="267.667" y="33.333" type="curve" smooth="yes"/>
      <point x="213.5" y="33.333"/>
      <point x="197.833" y="42.333"/>
      <point x="197.833" y="64.5" type="curve" smooth="yes"/>
      <point x="197.833" y="68.666"/>
      <point x="198" y="73.833"/>
      <point x="199" y="79" type="curve" smooth="yes"/>
    </contour>
    <contour>
      <point x="183" y="0" type="line"/>
      <point x="290.167" y="551" type="line"/>
      <point x="255.333" y="645" type="line"/>
      <point x="208.667" y="645"/>
      <point x="170" y="646"/>
      <point x="136.667" y="647" type="curve"/>
      <point x="134.167" y="644.5"/>
      <point x="128.667" y="627.334"/>
      <point x="133.167" y="617.167" type="curve"/>
      <point x="184.5" y="614.834"/>
      <point x="204" y="604.667"/>
      <point x="204" y="581.834" type="curve" smooth="yes"/>
      <point x="204" y="565"/>
      <point x="202.833" y="549.167"/>
      <point x="197.333" y="521.167" type="curve" smooth="yes"/>
      <point x="120.333" y="122" type="line" smooth="yes"/>
      <point x="107.333" y="55.833"/>
      <point x="85.167" y="35"/>
      <point x="16.833" y="27.833" type="curve"/>
      <point x="10.833" y="18.5"/>
      <point x="7.333" y="5"/>
      <point x="12.333" y="-2" type="curve"/>
      <point x="56" y="-1"/>
      <point x="100.833" y="0"/>
      <point x="136.667" y="0" type="curve" smooth="yes"/>
    </contour>
  </outline>
</glyph>
<glyph name="C" format="2">
  <advance width="626"/>
  <unicode hex="0043"/>
  <anchor x="318.667" y="-60" name="b.minus-60"/>
  <anchor x="356" y="0" name="b.cedilla"/>
  <anchor x="474" y="740" name="t.uni0302"/>
  <outline>
    <contour>
      <point x="338" y="-10" type="curve" smooth="yes"/>
      <point x="439.333" y="-10"/>
      <point x="534.333" y="36.833"/>
      <point x="616.5" y="125.833" type="curve"/>
      <point x="613.5" y="134.833"/>
      <point x="607" y="141.833"/>
      <point x="596" y="141.833" type="curve"/>
      <point x="513" y="63.833"/>
      <point x="439.167" y="33.667"/>
      <point x="353.833" y="33.667" type="curve" smooth="yes"/>
      <point x="238.333" y="33.667"/>
      <point x="187" y="134.333"/>
      <point x="187" y="242.5" type="curve" smooth="yes"/>
      <point x="187" y="397.5"/>
      <point x="292.833" y="618.5"/>
      <point x="459.333" y="618.5" type="curve" smooth="yes"/>
      <point x="592.167" y="618.5"/>
      <point x="630.167" y="538.167"/>
      <point x="638.167" y="453" type="curve"/>
      <point x="644.167" y="452.333"/>
      <point x="661.667" y="453.667"/>
      <point x="669.5" y="457.167" type="curve"/>
      <point x="670.333" y="508.5"/>
      <point x="672.5" y="557"/>
      <point x="678.5" y="611.333" type="curve"/>
      <point x="625.5" y="614.667"/>
      <point x="595.333" y="658"/>
      <point x="478.5" y="658" type="curve" smooth="yes"/>
      <point x="265.667" y="658"/>
      <point x="89" y="444.833"/>
      <point x="89" y="240.833" type="curve" smooth="yes"/>
      <point x="89" y="100.333"/>
      <point x="172.5" y="-10"/>
    </contour>
  </outline>
</glyph>
<glyph name="D" format="2">
  <advance width="659"/>
  <unicode hex="0044"/>
  <anchor x="434.167" y="740" name="t.uni0302"/>
  <anchor x="280.167" y="-60" name="b.minus-60"/>
  <outline>
    <contour>
      <point x="135.166" y="0" type="line"/>
      <point x="172.333" y="0"/>
      <point x="221.166" y="-2"/>
      <point x="310" y="-2" type="curve" smooth="yes"/>
      <point x="531.5" y="-2"/>
      <point x="693.166" y="157.166"/>
      <point x="693.166" y="377" type="curve" smooth="yes"/>
      <point x="693.166" y="553.5"/>
      <point x="567.833" y="646.833"/>
      <point x="400.833" y="646.833" type="curve" smooth="yes"/>
      <point x="354.333" y="646.833"/>
      <point x="301.833" y="645"/>
      <point x="255.333" y="645" type="curve"/>
    </contour>
    <contour>
      <point x="199.166" y="80.666" type="curve" smooth="yes"/>
      <point x="294" y="566.5" type="line" smooth="yes"/>
      <point x="301.666" y="604.833"/>
      <point x="334.666" y="611.5"/>
      <point x="379.666" y="611.5" type="curve" smooth="yes"/>
      <point x="528.666" y="611.5"/>
      <point x="593.833" y="517.5"/>
      <point x="593.833" y="382.667" type="curve" smooth="yes"/>
      <point x="593.833" y="194.333"/>
      <point x="499.666" y="33.333"/>
      <point x="292.666" y="33.333" type="curve" smooth="yes"/>
      <point x="216.833" y="33.333"/>
      <point x="197.666" y="40.5"/>
      <point x="197.666" y="64.666" type="curve" smooth="yes"/>
      <point x="197.666" y="69.5"/>
      <point x="198" y="74.5"/>
    </contour>
    <contour>
      <point x="183" y="0" type="line"/>
      <point x="290.167" y="551" type="line"/>
      <point x="255.333" y="645" type="line"/>
      <point x="208.667" y="645"/>
      <point x="170" y="646"/>
      <point x="136.667" y="647" type="curve"/>
      <point x="134.167" y="644.5"/>
      <point x="128.667" y="627.333"/>
      <point x="133.167" y="617.167" type="curve"/>
      <point x="184.5" y="614.834"/>
      <point x="204" y="604.667"/>
      <point x="204" y="581.833" type="curve" smooth="yes"/>
      <point x="204" y="565"/>
      <point x="202.833" y="549.167"/>
      <point x="197.333" y="521.167" type="curve" smooth="yes"/>
      <point x="120.333" y="122" type="line" smooth="yes"/>
      <point x="107.333" y="55.833"/>
      <point x="85.167" y="35"/>
      <point x="16.833" y="27.833" type="curve"/>
      <point x="10.833" y="18.5"/>
      <point x="7.333" y="5"/>
      <point x="12.333" y="-2" type="curve"/>
      <point x="56" y="-1"/>
      <point x="100.833" y="0"/>
      <point x="136.667" y="0" type="curve" smooth="yes"/>
    </contour>
  </outline>
</glyph>
<glyph name="E" format="2">
  <advance width="535"/>
  <unicode hex="0045"/>
  <anchor x="389" y="740" name="t.uni0302"/>
  <anchor x="235" y="-60" name="b.minus-60"/>
  <anchor x="278.167" y="10" name="b.cedilla"/>
  <anchor x="318.5" y="10" name="b.ogonek"/>
  <outline>
    <contour>
      <point x="136.666" y="0" type="line"/>
      <point x="348.166" y="0" type="line" smooth="yes"/>
      <point x="394.166" y="0"/>
      <point x="463.666" y="-2"/>
      <point x="471.833" y="-2" type="curve"/>
      <point x="491.666" y="50"/>
      <point x="516" y="112.167"/>
      <point x="538.166" y="165" type="curve"/>
      <point x="532.5" y="168.5"/>
      <point x="517.5" y="170.5"/>
      <point x="507" y="170" type="curve"/>
      <point x="474.5" y="99"/>
      <point x="425.5" y="39.5"/>
      <point x="354" y="39.5" type="curve" smooth="yes"/>
      <point x="226.666" y="39.5" type="line" smooth="yes"/>
      <point x="208.166" y="39.5"/>
      <point x="196.5" y="46"/>
      <point x="196.5" y="64.833" type="curve" smooth="yes"/>
      <point x="196.5" y="68"/>
      <point x="196.5" y="71"/>
      <point x="197.5" y="75" type="curve"/>
    </contour>
    <contour>
      <point x="290.166" y="551" type="line"/>
      <point x="294.166" y="568.167" type="line" smooth="yes"/>
      <point x="300.333" y="593.667"/>
      <point x="313" y="604.667"/>
      <point x="336.5" y="604.667" type="curve" smooth="yes"/>
      <point x="433.5" y="604.667" type="line" smooth="yes"/>
      <point x="505.5" y="604.667"/>
      <point x="515.833" y="565"/>
      <point x="523.833" y="496" type="curve"/>
      <point x="533.333" y="495.667"/>
      <point x="547.499" y="497.667"/>
      <point x="554.166" y="501" type="curve"/>
      <point x="554.666" y="544.5"/>
      <point x="562.333" y="636.333"/>
      <point x="563.666" y="645" type="curve"/>
      <point x="563.666" y="647"/>
      <point x="562.666" y="649"/>
      <point x="559.666" y="649" type="curve"/>
      <point x="542.666" y="646"/>
      <point x="529" y="645"/>
      <point x="513.5" y="645" type="curve" smooth="yes"/>
      <point x="255.333" y="645" type="line"/>
      <point x="255.333" y="551" type="line"/>
    </contour>
    <contour>
      <point x="183" y="0" type="line"/>
      <point x="290.166" y="551" type="line"/>
      <point x="255.333" y="645" type="line"/>
      <point x="208.666" y="645"/>
      <point x="170" y="646"/>
      <point x="136.666" y="647" type="curve"/>
      <point x="134.166" y="644.5"/>
      <point x="128.666" y="627.334"/>
      <point x="133.166" y="617.167" type="curve"/>
      <point x="184.5" y="614.834"/>
      <point x="204" y="604.667"/>
      <point x="204" y="581.834" type="curve" smooth="yes"/>
      <point x="204" y="565"/>
      <point x="202.833" y="549.167"/>
      <point x="197.333" y="521.167" type="curve" smooth="yes"/>
      <point x="120.333" y="122" type="line" smooth="yes"/>
      <point x="107.333" y="55.833"/>
      <point x="85.166" y="35"/>
      <point x="16.833" y="27.833" type="curve"/>
      <point x="10.833" y="18.5"/>
      <point x="7.333" y="5"/>
      <point x="12.333" y="-2" type="curve"/>
      <point x="56" y="-1"/>
      <point x="100.833" y="0"/>
      <point x="136.666" y="0" type="curve" smooth="yes"/>
    </contour>
    <contour>
      <point x="368.666" y="362" type="curve" smooth="yes"/>
      <point x="239" y="362" type="line"/>
      <point x="230.666" y="322" type="line"/>
      <point x="360.333" y="322" type="line" smooth="yes"/>
      <point x="390.833" y="322"/>
      <point x="405.5" y="301.167"/>
      <point x="405.5" y="262.167" type="curve" smooth="yes"/>
      <point x="405.5" y="254.167" type="line"/>
      <point x="415.666" y="250.667"/>
      <point x="430.333" y="252.333"/>
      <point x="438.833" y="257.5" type="curve"/>
      <point x="445.5" y="317.167"/>
      <point x="457.333" y="376.833"/>
      <point x="472.833" y="434.833" type="curve"/>
      <point x="465.5" y="438.333"/>
      <point x="445.333" y="438.333"/>
      <point x="438.5" y="434.833" type="curve"/>
      <point x="424" y="379.167"/>
      <point x="413.666" y="362"/>
    </contour>
  </outline>
</glyph>
<glyph name="F" format="2">
  <advance width="467"/>
  <unicode hex="0046"/>
  <anchor x="389.167" y="740" name="t.uni0302"/>
  <anchor x="235" y="-60" name="b.minus-60"/>
  <outline>
    <contour>
      <point x="155" y="120" type="line"/>
      <point x="206" y="120" type="line"/>
      <point x="293.333" y="568.167" type="line" smooth="yes"/>
      <point x="298.167" y="591.334"/>
      <point x="312.167" y="603"/>
      <point x="334.333" y="604.167" type="curve"/>
      <point x="437.167" y="604.5" type="line"/>
      <point x="506.5" y="603.334"/>
      <point x="516.667" y="563.167"/>
      <point x="524.5" y="495.167" type="curve"/>
      <point x="534" y="496.5"/>
      <point x="545.667" y="497.667"/>
      <point x="554.833" y="500.167" type="curve"/>
      <point x="557.833" y="541.167"/>
      <point x="564.5" y="638"/>
      <point x="564.5" y="646" type="curve" smooth="yes"/>
      <point x="564.5" y="648"/>
      <point x="563.667" y="649"/>
      <point x="561.5" y="649" type="curve"/>
      <point x="543.667" y="646"/>
      <point x="538.167" y="645"/>
      <point x="515.167" y="645" type="curve" smooth="yes"/>
      <point x="255.333" y="645" type="line"/>
    </contour>
    <contour>
      <point x="183" y="0" type="line"/>
      <point x="290.167" y="551" type="line"/>
      <point x="255.333" y="645" type="line"/>
      <point x="208.667" y="645"/>
      <point x="170" y="646"/>
      <point x="136.667" y="647" type="curve"/>
      <point x="134.167" y="644.5"/>
      <point x="128.667" y="627.334"/>
      <point x="133.167" y="617.167" type="curve"/>
      <point x="184.5" y="614.834"/>
      <point x="204" y="604.667"/>
      <point x="204" y="581.834" type="curve" smooth="yes"/>
      <point x="204" y="565"/>
      <point x="202.833" y="549.167"/>
      <point x="197.333" y="521.167" type="curve" smooth="yes"/>
      <point x="120.333" y="122" type="line" smooth="yes"/>
      <point x="107.333" y="55.833"/>
      <point x="85.167" y="35"/>
      <point x="16.833" y="27.833" type="curve"/>
      <point x="10.833" y="18.5"/>
      <point x="7.333" y="5"/>
      <point x="12.333" y="-2" type="curve"/>
      <point x="56" y="-1"/>
      <point x="100.833" y="0"/>
      <point x="136.667" y="0" type="curve" smooth="yes"/>
    </contour>
    <contour>
      <point x="132" y="0" type="line"/>
      <point x="150.167" y="0" type="line" smooth="yes"/>
      <point x="185.667" y="0"/>
      <point x="228" y="-1"/>
      <point x="267.667" y="-2" type="curve"/>
      <point x="271.833" y="1.333"/>
      <point x="277.667" y="25.166"/>
      <point x="273" y="26.166" type="curve"/>
      <point x="217" y="30.333"/>
      <point x="199.5" y="41.5"/>
      <point x="199.5" y="73.333" type="curve" smooth="yes"/>
      <point x="199.5" y="84.833"/>
      <point x="202.333" y="101.333"/>
      <point x="206" y="120" type="curve"/>
      <point x="155" y="120" type="line"/>
    </contour>
    <contour>
      <point x="368.667" y="362" type="curve" smooth="yes"/>
      <point x="239" y="362" type="line"/>
      <point x="230.667" y="322" type="line"/>
      <point x="360.333" y="322" type="line" smooth="yes"/>
      <point x="390.833" y="322"/>
      <point x="405.5" y="301.167"/>
      <point x="405.5" y="262.167" type="curve" smooth="yes"/>
      <point x="405.5" y="254.167" type="line"/>
      <point x="415.667" y="250.667"/>
      <point x="430.333" y="252.333"/>
      <point x="438.833" y="257.5" type="curve"/>
      <point x="445.5" y="317.167"/>
      <point x="457.333" y="376.833"/>
      <point x="472.833" y="434.833" type="curve"/>
      <point x="465.5" y="438.333"/>
      <point x="445.333" y="438.333"/>
      <point x="438.5" y="434.833" type="curve"/>
      <point x="424" y="379.167"/>
      <point x="413.667" y="362"/>
    </contour>
  </outline>
</glyph>
<glyph name="G" format="2">
  <advance width="674"/>
  <unicode hex="0047"/>
  <anchor x="485.833" y="740" name="t.uni0302"/>
  <anchor x="324.333" y="-60" name="b.minus-60"/>
  <outline>
    <contour>
      <point x="500.5" y="658" type="curve" smooth="yes"/>
      <point x="281.666" y="658"/>
      <point x="83.833" y="463"/>
      <point x="83.833" y="250.5" type="curve" smooth="yes"/>
      <point x="83.833" y="92.5"/>
      <point x="192.666" y="-10"/>
      <point x="357.667" y="-10" type="curve" smooth="yes"/>
      <point x="460.833" y="-10"/>
      <point x="551" y="20.5"/>
      <point x="637" y="84.667" type="curve"/>
      <point x="628" y="93.667"/>
      <point x="625.167" y="101.5"/>
      <point x="627.167" y="112.667" type="curve" smooth="yes"/>
      <point x="650" y="226.333" type="line" smooth="yes"/>
      <point x="656.834" y="259.833"/>
      <point x="674.5" y="275.5"/>
      <point x="709.833" y="277.667" type="curve"/>
      <point x="715.167" y="282.833"/>
      <point x="717.667" y="303.333"/>
      <point x="713.5" y="307.5" type="curve"/>
      <point x="688" y="305.667"/>
      <point x="662.334" y="305.5"/>
      <point x="607.667" y="305.5" type="curve" smooth="yes"/>
      <point x="553.667" y="305.5"/>
      <point x="524.167" y="305.667"/>
      <point x="494.833" y="307.5" type="curve"/>
      <point x="488.667" y="297.167"/>
      <point x="487.167" y="283"/>
      <point x="489.5" y="271" type="curve"/>
      <point x="517.5" y="268.833" type="line" smooth="yes"/>
      <point x="550.834" y="266.667"/>
      <point x="562.834" y="258.5"/>
      <point x="562.834" y="239.333" type="curve" smooth="yes"/>
      <point x="562.834" y="233.333"/>
      <point x="562.834" y="230.333"/>
      <point x="561.834" y="226.333" type="curve"/>
      <point x="532" y="76.5" type="line"/>
      <point x="495.5" y="46.167"/>
      <point x="443.5" y="29.5"/>
      <point x="391.167" y="29.5" type="curve" smooth="yes"/>
      <point x="265.166" y="29.5"/>
      <point x="181.833" y="123.333"/>
      <point x="181.833" y="265.5" type="curve" smooth="yes"/>
      <point x="181.833" y="448.833"/>
      <point x="319.833" y="618.5"/>
      <point x="471.833" y="618.5" type="curve" smooth="yes"/>
      <point x="584" y="618.5"/>
      <point x="645.834" y="563.833"/>
      <point x="656.667" y="456.5" type="curve"/>
      <point x="689" y="462.5" type="line"/>
      <point x="689" y="503.667"/>
      <point x="692" y="546.833"/>
      <point x="698.167" y="613" type="curve"/>
      <point x="640.167" y="613"/>
      <point x="609.167" y="658"/>
    </contour>
  </outline>
</glyph>
<glyph name="H" format="2">
  <advance width="674"/>
  <unicode hex="0048"/>
  <anchor x="477.833" y="740" name="t.uni0302"/>
  <anchor x="320.5" y="-60" name="b.minus-60"/>
  <anchor x="149" y="10" name="b.cedilla"/>
  <outline>
    <contour>
      <point x="595.667" y="565.834" type="curve" smooth="yes"/>
      <point x="556.334" y="363.667" type="line"/>
      <point x="254" y="363.667" type="line"/>
      <point x="293.167" y="565.834" type="line" smooth="yes"/>
      <point x="299.834" y="600"/>
      <point x="329.834" y="612.5"/>
      <point x="385.834" y="617.167" type="curve"/>
      <point x="391" y="621.5"/>
      <point x="393.334" y="638.5"/>
      <point x="388.667" y="647" type="curve"/>
      <point x="349.667" y="646"/>
      <point x="311.5" y="645"/>
      <point x="278.5" y="645" type="curve" smooth="yes"/>
      <point x="254.167" y="645" type="line"/>
      <point x="129.834" y="0" type="line"/>
      <point x="135" y="0"/>
      <point x="148.334" y="0"/>
      <point x="154.167" y="0" type="curve" smooth="yes"/>
      <point x="188.834" y="0"/>
      <point x="232.167" y="-1"/>
      <point x="270.167" y="-2" type="curve"/>
      <point x="274.5" y="2.334"/>
      <point x="277.5" y="22.667"/>
      <point x="273.667" y="27.834" type="curve"/>
      <point x="233.167" y="31.334"/>
      <point x="191" y="42.667"/>
      <point x="201.167" y="95.334" type="curve" smooth="yes"/>
      <point x="244.834" y="320.667" type="line"/>
      <point x="547.167" y="320.667" type="line"/>
      <point x="502.5" y="95.334" type="line" smooth="yes"/>
      <point x="494.5" y="53.5"/>
      <point x="485.667" y="35.5"/>
      <point x="407.167" y="27.834" type="curve"/>
      <point x="402" y="23.5"/>
      <point x="399.667" y="6.5"/>
      <point x="404.334" y="-2" type="curve"/>
      <point x="443.334" y="-1"/>
      <point x="481.834" y="0"/>
      <point x="514.834" y="0" type="curve" smooth="yes"/>
      <point x="531.667" y="0" type="line" smooth="yes"/>
      <point x="569.834" y="0"/>
      <point x="617" y="-1"/>
      <point x="659.167" y="-2" type="curve"/>
      <point x="663.5" y="2.334"/>
      <point x="666.5" y="22.667"/>
      <point x="662.667" y="27.834" type="curve"/>
      <point x="615.5" y="31.834"/>
      <point x="579.667" y="43.5"/>
      <point x="589.834" y="95.334" type="curve" smooth="yes"/>
      <point x="682.167" y="565.5" type="line" smooth="yes"/>
      <point x="688.834" y="600"/>
      <point x="712.334" y="612.5"/>
      <point x="774.334" y="617.167" type="curve"/>
      <point x="779.5" y="621.5"/>
      <point x="781.834" y="638.5"/>
      <point x="777.167" y="647" type="curve"/>
      <point x="734" y="646"/>
      <point x="695" y="645"/>
      <point x="656" y="645" type="curve" smooth="yes"/>
      <point x="639.167" y="645" type="line" smooth="yes"/>
      <point x="604.5" y="645"/>
      <point x="560.834" y="646"/>
      <point x="522.834" y="647" type="curve"/>
      <point x="518.5" y="642.667"/>
      <point x="515.334" y="622.334"/>
      <point x="519.167" y="617.167" type="curve"/>
      <point x="575.834" y="613.334"/>
      <point x="601.834" y="597.334"/>
    </contour>
    <contour>
      <point x="183" y="0" type="line"/>
      <point x="290.167" y="551" type="line"/>
      <point x="255.333" y="645" type="line"/>
      <point x="208.667" y="645"/>
      <point x="170" y="646"/>
      <point x="136.667" y="647" type="curve"/>
      <point x="134.167" y="644.5"/>
      <point x="128.667" y="627.334"/>
      <point x="133.167" y="617.167" type="curve"/>
      <point x="184.5" y="614.834"/>
      <point x="204" y="604.667"/>
      <point x="204" y="581.834" type="curve" smooth="yes"/>
      <point x="204" y="565"/>
      <point x="202.833" y="549.167"/>
      <point x="197.333" y="521.167" type="curve" smooth="yes"/>
      <point x="120.333" y="122" type="line" smooth="yes"/>
      <point x="107.333" y="55.834"/>
      <point x="85.167" y="35"/>
      <point x="16.833" y="27.834" type="curve"/>
      <point x="10.833" y="18.5"/>
      <point x="7.333" y="5"/>
      <point x="12.333" y="-2" type="curve"/>
      <point x="56" y="-1"/>
      <point x="100.833" y="0"/>
      <point x="136.667" y="0" type="curve" smooth="yes"/>
    </contour>
  </outline>
</glyph>
<glyph name="I" format="2">
  <advance width="287"/>
  <unicode hex="0049"/>
  <anchor x="294" y="740" name="t.uni0302"/>
  <anchor x="197.833" y="10" name="b.ogonek"/>
  <anchor x="132.5" y="-60" name="b.minus-60"/>
  <outline>
    <contour>
      <point x="128.5" y="0" type="line"/>
      <point x="163.167" y="0"/>
      <point x="234" y="-1"/>
      <point x="272" y="-2" type="curve"/>
      <point x="276.334" y="2.333"/>
      <point x="279.334" y="22.667"/>
      <point x="275.5" y="27.833" type="curve"/>
      <point x="212.834" y="33.667"/>
      <point x="191.334" y="40.333"/>
      <point x="208.5" y="127.833" type="curve" smooth="yes"/>
      <point x="286.5" y="532.167" type="line" smooth="yes"/>
      <point x="297.834" y="590.667"/>
      <point x="310" y="609.5"/>
      <point x="386" y="617.167" type="curve"/>
      <point x="391.167" y="621.5"/>
      <point x="393.5" y="638.5"/>
      <point x="388.834" y="647" type="curve"/>
      <point x="345.667" y="646"/>
      <point x="308.667" y="645"/>
      <point x="269.667" y="645" type="curve" smooth="yes"/>
      <point x="255.334" y="645" type="line"/>
    </contour>
    <contour>
      <point x="183" y="0" type="line"/>
      <point x="290.167" y="551" type="line"/>
      <point x="255.333" y="645" type="line"/>
      <point x="208.667" y="645"/>
      <point x="170" y="646"/>
      <point x="136.667" y="647" type="curve"/>
      <point x="134.167" y="644.5"/>
      <point x="128.667" y="627.333"/>
      <point x="133.167" y="617.167" type="curve"/>
      <point x="184.5" y="614.833"/>
      <point x="204" y="604.667"/>
      <point x="204" y="581.833" type="curve" smooth="yes"/>
      <point x="204" y="565"/>
      <point x="202.833" y="549.167"/>
      <point x="197.333" y="521.167" type="curve" smooth="yes"/>
      <point x="120.333" y="122" type="line" smooth="yes"/>
      <point x="107.333" y="55.833"/>
      <point x="85.167" y="35"/>
      <point x="16.833" y="27.833" type="curve"/>
      <point x="10.833" y="18.5"/>
      <point x="7.333" y="5"/>
      <point x="12.333" y="-2" type="curve"/>
      <point x="56" y="-1"/>
      <point x="100.833" y="0"/>
      <point x="136.667" y="0" type="curve" smooth="yes"/>
    </contour>
  </outline>
</glyph>
<glyph name="J" format="2">
  <advance width="325"/>
  <unicode hex="004A"/>
  <anchor x="335.667" y="740" name="t.uni0302"/>
  <outline>
    <contour>
      <point x="337.833" y="522.833" type="line" smooth="yes"/>
      <point x="355" y="606.667"/>
      <point x="372.167" y="614.167"/>
      <point x="429" y="617.167" type="curve"/>
      <point x="434.333" y="621.5"/>
      <point x="437.667" y="638.5"/>
      <point x="431.833" y="647" type="curve"/>
      <point x="386.333" y="646"/>
      <point x="361.833" y="645"/>
      <point x="317.333" y="645" type="curve" smooth="yes"/>
      <point x="310.333" y="645"/>
      <point x="303.333" y="645"/>
      <point x="297.167" y="645" type="curve" smooth="yes"/>
      <point x="253" y="645"/>
      <point x="219.5" y="646"/>
      <point x="178.667" y="647" type="curve"/>
      <point x="173.333" y="642.667"/>
      <point x="170" y="625.667"/>
      <point x="175.833" y="617.167" type="curve"/>
      <point x="232.333" y="615.167"/>
      <point x="254.667" y="607.833"/>
      <point x="254.833" y="570.167" type="curve"/>
      <point x="254.833" y="558.167"/>
      <point x="252.833" y="543"/>
      <point x="248.667" y="522.833" type="curve" smooth="yes"/>
      <point x="159.833" y="81" type="line" smooth="yes"/>
      <point x="125.667" y="-88.1667"/>
      <point x="82.8333" y="-123"/>
      <point x="49.8333" y="-126.333" type="curve"/>
      <point x="46.3333" y="-127.167"/>
      <point x="42.8333" y="-127"/>
      <point x="40.3333" y="-126.667" type="curve"/>
      <point x="27.6667" y="-126"/>
      <point x="17.1667" y="-118.167"/>
      <point x="12.1667" y="-108.333" type="curve"/>
      <point x="5.66667" y="-94.6667"/>
      <point x="-3.33333" y="-75.8333"/>
      <point x="-34.1667" y="-75.8333" type="curve" smooth="yes"/>
      <point x="-46.3333" y="-75.8333"/>
      <point x="-70.6667" y="-88.6667"/>
      <point x="-80.1667" y="-107.667" type="curve" smooth="yes"/>
      <point x="-83" y="-113.167"/>
      <point x="-84.5" y="-119.333"/>
      <point x="-84.1667" y="-126.333" type="curve" smooth="yes"/>
      <point x="-82.6667" y="-158.333"/>
      <point x="-37.8333" y="-174.5"/>
      <point x="-18" y="-174.5" type="curve" smooth="yes"/>
      <point x="24.6667" y="-174.5"/>
      <point x="60.3333" y="-166.333"/>
      <point x="104.5" y="-133.333" type="curve"/>
      <point x="112.167" y="-128.167"/>
      <point x="119.833" y="-122"/>
      <point x="127.5" y="-115.667" type="curve"/>
      <point x="173.167" y="-80"/>
      <point x="225.333" y="-25.3333"/>
      <point x="252" y="98.1667" type="curve"/>
      <point x="253.167" y="104.667"/>
      <point x="255.333" y="112.167"/>
      <point x="256.5" y="118.833" type="curve" smooth="yes"/>
    </contour>
  </outline>
</glyph>
<glyph name="K" format="2">
  <advance width="626"/>
  <unicode hex="004B"/>
  <anchor x="457.167" y="740" name="t.uni0302"/>
  <anchor x="301.333" y="-60" name="b.minus-60"/>
  <outline>
    <contour>
      <point x="129.834" y="0" type="line"/>
      <point x="151" y="0" type="line" smooth="yes"/>
      <point x="186.5" y="0"/>
      <point x="231.5" y="-1"/>
      <point x="270.334" y="-2" type="curve"/>
      <point x="274.667" y="2.334"/>
      <point x="277.667" y="22.667"/>
      <point x="273.834" y="27.834" type="curve"/>
      <point x="221.667" y="32"/>
      <point x="196.834" y="40.667"/>
      <point x="196.834" y="66.834" type="curve" smooth="yes"/>
      <point x="196.834" y="72"/>
      <point x="197.167" y="77.5"/>
      <point x="198.5" y="83.667" type="curve" smooth="yes"/>
      <point x="292.334" y="561.334" type="line" smooth="yes"/>
      <point x="300.334" y="600"/>
      <point x="326.5" y="613.167"/>
      <point x="386" y="617.167" type="curve"/>
      <point x="391.167" y="621.5"/>
      <point x="393.5" y="638.5"/>
      <point x="388.834" y="647" type="curve"/>
      <point x="349" y="646"/>
      <point x="310" y="645"/>
      <point x="275.334" y="645" type="curve" smooth="yes"/>
      <point x="254.167" y="645" type="line"/>
    </contour>
    <contour>
      <point x="226" y="308" type="line"/>
      <point x="268.834" y="311.834"/>
      <point x="296.167" y="302.667"/>
      <point x="314.667" y="271" type="curve" smooth="yes"/>
      <point x="430.834" y="73.167" type="line" smooth="yes"/>
      <point x="442.667" y="53.167"/>
      <point x="451.834" y="23"/>
      <point x="451.834" y="7.334" type="curve" smooth="yes"/>
      <point x="451.834" y="4.334"/>
      <point x="455.167" y="-0.333"/>
      <point x="460" y="-2" type="curve"/>
      <point x="474.834" y="-1"/>
      <point x="487.5" y="0"/>
      <point x="510" y="0" type="curve" smooth="yes"/>
      <point x="537.667" y="0" type="line" smooth="yes"/>
      <point x="561" y="0"/>
      <point x="582" y="-0.833"/>
      <point x="614.5" y="-2" type="curve"/>
      <point x="619.667" y="3"/>
      <point x="624.5" y="18.167"/>
      <point x="619.667" y="26.167" type="curve"/>
      <point x="579.334" y="32.334"/>
      <point x="564.5" y="41.5"/>
      <point x="544.5" y="73.167" type="curve" smooth="yes"/>
      <point x="384.5" y="333" type="line" smooth="yes"/>
      <point x="379.167" y="341.5"/>
      <point x="375.334" y="350.167"/>
      <point x="375.334" y="356.834" type="curve" smooth="yes"/>
      <point x="375.334" y="366.334"/>
      <point x="383.667" y="378"/>
      <point x="402.334" y="394.5" type="curve" smooth="yes"/>
      <point x="581.5" y="555.834" type="line" smooth="yes"/>
      <point x="633.834" y="602.5"/>
      <point x="672" y="611.834"/>
      <point x="714.334" y="617.167" type="curve"/>
      <point x="724.5" y="621.334"/>
      <point x="729" y="639.167"/>
      <point x="726.167" y="647" type="curve"/>
      <point x="686.167" y="646"/>
      <point x="674" y="645"/>
      <point x="645.167" y="645" type="curve" smooth="yes"/>
      <point x="630.334" y="645" type="line" smooth="yes"/>
      <point x="592.334" y="645"/>
      <point x="564.5" y="645.167"/>
      <point x="520.5" y="647" type="curve"/>
      <point x="516.334" y="643.833"/>
      <point x="512.167" y="625.5"/>
      <point x="515.167" y="618.834" type="curve"/>
      <point x="547.667" y="616.5"/>
      <point x="561.834" y="610"/>
      <point x="561.834" y="600.167" type="curve" smooth="yes"/>
      <point x="561.834" y="590.334"/>
      <point x="550.5" y="575.667"/>
      <point x="528.167" y="555.834" type="curve" smooth="yes"/>
      <point x="332.667" y="384.334" type="line" smooth="yes"/>
      <point x="305.167" y="360.334"/>
      <point x="278.334" y="345.334"/>
      <point x="235.5" y="347.5" type="curve"/>
    </contour>
    <contour>
      <point x="183" y="0" type="line"/>
      <point x="290.167" y="551" type="line"/>
      <point x="255.333" y="645" type="line"/>
      <point x="208.667" y="645"/>
      <point x="170" y="646"/>
      <point x="136.667" y="647" type="curve"/>
      <point x="134.167" y="644.5"/>
      <point x="128.667" y="627.334"/>
      <point x="133.167" y="617.167" type="curve"/>
      <point x="184.5" y="614.834"/>
      <point x="204" y="604.667"/>
      <point x="204" y="581.834" type="curve" smooth="yes"/>
      <point x="204" y="565"/>
      <point x="202.833" y="549.167"/>
      <point x="197.333" y="521.167" type="curve" smooth="yes"/>
      <point x="120.333" y="122" type="line" smooth="yes"/>
      <point x="107.333" y="55.834"/>
      <point x="85.167" y="35"/>
      <point x="16.833" y="27.834" type="curve"/>
      <point x="10.833" y="18.5"/>
      <point x="7.333" y="5"/>
      <point x="12.333" y="-2" type="curve"/>
      <point x="56" y="-1"/>
      <point x="100.833" y="0"/>
      <point x="136.667" y="0" type="curve" smooth="yes"/>
    </contour>
  </outline>
</glyph>
<glyph name="L" format="2">
  <advance width="525"/>
  <unicode hex="004C"/>
  <anchor x="451.667" y="740" name="t.uni0302"/>
  <anchor x="236" y="-60" name="b.minus-60"/>
  <outline>
    <contour>
      <point x="336.167" y="39.5" type="curve" smooth="yes"/>
      <point x="239.667" y="39.5" type="line" smooth="yes"/>
      <point x="208.333" y="39.5"/>
      <point x="196" y="64"/>
      <point x="201.833" y="94.333" type="curve" smooth="yes"/>
      <point x="286.5" y="529.667" type="line" smooth="yes"/>
      <point x="299.667" y="597.167"/>
      <point x="313.833" y="609.667"/>
      <point x="386.833" y="617.167" type="curve"/>
      <point x="392" y="621.5"/>
      <point x="394.333" y="638.5"/>
      <point x="389.667" y="647" type="curve"/>
      <point x="344" y="646"/>
      <point x="312.5" y="645"/>
      <point x="279.5" y="645" type="curve" smooth="yes"/>
      <point x="253.333" y="645" type="line"/>
      <point x="129.833" y="0" type="line"/>
      <point x="136" y="0"/>
      <point x="151" y="0"/>
      <point x="156.833" y="0" type="curve" smooth="yes"/>
      <point x="343.5" y="0" type="line" smooth="yes"/>
      <point x="372.667" y="0"/>
      <point x="445.833" y="-1.833"/>
      <point x="460.833" y="-2" type="curve"/>
      <point x="476" y="54"/>
      <point x="497.5" y="111.333"/>
      <point x="518.667" y="163.333" type="curve"/>
      <point x="512.333" y="169.167"/>
      <point x="499" y="172"/>
      <point x="488.667" y="170" type="curve"/>
      <point x="459.833" y="107.166"/>
      <point x="413.833" y="39.5"/>
    </contour>
    <contour>
      <point x="183" y="0" type="line"/>
      <point x="290.167" y="551" type="line"/>
      <point x="255.333" y="645" type="line"/>
      <point x="208.667" y="645"/>
      <point x="170" y="646"/>
      <point x="136.667" y="647" type="curve"/>
      <point x="134.167" y="644.5"/>
      <point x="128.667" y="627.333"/>
      <point x="133.167" y="617.167" type="curve"/>
      <point x="184.5" y="614.833"/>
      <point x="204" y="604.667"/>
      <point x="204" y="581.833" type="curve" smooth="yes"/>
      <point x="204" y="565"/>
      <point x="202.833" y="549.167"/>
      <point x="197.333" y="521.167" type="curve" smooth="yes"/>
      <point x="120.333" y="122" type="line" smooth="yes"/>
      <point x="107.333" y="55.833"/>
      <point x="85.167" y="35"/>
      <point x="16.833" y="27.833" type="curve"/>
      <point x="10.833" y="18.5"/>
      <point x="7.333" y="5"/>
      <point x="12.333" y="-2" type="curve"/>
      <point x="56" y="-1"/>
      <point x="100.833" y="0"/>
      <point x="136.667" y="0" type="curve" smooth="yes"/>
    </contour>
  </outline>
</glyph>
<glyph name="M" format="2">
  <advance width="814"/>
  <unicode hex="004D"/>
  <anchor x="536.167" y="740" name="t.uni0302"/>
  <anchor x="372.667" y="-60" name="b.minus-60"/>
  <outline>
    <contour>
      <point x="655.666" y="91.833" type="line" smooth="yes"/>
      <point x="651.999" y="62"/>
      <point x="640.499" y="33.833"/>
      <point x="615.499" y="30.833" type="curve"/>
      <point x="606.166" y="29"/>
      <point x="596.833" y="28.833"/>
      <point x="585.166" y="27.833" type="curve"/>
      <point x="581.333" y="27.333"/>
      <point x="576.666" y="23.666"/>
      <point x="575.666" y="18.333" type="curve" smooth="yes"/>
      <point x="574.499" y="12.167"/>
      <point x="574.666" y="5.167"/>
      <point x="574.166" y="-0.333" type="curve"/>
      <point x="575.833" y="-2" type="line"/>
      <point x="620.499" y="-1"/>
      <point x="655.499" y="0"/>
      <point x="685.166" y="0" type="curve" smooth="yes"/>
      <point x="686.499" y="0"/>
      <point x="687.499" y="0"/>
      <point x="688.333" y="0" type="curve"/>
      <point x="717.333" y="0"/>
      <point x="752.999" y="-1"/>
      <point x="795.833" y="-2" type="curve"/>
      <point x="797.333" y="-0.667"/>
      <point x="797.666" y="0.5"/>
      <point x="798.833" y="2.5" type="curve"/>
      <point x="800.499" y="18.333" type="line"/>
      <point x="801.499" y="22"/>
      <point x="800.666" y="24.833"/>
      <point x="798.499" y="26.166" type="curve"/>
      <point x="795.499" y="27.166"/>
      <point x="791.333" y="28"/>
      <point x="787.333" y="28.166" type="curve"/>
      <point x="765.666" y="29.833" type="line" smooth="yes"/>
      <point x="742.833" y="32"/>
      <point x="736.499" y="43.666"/>
      <point x="735.999" y="63.333" type="curve" smooth="yes"/>
      <point x="735.833" y="70.166"/>
      <point x="736.666" y="77.333"/>
      <point x="737.499" y="85.833" type="curve" smooth="yes"/>
      <point x="738.499" y="95.166"/>
      <point x="739.666" y="104.833"/>
      <point x="740.833" y="115.166" type="curve" smooth="yes"/>
      <point x="795.499" y="546.167" type="line" smooth="yes"/>
      <point x="796.499" y="555.5"/>
      <point x="797.499" y="564.5"/>
      <point x="798.666" y="573.334" type="curve" smooth="yes"/>
      <point x="802.166" y="598.834"/>
      <point x="814.666" y="612.334"/>
      <point x="843.333" y="614.834" type="curve" smooth="yes"/>
      <point x="864.999" y="616.5" type="line" smooth="yes"/>
      <point x="868.999" y="616.834"/>
      <point x="872.499" y="617"/>
      <point x="877.166" y="618" type="curve"/>
      <point x="879.499" y="619.334"/>
      <point x="881.499" y="622.167"/>
      <point x="881.833" y="625.834" type="curve"/>
      <point x="882.833" y="632.833"/>
      <point x="882.833" y="639"/>
      <point x="883.166" y="645.333" type="curve"/>
      <point x="881.499" y="647" type="line"/>
      <point x="744.333" y="646.667" type="line"/>
      <point x="449.333" y="152.333" type="line" smooth="yes"/>
      <point x="443.5" y="142.833"/>
      <point x="440.333" y="138.166"/>
      <point x="437.833" y="136.833" type="curve"/>
      <point x="435" y="136.833"/>
      <point x="434" y="140.166"/>
      <point x="432.833" y="147.666" type="curve"/>
      <point x="337" y="645.833" type="line"/>
      <point x="184.166" y="647" type="line"/>
      <point x="182.833" y="645.667"/>
      <point x="182.333" y="644.5"/>
      <point x="181.333" y="642.5" type="curve"/>
      <point x="179.666" y="625.834" type="line" smooth="yes"/>
      <point x="179.333" y="623"/>
      <point x="179.5" y="620.167"/>
      <point x="180.666" y="618.834" type="curve"/>
      <point x="184.5" y="617.834"/>
      <point x="188" y="617"/>
      <point x="191.833" y="616.667" type="curve" smooth="yes"/>
      <point x="214.333" y="615" type="line" smooth="yes"/>
      <point x="236.333" y="613"/>
      <point x="245.166" y="607.334"/>
      <point x="245.666" y="593.667" type="curve" smooth="yes"/>
      <point x="245.833" y="587.834"/>
      <point x="244.833" y="581.5"/>
      <point x="242.833" y="573.334" type="curve" smooth="yes"/>
      <point x="240.833" y="564.167"/>
      <point x="237.833" y="555.5"/>
      <point x="235.5" y="545.5" type="curve"/>
      <point x="110" y="113.5" type="line"/>
      <point x="107.833" y="104"/>
      <point x="104.666" y="95.5"/>
      <point x="102.5" y="86.5" type="curve"/>
      <point x="94.833" y="59.333"/>
      <point x="81.666" y="33.333"/>
      <point x="52.5" y="30.333" type="curve" smooth="yes"/>
      <point x="30.833" y="28.666" type="line" smooth="yes"/>
      <point x="27" y="28.333"/>
      <point x="23.666" y="27.166"/>
      <point x="20.166" y="26.166" type="curve"/>
      <point x="18.833" y="24.833"/>
      <point x="17.5" y="22"/>
      <point x="16.333" y="18.333" type="curve"/>
      <point x="15.333" y="12.167"/>
      <point x="15.333" y="5.167"/>
      <point x="14.833" y="-0.333" type="curve"/>
      <point x="16.5" y="-2" type="line"/>
      <point x="39.666" y="-1"/>
      <point x="64.833" y="-0.833"/>
      <point x="85.333" y="0" type="curve"/>
      <point x="91.166" y="0"/>
      <point x="96.166" y="0"/>
      <point x="101.166" y="0" type="curve" smooth="yes"/>
      <point x="124.166" y="0"/>
      <point x="164.5" y="-1"/>
      <point x="192.666" y="-2" type="curve"/>
      <point x="195.166" y="-0.333" type="line"/>
      <point x="195.833" y="5.167"/>
      <point x="197.166" y="12.167"/>
      <point x="197.333" y="18.333" type="curve"/>
      <point x="197.666" y="22"/>
      <point x="196.833" y="24.833"/>
      <point x="195.5" y="26.166" type="curve"/>
      <point x="192.666" y="27.166"/>
      <point x="189.333" y="28.333"/>
      <point x="185.5" y="28.833" type="curve"/>
      <point x="165.5" y="30.5" type="line" smooth="yes"/>
      <point x="147" y="32.333"/>
      <point x="140" y="44.833"/>
      <point x="139.666" y="61.333" type="curve" smooth="yes"/>
      <point x="139.5" y="70.333"/>
      <point x="141" y="81"/>
      <point x="144.5" y="92.166" type="curve"/>
      <point x="265.833" y="519.667" type="line"/>
      <point x="268.166" y="519.667" type="line"/>
      <point x="364.5" y="5" type="line"/>
      <point x="366.333" y="-2"/>
      <point x="372.166" y="-6.333"/>
      <point x="378.166" y="-6.333" type="curve" smooth="yes"/>
      <point x="383.333" y="-6.333"/>
      <point x="389" y="-3.167"/>
      <point x="394" y="5" type="curve" smooth="yes"/>
      <point x="712.999" y="534" type="line"/>
      <point x="714.999" y="534" type="line"/>
    </contour>
  </outline>
</glyph>
<glyph name="N" format="2">
  <advance width="673"/>
  <unicode hex="004E"/>
  <anchor x="463.167" y="740" name="t.uni0302"/>
  <anchor x="317" y="-60" name="b.minus-60"/>
  <outline>
    <contour>
      <point x="588.167" y="17.5" type="curve"/>
      <point x="592.333" y="40"/>
      <point x="598.833" y="75.1667"/>
      <point x="604" y="102.833" type="curve" smooth="yes"/>
      <point x="684" y="515.333" type="line" smooth="yes"/>
      <point x="687.167" y="530.667"/>
      <point x="689.667" y="544.333"/>
      <point x="693" y="558.167" type="curve" smooth="yes"/>
      <point x="699.667" y="587.667"/>
      <point x="717.667" y="611"/>
      <point x="753.167" y="614.5" type="curve"/>
      <point x="762.667" y="615.833"/>
      <point x="772.5" y="616"/>
      <point x="782.833" y="617.167" type="curve"/>
      <point x="786" y="617.667"/>
      <point x="791.5" y="621.333"/>
      <point x="791.667" y="626.667" type="curve"/>
      <point x="792.833" y="632.833"/>
      <point x="792.833" y="639.833"/>
      <point x="793.167" y="645.333" type="curve"/>
      <point x="791.5" y="647" type="line"/>
      <point x="746.167" y="646"/>
      <point x="713" y="645"/>
      <point x="686.833" y="645" type="curve" smooth="yes"/>
      <point x="659.333" y="645"/>
      <point x="621.333" y="646"/>
      <point x="575.833" y="647" type="curve"/>
      <point x="574.5" y="645.667"/>
      <point x="574" y="644.5"/>
      <point x="572.833" y="642.5" type="curve"/>
      <point x="571.833" y="636.333"/>
      <point x="571" y="629.333"/>
      <point x="570.5" y="623.833" type="curve"/>
      <point x="571" y="620.333"/>
      <point x="579" y="616.833"/>
      <point x="584.167" y="616.667" type="curve"/>
      <point x="592" y="615.667"/>
      <point x="599.667" y="615.5"/>
      <point x="607.167" y="614.5" type="curve"/>
      <point x="637.333" y="612"/>
      <point x="648.167" y="593.667"/>
      <point x="648.167" y="570.833" type="curve" smooth="yes"/>
      <point x="648.167" y="566.667"/>
      <point x="647.333" y="562.5"/>
      <point x="646.5" y="558.333" type="curve" smooth="yes"/>
      <point x="644" y="545.333"/>
      <point x="642" y="530.833"/>
      <point x="638.667" y="516.167" type="curve"/>
      <point x="581.333" y="220.167" type="line"/>
      <point x="574.667" y="186.833" type="line" smooth="yes"/>
      <point x="571" y="169.5"/>
      <point x="569" y="159.5"/>
      <point x="563.5" y="159.167" type="curve"/>
      <point x="559.167" y="158.5"/>
      <point x="554.667" y="163.667"/>
      <point x="548.5" y="173" type="curve" smooth="yes"/>
      <point x="543.5" y="180.5"/>
      <point x="537.667" y="192.167"/>
      <point x="528.5" y="207.167" type="curve"/>
      <point x="350.5" y="525.833" type="line"/>
      <point x="282.833" y="646.667" type="line"/>
      <point x="145.5" y="647" type="line"/>
      <point x="143" y="645.333" type="line"/>
      <point x="141" y="639.333"/>
      <point x="140.167" y="629.833"/>
      <point x="140.167" y="623.833" type="curve"/>
      <point x="141.5" y="619.5"/>
      <point x="148.667" y="617.667"/>
      <point x="155.5" y="616.333" type="curve"/>
      <point x="185.833" y="612"/>
      <point x="205.667" y="575.167"/>
      <point x="206.667" y="550" type="curve"/>
      <point x="124.833" y="128.833" type="line" smooth="yes"/>
      <point x="121.667" y="114.333"/>
      <point x="119.167" y="99.8333"/>
      <point x="115.833" y="86.8333" type="curve" smooth="yes"/>
      <point x="109.167" y="59.8333"/>
      <point x="91.8333" y="34"/>
      <point x="54.6667" y="30.5" type="curve"/>
      <point x="46" y="29.1667"/>
      <point x="36.1667" y="29"/>
      <point x="26.6667" y="27.8333" type="curve"/>
      <point x="18.6667" y="26.5"/>
      <point x="14.8333" y="22.8333"/>
      <point x="13.8333" y="17.5" type="curve" smooth="yes"/>
      <point x="12.6667" y="11.3333"/>
      <point x="12.8333" y="5.16667"/>
      <point x="12.3333" y="-0.333333" type="curve"/>
      <point x="14" y="-2" type="line"/>
      <point x="53.5" y="-1"/>
      <point x="85" y="0"/>
      <point x="112.833" y="0" type="curve" smooth="yes"/>
      <point x="123.667" y="0" type="line" smooth="yes"/>
      <point x="151.167" y="0"/>
      <point x="184" y="-1"/>
      <point x="229.5" y="-2" type="curve"/>
      <point x="231" y="-0.666667"/>
      <point x="231.5" y="0.5"/>
      <point x="232.5" y="2.5" type="curve"/>
      <point x="234.167" y="18.3333" type="line"/>
      <point x="235.333" y="22"/>
      <point x="234.5" y="24.8333"/>
      <point x="233.167" y="26.1667" type="curve"/>
      <point x="231" y="28"/>
      <point x="228.833" y="28.1667"/>
      <point x="225.333" y="28.3333" type="curve"/>
      <point x="217.5" y="29.3333"/>
      <point x="209" y="29.5"/>
      <point x="201.5" y="30.5" type="curve"/>
      <point x="173" y="33"/>
      <point x="160.5" y="50.5"/>
      <point x="160.5" y="74.1667" type="curve" smooth="yes"/>
      <point x="160.5" y="78.3333"/>
      <point x="161.333" y="82.5"/>
      <point x="162.167" y="86.6667" type="curve" smooth="yes"/>
      <point x="164.667" y="99.6667"/>
      <point x="166.833" y="113.333"/>
      <point x="170" y="128" type="curve" smooth="yes"/>
      <point x="229.667" y="437.5" type="line" smooth="yes"/>
      <point x="235.833" y="467.5"/>
      <point x="240.667" y="481.667"/>
      <point x="247.5" y="481.667" type="curve" smooth="yes"/>
      <point x="251.5" y="481.667"/>
      <point x="256.667" y="476.333"/>
      <point x="263.833" y="465.833" type="curve"/>
      <point x="266.333" y="461.667"/>
      <point x="269.667" y="456.667"/>
      <point x="273" y="450.833" type="curve" smooth="yes"/>
      <point x="513" y="32" type="line"/>
      <point x="516.333" y="25.6667"/>
      <point x="520.5" y="19.3333"/>
      <point x="523.667" y="13.1667" type="curve" smooth="yes"/>
      <point x="531" y="-1.5"/>
      <point x="541.333" y="-10.3333"/>
      <point x="554.667" y="-10.3333" type="curve" smooth="yes"/>
      <point x="571.167" y="-10.3333"/>
      <point x="581.667" y="0.166667"/>
    </contour>
  </outline>
</glyph>
<glyph name="O" format="2">
  <advance width="673"/>
  <unicode hex="004F"/>
  <anchor x="489.333" y="740" name="t.uni0302"/>
  <anchor x="389.833" y="10" name="b.ogonek"/>
  <anchor x="341" y="-60" name="b.minus-60"/>
  <outline>
    <contour>
      <point x="87.1667" y="239.833" type="curve" smooth="yes"/>
      <point x="87.1667" y="82.3333"/>
      <point x="190.667" y="-10"/>
      <point x="336.833" y="-10" type="curve" smooth="yes"/>
      <point x="553.333" y="-10"/>
      <point x="711.167" y="191.667"/>
      <point x="711.167" y="395.667" type="curve" smooth="yes"/>
      <point x="711.167" y="559.167"/>
      <point x="604" y="658"/>
      <point x="461.5" y="658" type="curve" smooth="yes"/>
      <point x="245.833" y="658"/>
      <point x="87.1667" y="434"/>
    </contour>
    <contour>
      <point x="187.167" y="236.667" type="curve" smooth="yes"/>
      <point x="187.167" y="379.333"/>
      <point x="275.333" y="622.667"/>
      <point x="438.833" y="622.667" type="curve" smooth="yes"/>
      <point x="541.167" y="622.667"/>
      <point x="611.167" y="551.667"/>
      <point x="611.167" y="413.833" type="curve" smooth="yes"/>
      <point x="611.167" y="253.5"/>
      <point x="524.833" y="25.3333"/>
      <point x="360.333" y="25.3333" type="curve" smooth="yes"/>
      <point x="264.833" y="25.3333"/>
      <point x="187.167" y="102.833"/>
    </contour>
  </outline>
  <guideline angle="0" x="0" y="24"/>
</glyph>
<glyph name="P" format="2">
  <advance width="511"/>
  <unicode hex="0050"/>
  <anchor x="356.667" y="740" name="t.uni0302"/>
  <anchor x="136.667" y="-60" name="b.minus-60"/>
  <outline>
    <contour>
      <point x="396.333" y="654.667" type="curve" smooth="yes"/>
      <point x="366" y="654.667"/>
      <point x="304.833" y="645" name=".hr01"/>
      <point x="262.833" y="645" type="curve" smooth="yes"/>
      <point x="253.167" y="645" type="line"/>
      <point x="126" y="0" type="line"/>
      <point x="164" y="0"/>
      <point x="229.833" y="-1"/>
      <point x="273.667" y="-2" type="curve"/>
      <point x="276.333" y="-0.166667"/>
      <point x="282.667" y="18.5"/>
      <point x="277.167" y="27.8333" type="curve"/>
      <point x="217.333" y="35.6667"/>
      <point x="192.5" y="48.3333"/>
      <point x="199.667" y="86" type="curve" smooth="yes"/>
      <point x="284.833" y="522.333" type="line" smooth="yes"/>
      <point x="300.333" y="600.333"/>
      <point x="317.833" y="619.5" name=".hr02"/>
      <point x="378.167" y="619.5" type="curve" smooth="yes"/>
      <point x="433.5" y="619.5"/>
      <point x="486.833" y="601"/>
      <point x="486.833" y="519.5" type="curve" smooth="yes"/>
      <point x="486.833" y="409.5"/>
      <point x="433" y="316.5"/>
      <point x="313.333" y="316.5" type="curve" smooth="yes"/>
      <point x="271.333" y="316.5"/>
      <point x="255" y="319.167"/>
      <point x="227.167" y="327.833" type="curve"/>
      <point x="225.667" y="315.5"/>
      <point x="228.667" y="304"/>
      <point x="235.667" y="294.167" type="curve"/>
      <point x="260.333" y="284.667"/>
      <point x="275.5" y="281.167"/>
      <point x="311.167" y="281.167" type="curve" smooth="yes"/>
      <point x="449" y="281.167"/>
      <point x="582" y="370.5"/>
      <point x="582" y="518" type="curve" smooth="yes"/>
      <point x="582" y="586.833"/>
      <point x="535.333" y="654.667"/>
    </contour>
    <contour>
      <point x="183" y="0" type="line"/>
      <point x="290.167" y="551" type="line"/>
      <point x="255.333" y="645" type="line"/>
      <point x="208.667" y="645" name=".hr03"/>
      <point x="170" y="646"/>
      <point x="136.667" y="647" type="curve"/>
      <point x="134.167" y="644.5"/>
      <point x="128.667" y="627.333"/>
      <point x="133.167" y="617.167" type="curve"/>
      <point x="184.5" y="614.833"/>
      <point x="204" y="604.667"/>
      <point x="204" y="581.833" type="curve" smooth="yes"/>
      <point x="204" y="565"/>
      <point x="202.833" y="549.167"/>
      <point x="197.333" y="521.167" type="curve" smooth="yes"/>
      <point x="120.333" y="122" type="line" smooth="yes"/>
      <point x="107.333" y="55.8333"/>
      <point x="85.1667" y="35"/>
      <point x="16.8333" y="27.8333" type="curve"/>
      <point x="10.8333" y="18.5"/>
      <point x="7.33333" y="5"/>
      <point x="12.3333" y="-2" type="curve"/>
      <point x="56" y="-1"/>
      <point x="100.833" y="0"/>
      <point x="136.667" y="0" type="curve" smooth="yes"/>
    </contour>
  </outline>
</glyph>
<glyph name="Q" format="2">
  <advance width="673"/>
  <unicode hex="0051"/>
  <anchor x="481.333" y="740" name="t.uni0302"/>
  <outline>
    <component base="O"/>
    <contour>
      <point x="127" y="-128.167" type="curve" smooth="yes"/>
      <point x="104" y="-153" type="line"/>
      <point x="136.667" y="-174.667" type="line"/>
      <point x="182.167" y="-128" type="line" smooth="yes"/>
      <point x="191.833" y="-118.167"/>
      <point x="211.667" y="-115.667"/>
      <point x="218.667" y="-115.667" type="curve" smooth="yes"/>
      <point x="306" y="-115.667"/>
      <point x="351" y="-211.5"/>
      <point x="472.667" y="-211.5" type="curve" smooth="yes"/>
      <point x="537.667" y="-211.5"/>
      <point x="582.833" y="-182.334"/>
      <point x="628.667" y="-128.667" type="curve"/>
      <point x="615" y="-115" type="line"/>
      <point x="592" y="-139.834"/>
      <point x="558.667" y="-152"/>
      <point x="524.833" y="-152" type="curve" smooth="yes"/>
      <point x="439.167" y="-152"/>
      <point x="378.333" y="-68.334"/>
      <point x="274" y="-68.334" type="curve" smooth="yes"/>
      <point x="268.833" y="-68.334"/>
      <point x="263.667" y="-68.334"/>
      <point x="257.667" y="-69.167" type="curve"/>
      <point x="257.333" y="-69.167" type="line"/>
      <point x="310.667" y="-34.501"/>
      <point x="359.167" y="-13.167"/>
      <point x="393" y="-4.001" type="curve"/>
      <point x="393" y="-0.667" type="line"/>
      <point x="309.5" y="-0.667" type="line"/>
      <point x="240.333" y="-31.001"/>
      <point x="171.333" y="-81.167"/>
    </contour>
  </outline>
</glyph>
<glyph name="R" format="2">
  <advance width="570"/>
  <unicode hex="0052"/>
  <anchor x="385.667" y="740" name="t.uni0302"/>
  <anchor x="287.167" y="-60" name="b.minus-60"/>
  <outline>
    <contour>
      <point x="392" y="654" type="curve" smooth="yes"/>
      <point x="369" y="654"/>
      <point x="308.833" y="645"/>
      <point x="266.5" y="645" type="curve" smooth="yes"/>
      <point x="255.333" y="645" type="line"/>
      <point x="129" y="0" type="line"/>
      <point x="170.5" y="0"/>
      <point x="218" y="-1"/>
      <point x="265.5" y="-2" type="curve"/>
      <point x="269.5" y="2.5"/>
      <point x="274.333" y="21.166"/>
      <point x="270.333" y="26.166" type="curve"/>
      <point x="257.167" y="32.833"/>
      <point x="196.833" y="23.5"/>
      <point x="196.833" y="61.666" type="curve" smooth="yes"/>
      <point x="196.833" y="66.5"/>
      <point x="196.833" y="70.5"/>
      <point x="198.333" y="78.333" type="curve" smooth="yes"/>
      <point x="239.333" y="289.667" type="line"/>
      <point x="305.333" y="289.667"/>
      <point x="333.333" y="279.167"/>
      <point x="344.833" y="250.834" type="curve" smooth="yes"/>
      <point x="409.5" y="89.833" type="line" smooth="yes"/>
      <point x="438.833" y="16.5"/>
      <point x="459.333" y="-10.5"/>
      <point x="532.167" y="-9.667" type="curve" smooth="yes"/>
      <point x="547.667" y="-9.5"/>
      <point x="565" y="-7.5"/>
      <point x="575.167" y="-2.833" type="curve"/>
      <point x="578.833" y="3.167"/>
      <point x="580.333" y="13.333"/>
      <point x="578.667" y="22.833" type="curve"/>
      <point x="535.667" y="22.833"/>
      <point x="517.5" y="55.166"/>
      <point x="501.167" y="98" type="curve" smooth="yes"/>
      <point x="419.5" y="308" type="line"/>
      <point x="508.167" y="337"/>
      <point x="581.833" y="412.667"/>
      <point x="581.833" y="506" type="curve" smooth="yes"/>
      <point x="581.833" y="626.667"/>
      <point x="496.333" y="654"/>
    </contour>
    <contour>
      <point x="488.333" y="519.667" type="curve" smooth="yes"/>
      <point x="488.333" y="394.667"/>
      <point x="417.833" y="325"/>
      <point x="292.667" y="325" type="curve" smooth="yes"/>
      <point x="245.833" y="325" type="line"/>
      <point x="294.167" y="571" type="line" smooth="yes"/>
      <point x="300.667" y="602.667"/>
      <point x="316.833" y="619.167"/>
      <point x="380.5" y="619.167" type="curve" smooth="yes"/>
      <point x="431" y="619.167"/>
      <point x="488.333" y="600.834"/>
    </contour>
    <contour>
      <point x="183" y="0" type="line"/>
      <point x="290.167" y="551" type="line"/>
      <point x="255.333" y="645" type="line"/>
      <point x="208.667" y="645"/>
      <point x="170" y="646"/>
      <point x="136.667" y="647" type="curve"/>
      <point x="134.167" y="644.5"/>
      <point x="128.667" y="627.334"/>
      <point x="133.167" y="617.167" type="curve"/>
      <point x="184.5" y="614.834"/>
      <point x="204" y="604.667"/>
      <point x="204" y="581.834" type="curve" smooth="yes"/>
      <point x="204" y="565"/>
      <point x="202.833" y="549.167"/>
      <point x="197.333" y="521.167" type="curve" smooth="yes"/>
      <point x="120.333" y="122" type="line" smooth="yes"/>
      <point x="107.333" y="55.833"/>
      <point x="85.167" y="35"/>
      <point x="16.833" y="27.833" type="curve"/>
      <point x="10.833" y="18.5"/>
      <point x="7.333" y="5"/>
      <point x="12.333" y="-2" type="curve"/>
      <point x="56" y="-1"/>
      <point x="100.833" y="0"/>
      <point x="136.667" y="0" type="curve" smooth="yes"/>
    </contour>
  </outline>
</glyph>
<glyph name="S" format="2">
  <advance width="459"/>
  <unicode hex="0053"/>
  <anchor x="370.5" y="740" name="t.uni0302"/>
  <anchor x="226.167" y="0" name="b.cedilla"/>
  <anchor x="203.333" y="-60" name="b.minus-60"/>
  <outline>
    <contour>
      <point x="498.5" y="626.666" type="curve"/>
      <point x="442.834" y="639.166"/>
      <point x="410.334" y="658"/>
      <point x="350.667" y="658" type="curve" smooth="yes"/>
      <point x="241.499" y="658"/>
      <point x="139.833" y="573.333"/>
      <point x="139.833" y="459.166" type="curve" smooth="yes"/>
      <point x="139.833" y="381.833"/>
      <point x="195.999" y="335.333"/>
      <point x="258.5" y="300" type="curve" smooth="yes"/>
      <point x="286.833" y="284" type="line" smooth="yes"/>
      <point x="331.5" y="258.833"/>
      <point x="368.167" y="227.667"/>
      <point x="368.167" y="169.333" type="curve" smooth="yes"/>
      <point x="368.167" y="84"/>
      <point x="318.5" y="27"/>
      <point x="229.833" y="27" type="curve" smooth="yes"/>
      <point x="148.333" y="27"/>
      <point x="96.334" y="68.667"/>
      <point x="96.334" y="169.667" type="curve"/>
      <point x="93.001" y="170.833"/>
      <point x="88.834" y="171.833"/>
      <point x="83.667" y="171.833" type="curve" smooth="yes"/>
      <point x="77.667" y="171.833"/>
      <point x="69.167" y="169.833"/>
      <point x="63.167" y="166.667" type="curve"/>
      <point x="52.334" y="112.5"/>
      <point x="51.834" y="58.833"/>
      <point x="50.167" y="5.833" type="curve"/>
      <point x="107.667" y="5.833"/>
      <point x="128.167" y="-10"/>
      <point x="217.833" y="-10" type="curve" smooth="yes"/>
      <point x="329.833" y="-10"/>
      <point x="460.5" y="81"/>
      <point x="460.5" y="200.667" type="curve" smooth="yes"/>
      <point x="460.5" y="290"/>
      <point x="416.334" y="331.333"/>
      <point x="343.5" y="369.5" type="curve" smooth="yes"/>
      <point x="297.833" y="393.166" type="line" smooth="yes"/>
      <point x="261.5" y="412.5"/>
      <point x="221.666" y="451.5"/>
      <point x="221.666" y="503.333" type="curve" smooth="yes"/>
      <point x="221.666" y="572.333"/>
      <point x="281.166" y="622.333"/>
      <point x="346.167" y="622.333" type="curve" smooth="yes"/>
      <point x="436.334" y="622.333"/>
      <point x="449" y="560.5"/>
      <point x="454.667" y="494.666" type="curve"/>
      <point x="458.833" y="492.666"/>
      <point x="464.167" y="490.833"/>
      <point x="470.333" y="490.833" type="curve" smooth="yes"/>
      <point x="476.334" y="490.833"/>
      <point x="482.5" y="491.333"/>
      <point x="488.667" y="493.833" type="curve"/>
      <point x="495.334" y="544.333"/>
      <point x="497.667" y="575.333"/>
    </contour>
  </outline>
</glyph>
<glyph name="T" format="2">
  <advance width="558"/>
  <unicode hex="0054"/>
  <anchor x="437.333" y="740" name="t.uni0302"/>
  <anchor x="284" y="-60" name="b.minus-60"/>
  <anchor x="304.5" y="10" name="b.cedilla"/>
  <outline>
    <contour>
      <point x="166" y="-2" type="curve"/>
      <point x="211.333" y="-1"/>
      <point x="249.833" y="0"/>
      <point x="292.5" y="0" type="curve" smooth="yes"/>
      <point x="334.666" y="0"/>
      <point x="380.5" y="-1"/>
      <point x="425.167" y="-2" type="curve"/>
      <point x="428.833" y="2.333"/>
      <point x="432.167" y="22.666"/>
      <point x="428.833" y="27.833" type="curve"/>
      <point x="360.333" y="34.166"/>
      <point x="343.666" y="44.166"/>
      <point x="351.333" y="83.833" type="curve" smooth="yes"/>
      <point x="442.833" y="553.833" type="line" smooth="yes"/>
      <point x="448.333" y="581.166"/>
      <point x="467.5" y="605.833"/>
      <point x="498.333" y="605.833" type="curve" smooth="yes"/>
      <point x="547" y="605.833" type="line" smooth="yes"/>
      <point x="598.667" y="605.833"/>
      <point x="619" y="580"/>
      <point x="635" y="511.166" type="curve"/>
      <point x="645.167" y="511.166"/>
      <point x="655" y="511.333"/>
      <point x="666.5" y="516.166" type="curve"/>
      <point x="657.667" y="571.333"/>
      <point x="656.833" y="615.833"/>
      <point x="660.667" y="655.833" type="curve"/>
      <point x="658.667" y="658" type="line"/>
      <point x="632.333" y="649.167"/>
      <point x="597.667" y="645"/>
      <point x="555" y="645" type="curve" smooth="yes"/>
      <point x="254.166" y="645" type="line" smooth="yes"/>
      <point x="220.166" y="645"/>
      <point x="183.166" y="649.167"/>
      <point x="158.833" y="657.167" type="curve"/>
      <point x="156.333" y="656.667" type="line"/>
      <point x="144.166" y="608.333"/>
      <point x="134.333" y="576.166"/>
      <point x="109.333" y="524" type="curve"/>
      <point x="117.5" y="519.166"/>
      <point x="130.833" y="517.333"/>
      <point x="140.333" y="517.333" type="curve"/>
      <point x="171" y="584.666"/>
      <point x="199.333" y="605.833"/>
      <point x="253.333" y="605.833" type="curve" smooth="yes"/>
      <point x="318.666" y="605.833" type="line" smooth="yes"/>
      <point x="349.166" y="605.833"/>
      <point x="361.333" y="582.666"/>
      <point x="356.333" y="556.833" type="curve" smooth="yes"/>
      <point x="264.666" y="83.833" type="line" smooth="yes"/>
      <point x="257" y="43.333"/>
      <point x="234" y="31.666"/>
      <point x="168.666" y="27.833" type="curve"/>
      <point x="164.166" y="23.5"/>
      <point x="161.833" y="6.5"/>
    </contour>
  </outline>
</glyph>
<glyph name="U" format="2">
  <advance width="645"/>
  <unicode hex="0055"/>
  <anchor x="471.5" y="740" name="t.uni0302"/>
  <anchor x="381.667" y="0" name="b.ogonek"/>
  <anchor x="306.667" y="-60" name="b.minus-60"/>
  <outline>
    <contour>
      <point x="123.5" y="165.833" type="curve" smooth="yes"/>
      <point x="123.5" y="45.166"/>
      <point x="200.167" y="-10"/>
      <point x="313.167" y="-10" type="curve" smooth="yes"/>
      <point x="511.833" y="-10"/>
      <point x="582" y="120.333"/>
      <point x="616.167" y="295.666" type="curve" smooth="yes"/>
      <point x="666.167" y="548.333" type="line"/>
      <point x="675.5" y="599.666"/>
      <point x="692.833" y="612.833"/>
      <point x="750.5" y="616.833" type="curve"/>
      <point x="754.833" y="625.166"/>
      <point x="757.667" y="637.667"/>
      <point x="755.833" y="647" type="curve"/>
      <point x="722.167" y="646"/>
      <point x="692.833" y="645"/>
      <point x="661.167" y="645" type="curve" smooth="yes"/>
      <point x="634.833" y="645"/>
      <point x="598.833" y="646"/>
      <point x="553.333" y="647" type="curve"/>
      <point x="547.333" y="637.667"/>
      <point x="544.667" y="627.166"/>
      <point x="547.167" y="616.833" type="curve"/>
      <point x="600" y="614.333"/>
      <point x="620" y="608"/>
      <point x="620" y="580.666" type="curve" smooth="yes"/>
      <point x="620" y="566.833"/>
      <point x="617.167" y="542"/>
      <point x="614.833" y="529.166" type="curve" smooth="yes"/>
      <point x="566" y="277.666" type="line" smooth="yes"/>
      <point x="540.667" y="151.666"/>
      <point x="496.5" y="32"/>
      <point x="341.167" y="32" type="curve" smooth="yes"/>
      <point x="259.5" y="32"/>
      <point x="210.5" y="93.333"/>
      <point x="210.5" y="172.5" type="curve" smooth="yes"/>
      <point x="210.5" y="203.666"/>
      <point x="216.333" y="237.5"/>
      <point x="222.5" y="269.666" type="curve" smooth="yes"/>
      <point x="279.833" y="563.333" type="line" smooth="yes"/>
      <point x="286.333" y="599.333"/>
      <point x="309.833" y="613.5"/>
      <point x="375.833" y="616.833" type="curve"/>
      <point x="381" y="626"/>
      <point x="383" y="638.5"/>
      <point x="382" y="647" type="curve"/>
      <point x="340" y="646"/>
      <point x="296" y="645"/>
      <point x="252.833" y="645" type="curve" smooth="yes"/>
      <point x="212.167" y="645"/>
      <point x="173.667" y="646"/>
      <point x="129.167" y="647" type="curve"/>
      <point x="123.167" y="637.667"/>
      <point x="120.667" y="627"/>
      <point x="124" y="616.833" type="curve"/>
      <point x="172.167" y="613.5"/>
      <point x="193.5" y="608.833"/>
      <point x="193.5" y="582" type="curve" smooth="yes"/>
      <point x="193.5" y="572.5"/>
      <point x="190.667" y="547.5"/>
      <point x="186.667" y="530" type="curve"/>
      <point x="130.667" y="236.666" type="line" smooth="yes"/>
      <point x="125.5" y="210.166"/>
      <point x="123.5" y="186.5"/>
    </contour>
  </outline>
</glyph>
<glyph name="V" format="2">
  <advance width="609"/>
  <unicode hex="0056"/>
  <anchor x="481.5" y="740" name="t.uni0302"/>
  <anchor x="289.833" y="-60" name="b.minus-60"/>
  <outline>
    <contour>
      <point x="626.833" y="551.333" type="line" smooth="yes"/>
      <point x="648.5" y="588.833"/>
      <point x="680.333" y="611.667"/>
      <point x="731.667" y="617.167" type="curve"/>
      <point x="737.833" y="623.167"/>
      <point x="738.667" y="641"/>
      <point x="732.833" y="647" type="curve"/>
      <point x="701.833" y="646"/>
      <point x="678" y="645"/>
      <point x="652.667" y="645" type="curve" smooth="yes"/>
      <point x="648.5" y="645"/>
      <point x="643.5" y="645"/>
      <point x="639.333" y="645" type="curve" smooth="yes"/>
      <point x="611.167" y="645"/>
      <point x="565.667" y="646"/>
      <point x="526.5" y="647" type="curve"/>
      <point x="520.333" y="641"/>
      <point x="519.5" y="623.167"/>
      <point x="525.333" y="617.167" type="curve"/>
      <point x="573" y="613.333"/>
      <point x="602.667" y="600.667"/>
      <point x="581.667" y="561.833" type="curve" smooth="yes"/>
      <point x="388" y="203.333" type="line"/>
      <point x="351.167" y="136.5" type="line"/>
      <point x="349" y="134.167"/>
      <point x="347" y="132.5"/>
      <point x="344" y="134.333" type="curve"/>
      <point x="333" y="212.667" type="line"/>
      <point x="281.5" y="572.167" type="line" smooth="yes"/>
      <point x="276.5" y="605.167"/>
      <point x="317.5" y="615"/>
      <point x="354.5" y="617.167" type="curve"/>
      <point x="360.667" y="623.167"/>
      <point x="361.5" y="641"/>
      <point x="355.667" y="647" type="curve"/>
      <point x="327.167" y="646"/>
      <point x="278.667" y="645"/>
      <point x="243.333" y="645" type="curve" smooth="yes"/>
      <point x="236.5" y="645"/>
      <point x="230.333" y="645"/>
      <point x="223.167" y="645" type="curve" smooth="yes"/>
      <point x="183.833" y="645"/>
      <point x="155" y="646"/>
      <point x="116.833" y="647" type="curve"/>
      <point x="110.667" y="641"/>
      <point x="110" y="623.167"/>
      <point x="115.833" y="617.167" type="curve"/>
      <point x="157" y="612.333"/>
      <point x="182" y="611"/>
      <point x="190.167" y="556.5" type="curve" smooth="yes"/>
      <point x="274.833" y="11" type="line" smooth="yes"/>
      <point x="277" y="-4"/>
      <point x="284.167" y="-12"/>
      <point x="294.333" y="-12" type="curve" smooth="yes"/>
      <point x="309.667" y="-12"/>
      <point x="320.667" y="9"/>
      <point x="328.167" y="21.8333" type="curve" smooth="yes"/>
    </contour>
  </outline>
</glyph>
<glyph name="W" format="2">
  <advance width="922"/>
  <unicode hex="0057"/>
  <anchor x="607.333" y="740" name="t.uni0302"/>
  <anchor x="457.167" y="-60" name="b.minus-60"/>
  <outline>
    <contour>
      <point x="624.333" y="588.834" type="curve"/>
      <point x="607.833" y="587.834"/>
      <point x="590.5" y="588.834"/>
      <point x="578.833" y="588.834" type="curve"/>
      <point x="380.333" y="215" type="line"/>
      <point x="346.667" y="157.334" type="line"/>
      <point x="340.333" y="217.667" type="line"/>
      <point x="304.5" y="572.167" type="line" smooth="yes"/>
      <point x="301.333" y="604.834"/>
      <point x="339.833" y="615"/>
      <point x="376.833" y="617.167" type="curve"/>
      <point x="383" y="623.167"/>
      <point x="383.833" y="641"/>
      <point x="378" y="647" type="curve"/>
      <point x="344.5" y="646"/>
      <point x="286.833" y="645"/>
      <point x="249.833" y="645" type="curve" smooth="yes"/>
      <point x="215.833" y="645"/>
      <point x="174.167" y="646"/>
      <point x="138.333" y="647" type="curve"/>
      <point x="132.167" y="641"/>
      <point x="131.5" y="623.167"/>
      <point x="137.333" y="617.167" type="curve"/>
      <point x="175.167" y="611.5"/>
      <point x="199.667" y="604.167"/>
      <point x="210" y="570.667" type="curve"/>
      <point x="212.667" y="563.334"/>
      <point x="214.667" y="554.5"/>
      <point x="215.667" y="543.834" type="curve" smooth="yes"/>
      <point x="278.833" y="11.834" type="line" smooth="yes"/>
      <point x="280.833" y="-4.833"/>
      <point x="284.833" y="-10.333"/>
      <point x="295" y="-10.333" type="curve" smooth="yes"/>
      <point x="303.333" y="-10.333"/>
      <point x="308.667" y="-6.333"/>
      <point x="318.667" y="11.834" type="curve" smooth="yes"/>
      <point x="513.167" y="368.834" type="line" smooth="yes"/>
      <point x="527" y="394"/>
      <point x="541" y="420.667"/>
      <point x="548.167" y="432.5" type="curve"/>
      <point x="549" y="432.5"/>
      <point x="551.5" y="432.5"/>
      <point x="552.333" y="430.834" type="curve"/>
      <point x="554.5" y="409.667"/>
      <point x="557.5" y="397.834"/>
      <point x="561.333" y="365.834" type="curve" smooth="yes"/>
      <point x="606.5" y="11.834" type="line" smooth="yes"/>
      <point x="608.5" y="-5"/>
      <point x="615.833" y="-10.333"/>
      <point x="625.167" y="-10.333" type="curve" smooth="yes"/>
      <point x="633.5" y="-10.333"/>
      <point x="638.833" y="-7"/>
      <point x="648.833" y="11" type="curve" smooth="yes"/>
      <point x="947.833" y="551.334" type="line" smooth="yes"/>
      <point x="969" y="588.667"/>
      <point x="994.667" y="611.667"/>
      <point x="1046" y="617.167" type="curve"/>
      <point x="1052.17" y="623.167"/>
      <point x="1053" y="641"/>
      <point x="1047.17" y="647" type="curve"/>
      <point x="1020.33" y="646"/>
      <point x="994" y="645.833"/>
      <point x="968.667" y="645" type="curve"/>
      <point x="960.667" y="645"/>
      <point x="953.5" y="645"/>
      <point x="946.167" y="645" type="curve" smooth="yes"/>
      <point x="918.833" y="645"/>
      <point x="873" y="646"/>
      <point x="835" y="647" type="curve"/>
      <point x="828.833" y="641"/>
      <point x="828" y="623.167"/>
      <point x="833.833" y="617.167" type="curve"/>
      <point x="881.5" y="613.334"/>
      <point x="918.333" y="600.667"/>
      <point x="896.833" y="561.834" type="curve" smooth="yes"/>
      <point x="710.5" y="214.167" type="line"/>
      <point x="676.5" y="150.667" type="line"/>
      <point x="669.667" y="208.5" type="line"/>
      <point x="636" y="489.5" type="line" smooth="yes"/>
      <point x="631.833" y="523.667"/>
      <point x="625.167" y="583"/>
    </contour>
  </outline>
</glyph>
<glyph name="X" format="2">
  <advance width="638"/>
  <unicode hex="0058"/>
  <anchor x="478.667" y="740" name="t.uni0302"/>
  <anchor x="283.333" y="-60" name="b.minus-60"/>
  <outline>
    <contour>
      <point x="448.999" y="75.667" type="line" smooth="yes"/>
      <point x="455.999" y="61.5"/>
      <point x="460.166" y="52"/>
      <point x="459.999" y="45.5" type="curve" smooth="yes"/>
      <point x="459.833" y="35.667"/>
      <point x="450.999" y="32.167"/>
      <point x="429.166" y="30" type="curve" smooth="yes"/>
      <point x="412.499" y="28.334" type="line"/>
      <point x="409.833" y="28.167"/>
      <point x="407.999" y="27.167"/>
      <point x="404.999" y="26.334" type="curve"/>
      <point x="403.833" y="25.167"/>
      <point x="403.499" y="22.834"/>
      <point x="402.333" y="20.5" type="curve"/>
      <point x="400.999" y="13.167"/>
      <point x="399.166" y="6.334"/>
      <point x="398.833" y="-0.166" type="curve"/>
      <point x="401.333" y="-1.833" type="line"/>
      <point x="441.166" y="-0.833"/>
      <point x="491.666" y="0.167"/>
      <point x="519.666" y="0.167" type="curve" smooth="yes"/>
      <point x="528.333" y="0.167" type="line" smooth="yes"/>
      <point x="553.166" y="0.167"/>
      <point x="596.333" y="-0.833"/>
      <point x="633.166" y="-1.833" type="curve"/>
      <point x="634.333" y="-0.666"/>
      <point x="634.666" y="0"/>
      <point x="635.833" y="1.5" type="curve"/>
      <point x="636.833" y="8.167"/>
      <point x="638.666" y="13.834"/>
      <point x="639.499" y="20.5" type="curve"/>
      <point x="639.499" y="22.834"/>
      <point x="639.499" y="24.334"/>
      <point x="638.333" y="26.334" type="curve"/>
      <point x="636.833" y="27.167"/>
      <point x="635.166" y="28.167"/>
      <point x="631.999" y="28.167" type="curve"/>
      <point x="595.833" y="31.5"/>
      <point x="571.499" y="55.167"/>
      <point x="552.833" y="90.667" type="curve"/>
      <point x="549.999" y="94.667"/>
      <point x="547.999" y="99.5"/>
      <point x="545.999" y="103.667" type="curve" smooth="yes"/>
      <point x="440.499" y="314.5" type="line" smooth="yes"/>
      <point x="434.999" y="324.834"/>
      <point x="432.166" y="333.167"/>
      <point x="431.833" y="340.667" type="curve" smooth="yes"/>
      <point x="431.666" y="343.167"/>
      <point x="431.499" y="344.667"/>
      <point x="431.499" y="347" type="curve"/>
      <point x="432.999" y="356.334"/>
      <point x="438.999" y="365.167"/>
      <point x="450.166" y="377.334" type="curve" smooth="yes"/>
      <point x="607.833" y="550.834" type="line"/>
      <point x="614.666" y="557.834"/>
      <point x="620.666" y="564.667"/>
      <point x="626.666" y="570.834" type="curve" smooth="yes"/>
      <point x="653.166" y="597.834"/>
      <point x="680.333" y="614.5"/>
      <point x="724.833" y="616.834" type="curve" smooth="yes"/>
      <point x="728.833" y="617"/>
      <point x="732.166" y="618"/>
      <point x="733.833" y="618.834" type="curve"/>
      <point x="735.833" y="620.834"/>
      <point x="736.166" y="623.167"/>
      <point x="736.499" y="624.667" type="curve"/>
      <point x="737.833" y="632"/>
      <point x="739.499" y="638.833"/>
      <point x="739.833" y="645.333" type="curve"/>
      <point x="738.166" y="647" type="line"/>
      <point x="700.833" y="646"/>
      <point x="665.499" y="645"/>
      <point x="643.499" y="645" type="curve" smooth="yes"/>
      <point x="621.499" y="645"/>
      <point x="584.666" y="646"/>
      <point x="545.833" y="647" type="curve"/>
      <point x="544.666" y="645.833"/>
      <point x="544.333" y="645.167"/>
      <point x="543.166" y="643.667" type="curve"/>
      <point x="542.166" y="637"/>
      <point x="540.333" y="631.334"/>
      <point x="539.499" y="624.667" type="curve"/>
      <point x="539.499" y="622.334"/>
      <point x="539.499" y="620"/>
      <point x="540.666" y="618.834" type="curve"/>
      <point x="542.666" y="618"/>
      <point x="545.333" y="617"/>
      <point x="547.833" y="616.667" type="curve" smooth="yes"/>
      <point x="556.333" y="615.667"/>
      <point x="565.333" y="615.5"/>
      <point x="573.333" y="614.334" type="curve" smooth="yes"/>
      <point x="585.333" y="612.834"/>
      <point x="590.166" y="608.5"/>
      <point x="590.166" y="602.334" type="curve" smooth="yes"/>
      <point x="590.166" y="595.334"/>
      <point x="582.999" y="584"/>
      <point x="570.999" y="570.667" type="curve" smooth="yes"/>
      <point x="523.499" y="516.834"/>
      <point x="475.833" y="462.167"/>
      <point x="425.999" y="408.334" type="curve" smooth="yes"/>
      <point x="418.499" y="400" type="line" smooth="yes"/>
      <point x="411.999" y="392.667"/>
      <point x="407.166" y="389"/>
      <point x="404.166" y="389" type="curve" smooth="yes"/>
      <point x="401.499" y="389"/>
      <point x="398.499" y="393.5"/>
      <point x="394.333" y="401.5" type="curve"/>
      <point x="328.666" y="548.667" type="line"/>
      <point x="319.499" y="569.5" type="line"/>
      <point x="313.499" y="582.167"/>
      <point x="309.666" y="592.5"/>
      <point x="310.333" y="599.834" type="curve"/>
      <point x="310.666" y="608.167"/>
      <point x="316.499" y="613.167"/>
      <point x="331.999" y="614.5" type="curve"/>
      <point x="341.833" y="615.667"/>
      <point x="350.999" y="615.834"/>
      <point x="361.166" y="616.834" type="curve" smooth="yes"/>
      <point x="362.999" y="617"/>
      <point x="364.833" y="618"/>
      <point x="366.999" y="618.834" type="curve"/>
      <point x="368.999" y="620"/>
      <point x="370.166" y="622.334"/>
      <point x="370.499" y="624.667" type="curve"/>
      <point x="371.499" y="630.5"/>
      <point x="372.499" y="637"/>
      <point x="373.333" y="642.833" type="curve"/>
      <point x="372.499" y="643.5"/>
      <point x="372.499" y="646.667"/>
      <point x="372.166" y="647" type="curve"/>
      <point x="344.833" y="646"/>
      <point x="312.499" y="645.833"/>
      <point x="286.999" y="645.833" type="curve"/>
      <point x="270.666" y="645"/>
      <point x="253.999" y="645"/>
      <point x="242.166" y="645" type="curve"/>
      <point x="216.999" y="645.167"/>
      <point x="178.5" y="646"/>
      <point x="143.833" y="647" type="curve"/>
      <point x="142.666" y="645.833"/>
      <point x="141.5" y="644.333"/>
      <point x="140.333" y="642.833" type="curve"/>
      <point x="139.166" y="636.333"/>
      <point x="137.5" y="628.667"/>
      <point x="137.166" y="623" type="curve" smooth="yes"/>
      <point x="137" y="619.667"/>
      <point x="142" y="618.667"/>
      <point x="149.166" y="617" type="curve"/>
      <point x="150.833" y="617" type="line"/>
      <point x="169.5" y="613.667"/>
      <point x="195.333" y="604.834"/>
      <point x="222.499" y="548.667" type="curve" smooth="yes"/>
      <point x="320.666" y="344" type="line"/>
      <point x="326.666" y="334.667"/>
      <point x="329.666" y="327.5"/>
      <point x="329.666" y="319.834" type="curve"/>
      <point x="329.833" y="317.667"/>
      <point x="328.833" y="315.5"/>
      <point x="328.666" y="313.5" type="curve"/>
      <point x="327.499" y="307.5"/>
      <point x="321.666" y="299"/>
      <point x="314.499" y="291" type="curve" smooth="yes"/>
      <point x="146.166" y="105.167" type="line" smooth="yes"/>
      <point x="138.833" y="96.834"/>
      <point x="129.666" y="87.667"/>
      <point x="120.666" y="77.667" type="curve"/>
      <point x="93.833" y="52.334"/>
      <point x="61.166" y="30.667"/>
      <point x="20.666" y="28.167" type="curve"/>
      <point x="17.5" y="28.167"/>
      <point x="14.166" y="28"/>
      <point x="11.833" y="26.334" type="curve"/>
      <point x="9.833" y="25.167"/>
      <point x="8.666" y="23.667"/>
      <point x="7.5" y="20.5" type="curve"/>
      <point x="6.333" y="13.834"/>
      <point x="4.5" y="8.167"/>
      <point x="3.666" y="1.5" type="curve"/>
      <point x="3.666" y="0"/>
      <point x="3.666" y="-0.666"/>
      <point x="4" y="-1.833" type="curve"/>
      <point x="31.833" y="-0.833"/>
      <point x="58" y="0.167"/>
      <point x="85.666" y="0.167" type="curve" smooth="yes"/>
      <point x="95.5" y="0.167"/>
      <point x="103.5" y="0.167"/>
      <point x="111.833" y="0.167" type="curve"/>
      <point x="136.333" y="-0.666"/>
      <point x="164.166" y="-0.833"/>
      <point x="198.833" y="-1.833" type="curve"/>
      <point x="201.333" y="-0.166" type="line"/>
      <point x="202.999" y="6.334"/>
      <point x="205.166" y="13.167"/>
      <point x="206.166" y="20.5" type="curve"/>
      <point x="206.166" y="22.834"/>
      <point x="206.166" y="24.334"/>
      <point x="204.999" y="25.5" type="curve"/>
      <point x="203.833" y="27.334"/>
      <point x="202" y="28.167"/>
      <point x="198.666" y="28.5" type="curve" smooth="yes"/>
      <point x="183.666" y="30.167" type="line" smooth="yes"/>
      <point x="166.833" y="32.334"/>
      <point x="159.666" y="37.667"/>
      <point x="159.5" y="46.167" type="curve"/>
      <point x="159.5" y="54.834"/>
      <point x="167.5" y="65.334"/>
      <point x="177" y="77.834" type="curve"/>
      <point x="229.666" y="137.667"/>
      <point x="282.166" y="198.334"/>
      <point x="335.833" y="258" type="curve"/>
      <point x="343.166" y="265.334"/>
      <point x="349.499" y="270.834"/>
      <point x="351.666" y="271" type="curve"/>
      <point x="355.999" y="271.167"/>
      <point x="359.999" y="267.667"/>
      <point x="364.333" y="258.5" type="curve" smooth="yes"/>
    </contour>
  </outline>
</glyph>
<glyph name="Z" format="2">
  <advance width="581"/>
  <unicode hex="005A"/>
  <anchor x="441.667" y="740" name="t.uni0302"/>
  <anchor x="267.667" y="-60" name="b.minus-60"/>
  <outline>
    <contour>
      <point x="37.833" y="11.833" type="curve" smooth="yes"/>
      <point x="37.833" y="4"/>
      <point x="42" y="0"/>
      <point x="53.666" y="0" type="curve" smooth="yes"/>
      <point x="320.666" y="0" type="line" smooth="yes"/>
      <point x="382.166" y="0"/>
      <point x="467.999" y="0.5"/>
      <point x="530.166" y="-3.833" type="curve"/>
      <point x="532.666" y="-1.667" type="line"/>
      <point x="546.499" y="49.166"/>
      <point x="569.666" y="112.833"/>
      <point x="590.166" y="166.166" type="curve"/>
      <point x="586.166" y="169.333"/>
      <point x="571.833" y="171.166"/>
      <point x="559.833" y="171.166" type="curve"/>
      <point x="526.499" y="97.833"/>
      <point x="484.666" y="39.833"/>
      <point x="413.333" y="39.833" type="curve" smooth="yes"/>
      <point x="194.666" y="39.833" type="line" smooth="yes"/>
      <point x="180.333" y="39.833"/>
      <point x="173.5" y="42.833"/>
      <point x="173.5" y="49.5" type="curve" smooth="yes"/>
      <point x="173.5" y="58.833"/>
      <point x="178.333" y="65.5"/>
      <point x="184.666" y="72" type="curve"/>
      <point x="642.333" y="591" type="line" smooth="yes"/>
      <point x="668.166" y="620.833"/>
      <point x="675.666" y="636.5"/>
      <point x="675.666" y="645.333" type="curve" smooth="yes"/>
      <point x="675.666" y="651.333"/>
      <point x="671.999" y="653.667"/>
      <point x="656.499" y="653.667" type="curve" smooth="yes"/>
      <point x="644.499" y="653.667"/>
      <point x="622.999" y="645"/>
      <point x="593.499" y="645" type="curve" smooth="yes"/>
      <point x="414.666" y="645" type="line" smooth="yes"/>
      <point x="299.833" y="645"/>
      <point x="265" y="648.833"/>
      <point x="206" y="658" type="curve"/>
      <point x="204.833" y="657.167"/>
      <point x="204.333" y="656.833"/>
      <point x="203.5" y="655.833" type="curve"/>
      <point x="189.666" y="604.167"/>
      <point x="166.333" y="531.5"/>
      <point x="149.666" y="489.333" type="curve"/>
      <point x="155.333" y="487"/>
      <point x="172.166" y="484.333"/>
      <point x="179.166" y="484.333" type="curve"/>
      <point x="212.833" y="552.333"/>
      <point x="241.333" y="604.5"/>
      <point x="314.5" y="604.5" type="curve" smooth="yes"/>
      <point x="527.833" y="604.5" type="line" smooth="yes"/>
      <point x="532.666" y="604.5"/>
      <point x="536.666" y="600.5"/>
      <point x="536.666" y="596.333" type="curve" smooth="yes"/>
      <point x="536.666" y="593.167"/>
      <point x="531.999" y="585.5"/>
      <point x="526.333" y="579" type="curve" smooth="yes"/>
      <point x="50.666" y="38" type="line"/>
      <point x="43.666" y="30.833"/>
      <point x="37.833" y="20.333"/>
    </contour>
  </outline>
</glyph>
<glyph name="bracketleft" format="2">
  <advance width="345"/>
  <unicode hex="005B"/>
  <outline>
    <contour>
      <point x="49.5" y="-198.833" type="line"/>
      <point x="269.5" y="-198.833" type="line"/>
      <point x="271.5" y="-192.833"/>
      <point x="276.333" y="-162.333"/>
      <point x="276.333" y="-157.167" type="curve"/>
      <point x="214.667" y="-155.333"/>
      <point x="155.667" y="-152.833"/>
      <point x="132.833" y="-138.333" type="curve"/>
      <point x="272" y="631.833" type="line"/>
      <point x="298.5" y="646.333"/>
      <point x="364.5" y="648.833"/>
      <point x="424.333" y="650.5" type="curve"/>
      <point x="426.333" y="656.5"/>
      <point x="430.167" y="686.167"/>
      <point x="430.167" y="691.333" type="curve"/>
      <point x="211.167" y="691.333" type="line"/>
    </contour>
  </outline>
</glyph>
<glyph name="backslash" format="2">
  <advance width="319"/>
  <unicode hex="005C"/>
  <outline>
    <contour>
      <point x="179.667" y="698" type="line"/>
      <point x="132.167" y="698" type="line"/>
      <point x="264" y="-48" type="line"/>
      <point x="311.5" y="-48" type="line"/>
    </contour>
  </outline>
</glyph>
<glyph name="bracketright" format="2">
  <advance width="345"/>
  <unicode hex="005D"/>
  <outline>
    <contour>
      <point x="385.5" y="691.333" type="line"/>
      <point x="165.5" y="691.333" type="line"/>
      <point x="163.5" y="685.333"/>
      <point x="158.666" y="655.667"/>
      <point x="158.666" y="650.5" type="curve"/>
      <point x="221.333" y="648.667"/>
      <point x="279.333" y="646.167"/>
      <point x="302.167" y="631.667" type="curve"/>
      <point x="163" y="-138.499" type="line"/>
      <point x="136.666" y="-152.999"/>
      <point x="70.5" y="-155.499"/>
      <point x="10.666" y="-157.166" type="curve"/>
      <point x="8.666" y="-163.166"/>
      <point x="4.833" y="-193.666"/>
      <point x="4.833" y="-198.833" type="curve"/>
      <point x="223" y="-198.833" type="line"/>
    </contour>
  </outline>
</glyph>
<glyph name="asciicircum" format="2">
  <advance width="518"/>
  <unicode hex="005E"/>
  <outline>
    <contour>
      <point x="357.166" y="589" type="line"/>
      <point x="413.166" y="346.833" type="line"/>
      <point x="458.833" y="346.833" type="line"/>
      <point x="390.166" y="650" type="line"/>
      <point x="348.666" y="650" type="line"/>
      <point x="167.5" y="346.833" type="line"/>
      <point x="213.167" y="346.833" type="line"/>
    </contour>
  </outline>
</glyph>
<glyph name="grave" format="2">
  <advance width="318"/>
  <unicode hex="0060"/>
  <outline>
    <contour>
      <point x="246.5" y="662.333" type="line"/>
      <point x="243.5" y="663.333"/>
      <point x="236.333" y="664.333"/>
      <point x="231.333" y="664.333" type="curve" smooth="yes"/>
      <point x="202" y="664.333"/>
      <point x="183.167" y="648"/>
      <point x="178.833" y="640.333" type="curve"/>
      <point x="178.833" y="628.167" type="line"/>
      <point x="313" y="519.333" type="line" smooth="yes"/>
      <point x="330.5" y="504.833"/>
      <point x="338.833" y="500"/>
      <point x="346.333" y="500" type="curve" smooth="yes"/>
      <point x="353.5" y="500"/>
      <point x="358.667" y="505.333"/>
      <point x="358.667" y="511.5" type="curve" smooth="yes"/>
      <point x="358.667" y="516.667"/>
      <point x="356.333" y="525.667"/>
      <point x="348.5" y="535.5" type="curve" smooth="yes"/>
    </contour>
  </outline>
  <guideline angle="308.99" x="347" y="535"/>
  <guideline angle="140.87" x="313" y="520"/>
  <guideline angle="0" x="0" y="500"/>
</glyph>
<glyph name="a" format="2">
  <advance width="491"/>
  <unicode hex="0061"/>
  <anchor x="382.5" y="500" name="t.uni0302"/>
  <anchor x="420" y="10" name="b.ogonek"/>
  <anchor x="206.167" y="-60" name="b.minus-60"/>
  <outline>
    <contour>
      <point x="468.667" y="439" type="curve" smooth="yes"/>
      <point x="464.334" y="439"/>
      <point x="457.334" y="437.833"/>
      <point x="450.334" y="435.833" type="curve"/>
      <point x="442.334" y="432.833"/>
      <point x="430.167" y="430"/>
      <point x="416.001" y="430" type="curve" smooth="yes"/>
      <point x="407.667" y="430"/>
      <point x="393.001" y="431"/>
      <point x="375.834" y="434" type="curve"/>
      <point x="360.334" y="437.167"/>
      <point x="342.167" y="439"/>
      <point x="328.5" y="439" type="curve" smooth="yes"/>
      <point x="191.5" y="439"/>
      <point x="72.667" y="250.834"/>
      <point x="72.667" y="123.834" type="curve" smooth="yes"/>
      <point x="72.667" y="59"/>
      <point x="92.667" y="-10"/>
      <point x="162.834" y="-10" type="curve" smooth="yes"/>
      <point x="224" y="-10"/>
      <point x="278.834" y="42.334"/>
      <point x="339.667" y="132.834" type="curve"/>
      <point x="342" y="130.834" type="line"/>
      <point x="334.5" y="110.334" type="line" smooth="yes"/>
      <point x="327.167" y="90.167"/>
      <point x="320.667" y="59"/>
      <point x="320.667" y="40.5" type="curve" smooth="yes"/>
      <point x="320.667" y="11.333"/>
      <point x="334.834" y="-10"/>
      <point x="366.167" y="-10" type="curve" smooth="yes"/>
      <point x="414.834" y="-10"/>
      <point x="472.667" y="31.834"/>
      <point x="500.001" y="86.167" type="curve"/>
      <point x="495.334" y="95.167"/>
      <point x="489.167" y="104.167"/>
      <point x="476.001" y="104.167" type="curve"/>
      <point x="449.167" y="68.334"/>
      <point x="427.667" y="52.167"/>
      <point x="417.667" y="52.167" type="curve" smooth="yes"/>
      <point x="413.834" y="52.167"/>
      <point x="405.834" y="55.167"/>
      <point x="405.834" y="70" type="curve" smooth="yes"/>
      <point x="405.834" y="75.334"/>
      <point x="407.001" y="83.167"/>
      <point x="415.334" y="120.667" type="curve" smooth="yes"/>
      <point x="458.167" y="314.167" type="line" smooth="yes"/>
      <point x="470.167" y="366.5"/>
      <point x="473.834" y="384.834"/>
      <point x="484.167" y="423.333" type="curve"/>
      <point x="484.167" y="433.167"/>
      <point x="478.667" y="439"/>
    </contour>
    <contour>
      <point x="356" y="220.167" type="curve"/>
      <point x="331.167" y="175.167"/>
      <point x="249.5" y="51.667"/>
      <point x="199" y="51.667" type="curve" smooth="yes"/>
      <point x="164" y="51.667"/>
      <point x="160.167" y="109.667"/>
      <point x="160.167" y="141.5" type="curve" smooth="yes"/>
      <point x="160.167" y="225.167"/>
      <point x="229" y="406.167"/>
      <point x="334.167" y="406.167" type="curve" smooth="yes"/>
      <point x="355" y="406.167"/>
      <point x="374.334" y="399.334"/>
      <point x="390.501" y="387.167" type="curve"/>
      <point x="389.334" y="369.334"/>
      <point x="381.001" y="284.167"/>
    </contour>
  </outline>
</glyph>
<glyph name="b" format="2">
  <advance width="485"/>
  <unicode hex="0062"/>
  <anchor x="396" y="740" name="t.uni0302"/>
  <anchor x="201" y="-60" name="b.minus-60"/>
  <outline>
    <contour>
      <point x="99.1667" y="78.6667" type="curve" smooth="yes"/>
      <point x="99.1667" y="30.6667"/>
      <point x="130" y="-10"/>
      <point x="204.333" y="-10" type="curve" smooth="yes"/>
      <point x="345.667" y="-10"/>
      <point x="501.833" y="190.333"/>
      <point x="501.833" y="320" type="curve" smooth="yes"/>
      <point x="501.833" y="394"/>
      <point x="480.5" y="439"/>
      <point x="398.667" y="439" type="curve" smooth="yes"/>
      <point x="328.833" y="439"/>
      <point x="275.5" y="378.667"/>
      <point x="239.5" y="335" type="curve"/>
      <point x="212.667" y="335" type="line"/>
      <point x="212.667" y="262.667" type="line"/>
      <point x="283.667" y="355.333"/>
      <point x="320.667" y="385.333"/>
      <point x="360.667" y="385.333" type="curve" smooth="yes"/>
      <point x="405.667" y="385.333"/>
      <point x="412" y="333.167"/>
      <point x="412" y="300.667" type="curve" smooth="yes"/>
      <point x="412" y="167"/>
      <point x="298.167" y="27.8333"/>
      <point x="220" y="27.8333" type="curve" smooth="yes"/>
      <point x="193.833" y="27.8333"/>
      <point x="182.833" y="44"/>
      <point x="182.833" y="74.8333" type="curve" smooth="yes"/>
      <point x="182.833" y="90.3333"/>
      <point x="185.667" y="110"/>
      <point x="190.667" y="132" type="curve" smooth="yes"/>
      <point x="292.333" y="583" type="line" smooth="yes"/>
      <point x="300.5" y="618.667"/>
      <point x="308.833" y="652"/>
      <point x="320.333" y="686.667" type="curve"/>
      <point x="320.333" y="694.333"/>
      <point x="317" y="698"/>
      <point x="307.167" y="698" type="curve"/>
      <point x="283" y="689.667"/>
      <point x="192.333" y="674"/>
      <point x="156.333" y="672" type="curve"/>
      <point x="153.167" y="662.667"/>
      <point x="151.333" y="651.833"/>
      <point x="151.333" y="642.167" type="curve"/>
      <point x="196.833" y="640.167"/>
      <point x="212" y="632.167"/>
      <point x="212" y="608.833" type="curve" smooth="yes"/>
      <point x="212" y="600.5"/>
      <point x="210" y="584.167"/>
      <point x="205.167" y="563" type="curve" smooth="yes"/>
      <point x="107.333" y="126.333" type="line"/>
      <point x="102.833" y="112.167"/>
      <point x="99.1667" y="95"/>
    </contour>
  </outline>
</glyph>
<glyph name="c" format="2">
  <advance width="397"/>
  <unicode hex="0063"/>
  <anchor x="343" y="500" name="t.uni0302"/>
  <anchor x="225.667" y="10" name="b.cedilla"/>
  <anchor x="169.333" y="-60" name="b.minus-60"/>
  <outline>
    <contour>
      <point x="398.5" y="105.333" type="curve"/>
      <point x="396" y="115.5"/>
      <point x="385.5" y="124.666"/>
      <point x="376.667" y="124.666" type="curve"/>
      <point x="328.5" y="73.5"/>
      <point x="291.333" y="51.833"/>
      <point x="254.5" y="51.833" type="curve" smooth="yes"/>
      <point x="201.5" y="51.833"/>
      <point x="171.5" y="95"/>
      <point x="171.5" y="179" type="curve" smooth="yes"/>
      <point x="171.5" y="299.833"/>
      <point x="233.667" y="406.167"/>
      <point x="311.333" y="406.167" type="curve" smooth="yes"/>
      <point x="339.167" y="406.167"/>
      <point x="356.5" y="392.667"/>
      <point x="356.5" y="370.5" type="curve" smooth="yes"/>
      <point x="356.5" y="353.5"/>
      <point x="347.333" y="344"/>
      <point x="347.333" y="329.334" type="curve" smooth="yes"/>
      <point x="347.333" y="309.333"/>
      <point x="363" y="294"/>
      <point x="384" y="294" type="curve" smooth="yes"/>
      <point x="409.333" y="294"/>
      <point x="431.833" y="317.333"/>
      <point x="431.833" y="344.834" type="curve" smooth="yes"/>
      <point x="431.833" y="408.334"/>
      <point x="394.5" y="439"/>
      <point x="318.167" y="439" type="curve" smooth="yes"/>
      <point x="192.667" y="439"/>
      <point x="81.167" y="302.5"/>
      <point x="81.167" y="152.167" type="curve" smooth="yes"/>
      <point x="81.167" y="51"/>
      <point x="131.333" y="-10"/>
      <point x="213.333" y="-10" type="curve" smooth="yes"/>
      <point x="276.667" y="-10"/>
      <point x="345.5" y="32.666"/>
    </contour>
  </outline>
</glyph>
<glyph name="d" format="2">
  <advance width="501"/>
  <unicode hex="0064"/>
  <anchor x="426" y="740" name="t.uni0302"/>
  <anchor x="225.5" y="-60" name="b.minus-60"/>
  <outline>
    <contour>
      <point x="77.167" y="129.166" type="curve" smooth="yes"/>
      <point x="77.167" y="74.333"/>
      <point x="94.167" y="-10"/>
      <point x="177.667" y="-10" type="curve" smooth="yes"/>
      <point x="235.167" y="-10"/>
      <point x="282.167" y="30"/>
      <point x="342.167" y="118" type="curve"/>
      <point x="345" y="116.166" type="line"/>
      <point x="339" y="93.666" type="line" smooth="yes"/>
      <point x="332.834" y="68"/>
      <point x="329.167" y="48.833"/>
      <point x="329.167" y="36" type="curve" smooth="yes"/>
      <point x="329.167" y="15.5"/>
      <point x="337.5" y="-10"/>
      <point x="381" y="-10" type="curve" smooth="yes"/>
      <point x="435.167" y="-10"/>
      <point x="478.667" y="30"/>
      <point x="508.667" y="86.666" type="curve"/>
      <point x="504" y="95.666"/>
      <point x="497.833" y="104.666"/>
      <point x="484.667" y="104.666" type="curve"/>
      <point x="457.833" y="68.833"/>
      <point x="436.333" y="52.666"/>
      <point x="426.333" y="52.666" type="curve" smooth="yes"/>
      <point x="422.5" y="52.666"/>
      <point x="414.5" y="55.666"/>
      <point x="414.5" y="67" type="curve" smooth="yes"/>
      <point x="414.5" y="72.833"/>
      <point x="416" y="87.166"/>
      <point x="424" y="121.166" type="curve" smooth="yes"/>
      <point x="530" y="583" type="line" smooth="yes"/>
      <point x="543.833" y="642.666"/>
      <point x="553.167" y="681.166"/>
      <point x="554.667" y="686.333" type="curve"/>
      <point x="554.667" y="694"/>
      <point x="551.667" y="698"/>
      <point x="541" y="698" type="curve"/>
      <point x="512.833" y="687.333"/>
      <point x="435.667" y="674.5"/>
      <point x="394" y="672" type="curve"/>
      <point x="388.833" y="662.5"/>
      <point x="386.833" y="652"/>
      <point x="389.833" y="642.166" type="curve"/>
      <point x="430.167" y="642.166"/>
      <point x="449.5" y="637.333"/>
      <point x="449.5" y="609.5" type="curve" smooth="yes"/>
      <point x="449.5" y="600.333"/>
      <point x="447.5" y="584"/>
      <point x="442.667" y="563" type="curve" smooth="yes"/>
      <point x="405" y="382.666" type="line"/>
      <point x="404" y="382.666" type="line"/>
      <point x="392" y="412.666"/>
      <point x="363.167" y="439"/>
      <point x="321" y="439" type="curve" smooth="yes"/>
      <point x="210.167" y="439"/>
      <point x="77.167" y="285.833"/>
    </contour>
    <contour>
      <point x="164.167" y="148.833" type="curve" smooth="yes"/>
      <point x="164.167" y="255"/>
      <point x="237.167" y="400.333"/>
      <point x="327.334" y="400.333" type="curve" smooth="yes"/>
      <point x="366.834" y="400.333"/>
      <point x="390.667" y="349.166"/>
      <point x="390.667" y="317.5" type="curve"/>
      <point x="388" y="246.666"/>
      <point x="270.334" y="39.333"/>
      <point x="205" y="39.333" type="curve" smooth="yes"/>
      <point x="172" y="39.333"/>
      <point x="164.167" y="94"/>
    </contour>
  </outline>
</glyph>
<glyph name="e" format="2">
  <advance width="398"/>
  <unicode hex="0065"/>
  <anchor x="325.333" y="500" name="t.uni0302"/>
  <anchor x="273.167" y="10" name="b.ogonek"/>
  <anchor x="217.333" y="10" name="b.cedilla"/>
  <anchor x="187.167" y="-60" name="b.minus-60"/>
  <outline>
    <contour>
      <point x="164" y="199" type="curve"/>
      <point x="411.333" y="247.667"/>
      <point x="422" y="318"/>
      <point x="422" y="363.834" type="curve" smooth="yes"/>
      <point x="422" y="412.167"/>
      <point x="373.5" y="439"/>
      <point x="321.667" y="439" type="curve" smooth="yes"/>
      <point x="145.166" y="439"/>
      <point x="72.3333" y="268.834"/>
      <point x="72.3333" y="145.833" type="curve" smooth="yes"/>
      <point x="72.3333" y="57"/>
      <point x="109.999" y="-10"/>
      <point x="202.5" y="-10" type="curve" smooth="yes"/>
      <point x="266.167" y="-10"/>
      <point x="330" y="24.667"/>
      <point x="389" y="100.667" type="curve"/>
      <point x="384" y="111.667"/>
      <point x="376.5" y="118.167"/>
      <point x="364.5" y="118.167" type="curve"/>
      <point x="307.5" y="60.167"/>
      <point x="283.167" y="50"/>
      <point x="235.166" y="50" type="curve" smooth="yes"/>
      <point x="191.166" y="50"/>
      <point x="163" y="78"/>
      <point x="163" y="165" type="curve" smooth="yes"/>
      <point x="163" y="170"/>
      <point x="163" y="191"/>
    </contour>
    <contour>
      <point x="345.667" y="366.834" type="curve" smooth="yes"/>
      <point x="345.667" y="279.834"/>
      <point x="243.166" y="246.667"/>
      <point x="171" y="236.834" type="curve"/>
      <point x="205.833" y="378.667"/>
      <point x="258" y="406.167"/>
      <point x="305.833" y="406.167" type="curve" smooth="yes"/>
      <point x="333" y="406.167"/>
      <point x="345.667" y="397.334"/>
    </contour>
  </outline>
</glyph>
<glyph name="f" format="2">
  <advance width="328"/>
  <unicode hex="0066"/>
  <anchor x="415.167" y="740" name="t.uni0302"/>
  <outline>
    <contour>
      <point x="188.5" y="388.667" type="line"/>
      <point x="168.167" y="274.834"/>
      <point x="157.5" y="216"/>
      <point x="147.5" y="141" type="curve" smooth="yes"/>
      <point x="139.333" y="80.333"/>
      <point x="120.833" y="-201.667"/>
      <point x="33.167" y="-201.667" type="curve" smooth="yes"/>
      <point x="19.333" y="-201.667"/>
      <point x="14.167" y="-193.667"/>
      <point x="7.667" y="-183" type="curve"/>
      <point x="-2.167" y="-168"/>
      <point x="-21.5" y="-150.334"/>
      <point x="-43.667" y="-150.334" type="curve" smooth="yes"/>
      <point x="-72.5" y="-150.334"/>
      <point x="-82" y="-170.5"/>
      <point x="-82" y="-188" type="curve" smooth="yes"/>
      <point x="-82" y="-210.834"/>
      <point x="-56.667" y="-237.167"/>
      <point x="13.667" y="-237.167" type="curve" smooth="yes"/>
      <point x="173.333" y="-237.167"/>
      <point x="203.833" y="18.333"/>
      <point x="227.333" y="130" type="curve" smooth="yes"/>
      <point x="243.5" y="208"/>
      <point x="259.167" y="286"/>
      <point x="274.167" y="370.667" type="curve" smooth="yes"/>
      <point x="277.333" y="388.667" type="line"/>
      <point x="370.333" y="388.667" type="line" smooth="yes"/>
      <point x="379.333" y="388.667"/>
      <point x="394.333" y="392.667"/>
      <point x="396.333" y="400.667" type="curve"/>
      <point x="396.333" y="400.667"/>
      <point x="401.333" y="423"/>
      <point x="401.333" y="424" type="curve"/>
      <point x="401.333" y="427"/>
      <point x="399.333" y="429"/>
      <point x="394.333" y="429" type="curve" smooth="yes"/>
      <point x="284.333" y="429" type="line"/>
      <point x="295.333" y="486" type="line" smooth="yes"/>
      <point x="307.667" y="550.167"/>
      <point x="342" y="663.5"/>
      <point x="406" y="663.5" type="curve" smooth="yes"/>
      <point x="429.5" y="663.5"/>
      <point x="441.333" y="657.5"/>
      <point x="446.5" y="635.5" type="curve"/>
      <point x="450.667" y="612.667"/>
      <point x="459" y="584.167"/>
      <point x="494.167" y="584.167" type="curve" smooth="yes"/>
      <point x="526.167" y="584.167"/>
      <point x="534.5" y="609.5"/>
      <point x="534.5" y="621.5" type="curve" smooth="yes"/>
      <point x="534.5" y="666.167"/>
      <point x="478.667" y="698.333"/>
      <point x="410.5" y="698.333" type="curve" smooth="yes"/>
      <point x="269.167" y="698.333"/>
      <point x="221.667" y="541.333"/>
      <point x="198.5" y="429" type="curve"/>
      <point x="132.5" y="426" type="line" smooth="yes"/>
      <point x="113.5" y="425"/>
      <point x="106.5" y="417"/>
      <point x="104.5" y="409" type="curve"/>
      <point x="103.5" y="406"/>
      <point x="100.5" y="392.667"/>
      <point x="100.5" y="390.667" type="curve" smooth="yes"/>
      <point x="100.5" y="388.667"/>
      <point x="103.5" y="388.667"/>
      <point x="106.5" y="388.667" type="curve" smooth="yes"/>
    </contour>
  </outline>
</glyph>
<glyph name="g" format="2">
  <advance width="480"/>
  <unicode hex="0067"/>
  <anchor x="299.833" y="500" name="t.uni0302"/>
  <outline>
    <contour>
      <point x="420" y="291" type="curve" smooth="yes"/>
      <point x="420" y="318"/>
      <point x="414.333" y="353.167"/>
      <point x="400.333" y="373.167" type="curve"/>
      <point x="415.333" y="387.167"/>
      <point x="438.5" y="398.833"/>
      <point x="445.833" y="398.833" type="curve" smooth="yes"/>
      <point x="455" y="398.833"/>
      <point x="458.167" y="393.667"/>
      <point x="461.333" y="388.5" type="curve" smooth="yes"/>
      <point x="466.5" y="380.167"/>
      <point x="473.667" y="370.833"/>
      <point x="490.167" y="370.833" type="curve" smooth="yes"/>
      <point x="508.833" y="370.833"/>
      <point x="522.167" y="385.333"/>
      <point x="522.167" y="405" type="curve" smooth="yes"/>
      <point x="522.167" y="423.667"/>
      <point x="505.667" y="440.167"/>
      <point x="482" y="440.167" type="curve" smooth="yes"/>
      <point x="455" y="440.167"/>
      <point x="417.833" y="429.833"/>
      <point x="382.833" y="397.833" type="curve"/>
      <point x="360.833" y="423.833" name=".hr01"/>
      <point x="325.667" y="439"/>
      <point x="281.667" y="439" type="curve" smooth="yes"/>
      <point x="170.667" y="439"/>
      <point x="123.5" y="364.333"/>
      <point x="122.5" y="285.167" type="curve"/>
      <point x="122.333" y="284.5"/>
      <point x="122.333" y="283.667"/>
      <point x="122.333" y="283" type="curve"/>
      <point x="122.333" y="239"/>
      <point x="141.167" y="195.5"/>
      <point x="170" y="165" type="curve"/>
      <point x="142" y="138.5"/>
      <point x="115" y="92.5" name=".hr02"/>
      <point x="114.5" y="58" type="curve"/>
      <point x="114.333" y="57.3333"/>
      <point x="114.333" y="56.6667"/>
      <point x="114.333" y="56" type="curve"/>
      <point x="114.333" y="44.8333"/>
      <point x="115.167" y="20.6667"/>
      <point x="142" y="6.33333" type="curve"/>
      <point x="89" y="-22.6667"/>
      <point x="5.33333" y="-76"/>
      <point x="5.33333" y="-136" type="curve" smooth="yes"/>
      <point x="5.33333" y="-217"/>
      <point x="119.667" y="-238"/>
      <point x="200.667" y="-238" type="curve" smooth="yes"/>
      <point x="337.667" y="-238"/>
      <point x="432" y="-199"/>
      <point x="432" y="-100" type="curve" smooth="yes"/>
      <point x="432" y="-35.8333"/>
      <point x="382.333" y="-1.5"/>
      <point x="328.833" y="15" type="curve" smooth="yes"/>
      <point x="323" y="16.8333"/>
      <point x="317.333" y="18.8333"/>
      <point x="311.667" y="19.8333" type="curve"/>
      <point x="242.5" y="38.8333"/>
      <point x="186.5" y="46.8333"/>
      <point x="177.833" y="79.6667" type="curve"/>
      <point x="177" y="82.1667"/>
      <point x="177" y="84.6667"/>
      <point x="177" y="88" type="curve"/>
      <point x="176" y="107.833"/>
      <point x="187.667" y="132"/>
      <point x="196.667" y="149" type="curve"/>
      <point x="212.667" y="139"/>
      <point x="236.667" y="132"/>
      <point x="264.667" y="132" type="curve" smooth="yes"/>
      <point x="351.667" y="132"/>
      <point x="420" y="192" name=".hr03"/>
    </contour>
    <contour>
      <point x="162.667" y="-4.66667" type="curve"/>
      <point x="180.333" y="-8.66667"/>
      <point x="248.167" y="-31.1667"/>
      <point x="281.667" y="-46.3333" type="curve" smooth="yes"/>
      <point x="288.167" y="-49.1667"/>
      <point x="294.667" y="-52"/>
      <point x="300.333" y="-55.6667" type="curve"/>
      <point x="344.667" y="-78.3333"/>
      <point x="360.333" y="-96.5"/>
      <point x="360.333" y="-127" type="curve" smooth="yes" name=".hr04"/>
      <point x="360.333" y="-163.667"/>
      <point x="329.167" y="-204.167"/>
      <point x="241.667" y="-204.167" type="curve" smooth="yes"/>
      <point x="129.667" y="-204.167"/>
      <point x="77.3333" y="-168"/>
      <point x="77.3333" y="-113" type="curve" smooth="yes"/>
      <point x="77.3333" y="-65"/>
      <point x="137.667" y="-22.6667"/>
    </contour>
    <contour>
      <point x="339.333" y="291" type="curve" smooth="yes"/>
      <point x="339.333" y="284.167"/>
      <point x="339.333" y="276.5" name=".hr05"/>
      <point x="338.5" y="269.667" type="curve"/>
      <point x="336.167" y="214.833"/>
      <point x="322.833" y="163.667"/>
      <point x="269.667" y="163.667" type="curve" smooth="yes"/>
      <point x="216.667" y="163.667"/>
      <point x="205.167" y="217.333"/>
      <point x="203.833" y="263" type="curve"/>
      <point x="203" y="269.833"/>
      <point x="203" y="276"/>
      <point x="203" y="282" type="curve" smooth="yes"/>
      <point x="203" y="289.833"/>
      <point x="203" y="297.667"/>
      <point x="203.833" y="304.667" type="curve"/>
      <point x="205.333" y="365.5"/>
      <point x="218.667" y="407.333"/>
      <point x="277.667" y="407.333" type="curve" smooth="yes"/>
      <point x="320.667" y="407.333"/>
      <point x="339.333" y="359"/>
    </contour>
  </outline>
</glyph>
<glyph name="h" format="2">
  <advance width="540"/>
  <unicode hex="0068"/>
  <anchor x="415.167" y="740" name="t.uni0302"/>
  <anchor x="133.833" y="10" name="b.cedilla"/>
  <anchor x="250.333" y="-60" name="b.minus-60"/>
  <outline>
    <contour>
      <point x="174.833" y="27.8333" type="curve" smooth="yes"/>
      <point x="298.833" y="583" type="line" smooth="yes"/>
      <point x="310.333" y="635.5"/>
      <point x="315.5" y="657.833"/>
      <point x="323.833" y="686.5" type="curve"/>
      <point x="323.833" y="694.5"/>
      <point x="319.667" y="698"/>
      <point x="310" y="698" type="curve"/>
      <point x="267.667" y="684.167"/>
      <point x="207.333" y="675.833"/>
      <point x="162.833" y="672" type="curve"/>
      <point x="158.667" y="665"/>
      <point x="155.667" y="652.167"/>
      <point x="157.833" y="642.167" type="curve"/>
      <point x="200.5" y="638.333"/>
      <point x="218.333" y="628.167"/>
      <point x="218.333" y="607.667" type="curve" smooth="yes"/>
      <point x="218.333" y="600.667"/>
      <point x="216.333" y="584.167"/>
      <point x="211.5" y="563" type="curve" smooth="yes"/>
      <point x="90.5" y="23.1667" type="line" smooth="yes"/>
      <point x="87.1667" y="8.5"/>
      <point x="100.833" y="0"/>
      <point x="110.833" y="0" type="curve" smooth="yes"/>
      <point x="140.333" y="0" type="line" smooth="yes"/>
      <point x="157.5" y="0"/>
      <point x="171" y="9.33333"/>
    </contour>
    <contour>
      <point x="209.5" y="220.667" type="line"/>
      <point x="244.333" y="267.167"/>
      <point x="331.667" y="377.333"/>
      <point x="390.167" y="377.333" type="curve" smooth="yes"/>
      <point x="404" y="377.333"/>
      <point x="418" y="371.5"/>
      <point x="418" y="338" type="curve" smooth="yes"/>
      <point x="418" y="326.5"/>
      <point x="416.167" y="309"/>
      <point x="408.167" y="275" type="curve" smooth="yes"/>
      <point x="370.333" y="115" type="line" smooth="yes"/>
      <point x="362.333" y="82.5"/>
      <point x="354.5" y="45.5"/>
      <point x="354.5" y="27.3333" type="curve" smooth="yes"/>
      <point x="354.5" y="6.16667"/>
      <point x="365.5" y="-10"/>
      <point x="397.333" y="-10" type="curve" smooth="yes"/>
      <point x="449" y="-10"/>
      <point x="498" y="23.8333"/>
      <point x="544" y="82.8333" type="curve"/>
      <point x="541" y="91.8333"/>
      <point x="534" y="101.667"/>
      <point x="520" y="101.667" type="curve"/>
      <point x="494" y="71.6667"/>
      <point x="464.167" y="52.1667"/>
      <point x="453.333" y="52.1667" type="curve" smooth="yes"/>
      <point x="447.167" y="52.1667"/>
      <point x="444.167" y="57.5"/>
      <point x="444.167" y="66.8333" type="curve" smooth="yes"/>
      <point x="444.167" y="78"/>
      <point x="448.5" y="98.5"/>
      <point x="454.333" y="124" type="curve" smooth="yes"/>
      <point x="492.333" y="283" type="line" smooth="yes"/>
      <point x="500.333" y="318"/>
      <point x="505.333" y="341"/>
      <point x="505.333" y="363.167" type="curve" smooth="yes"/>
      <point x="505.333" y="417.833"/>
      <point x="474.333" y="439"/>
      <point x="431.333" y="439" type="curve" smooth="yes"/>
      <point x="381.5" y="439"/>
      <point x="317.5" y="409.333"/>
      <point x="221.333" y="293" type="curve"/>
    </contour>
  </outline>
</glyph>
<glyph name="i" format="2">
  <advance width="277"/>
  <unicode hex="0069"/>
  <anchor x="199.5" y="10" name="b.ogonek"/>
  <anchor x="145.5" y="-60" name="b.minus-60"/>
  <outline>
    <contour>
      <point x="191.833" y="573.999" type="curve" smooth="yes"/>
      <point x="191.833" y="544.5"/>
      <point x="212.833" y="523.333"/>
      <point x="242.499" y="523.333" type="curve" smooth="yes"/>
      <point x="272.666" y="523.333"/>
      <point x="293.166" y="544.5"/>
      <point x="293.166" y="573.999" type="curve" smooth="yes"/>
      <point x="293.166" y="603.666"/>
      <point x="272.666" y="624.666"/>
      <point x="242.499" y="624.666" type="curve" smooth="yes"/>
      <point x="212.833" y="624.666"/>
      <point x="191.833" y="603.666"/>
    </contour>
    <contour>
      <point x="145.166" y="249.833" type="line"/>
      <point x="114.5" y="114.833" type="line" smooth="yes"/>
      <point x="100.666" y="55"/>
      <point x="98.666" y="42"/>
      <point x="98.666" y="31.333" type="curve" smooth="yes"/>
      <point x="98.666" y="6"/>
      <point x="109.666" y="-10.167"/>
      <point x="141.5" y="-10.167" type="curve" smooth="yes"/>
      <point x="193.166" y="-10.167"/>
      <point x="242.166" y="23.667"/>
      <point x="288.166" y="82.667" type="curve"/>
      <point x="285.166" y="91.667"/>
      <point x="278.166" y="101.5"/>
      <point x="264.166" y="101.5" type="curve"/>
      <point x="238.166" y="71.5"/>
      <point x="208.333" y="52"/>
      <point x="197.5" y="52" type="curve" smooth="yes"/>
      <point x="191.333" y="52"/>
      <point x="188.166" y="57.333"/>
      <point x="188.166" y="66.333" type="curve" smooth="yes"/>
      <point x="188.166" y="77.833"/>
      <point x="193" y="100"/>
      <point x="198.5" y="123.833" type="curve" smooth="yes"/>
      <point x="227.166" y="249.833" type="line"/>
    </contour>
    <contour>
      <point x="145.166" y="249.833" type="line"/>
      <point x="227.166" y="249.833" type="line"/>
      <point x="242.999" y="319.833" type="line" smooth="yes"/>
      <point x="256.166" y="379"/>
      <point x="267.333" y="406"/>
      <point x="267.333" y="420.5" type="curve" smooth="yes"/>
      <point x="267.333" y="430.833"/>
      <point x="262.166" y="436"/>
      <point x="254.499" y="436" type="curve"/>
      <point x="222.666" y="429.333"/>
      <point x="158.166" y="424.666"/>
      <point x="111" y="423" type="curve"/>
      <point x="104" y="415"/>
      <point x="105.5" y="402.166"/>
      <point x="111.5" y="393.166" type="curve"/>
      <point x="151.5" y="390.166" type="line" smooth="yes"/>
      <point x="163.5" y="389.166"/>
      <point x="169.5" y="380.166"/>
      <point x="169.5" y="369" type="curve" smooth="yes"/>
      <point x="169.5" y="361.166"/>
      <point x="166.666" y="347.333"/>
      <point x="161" y="320.833" type="curve" smooth="yes"/>
    </contour>
  </outline>
</glyph>
<glyph name="j" format="2">
  <advance width="266"/>
  <unicode hex="006A"/>
  <outline>
    <contour>
      <point x="202.667" y="574" type="curve" smooth="yes"/>
      <point x="202.667" y="544.5"/>
      <point x="223.667" y="523.333"/>
      <point x="253.333" y="523.333" type="curve" smooth="yes"/>
      <point x="283.5" y="523.333"/>
      <point x="304" y="544.5"/>
      <point x="304" y="574" type="curve" smooth="yes"/>
      <point x="304" y="603.667"/>
      <point x="283.5" y="624.667"/>
      <point x="253.333" y="624.667" type="curve" smooth="yes"/>
      <point x="223.667" y="624.667"/>
      <point x="202.667" y="603.667"/>
    </contour>
    <contour>
      <point x="116" y="64.3333" type="line" smooth="yes"/>
      <point x="83.6667" y="-81.1667"/>
      <point x="62.8333" y="-162"/>
      <point x="25.6667" y="-162" type="curve" smooth="yes"/>
      <point x="-3" y="-162"/>
      <point x="-1.66667" y="-114"/>
      <point x="-53.5" y="-114" type="curve" smooth="yes"/>
      <point x="-67.3333" y="-114"/>
      <point x="-84.1667" y="-124.833"/>
      <point x="-84.1667" y="-147.333" type="curve" smooth="yes"/>
      <point x="-84.1667" y="-181.833"/>
      <point x="-44" y="-197.833"/>
      <point x="2.5" y="-197.833" type="curve" smooth="yes"/>
      <point x="108.5" y="-197.833"/>
      <point x="157.167" y="-113.333"/>
      <point x="187.5" y="20" type="curve" smooth="yes"/>
      <point x="239.667" y="249.833" type="line"/>
      <point x="157.667" y="249.833" type="line"/>
    </contour>
    <contour>
      <point x="157.667" y="249.833" type="line"/>
      <point x="239.667" y="249.833" type="line"/>
      <point x="255.5" y="319.833" type="line" smooth="yes"/>
      <point x="268.667" y="379"/>
      <point x="279.833" y="406"/>
      <point x="279.833" y="420.5" type="curve" smooth="yes"/>
      <point x="279.833" y="430.833"/>
      <point x="274.667" y="436"/>
      <point x="267" y="436" type="curve"/>
      <point x="235.167" y="429.333"/>
      <point x="170.667" y="424.667"/>
      <point x="123.5" y="423" type="curve"/>
      <point x="116.5" y="415"/>
      <point x="118" y="402.167"/>
      <point x="124" y="393.167" type="curve"/>
      <point x="164" y="390.167" type="line" smooth="yes"/>
      <point x="176" y="389.167"/>
      <point x="182" y="380.167"/>
      <point x="182" y="369" type="curve" smooth="yes"/>
      <point x="182" y="361.167"/>
      <point x="179.167" y="347.333"/>
      <point x="173.5" y="320.833" type="curve" smooth="yes"/>
    </contour>
  </outline>
</glyph>
<glyph name="k" format="2">
  <advance width="498"/>
  <unicode hex="006B"/>
  <anchor x="406.167" y="740" name="t.uni0302"/>
  <anchor x="247.667" y="-60" name="b.minus-60"/>
  <outline>
    <contour>
      <point x="199.333" y="229.833" type="line"/>
      <point x="210.5" y="237"/>
      <point x="220" y="237"/>
      <point x="229.333" y="237" type="curve" smooth="yes"/>
      <point x="237.333" y="237"/>
      <point x="244.333" y="230"/>
      <point x="249.333" y="221" type="curve" smooth="yes"/>
      <point x="267.333" y="189"/>
      <point x="277.333" y="138"/>
      <point x="297.333" y="93" type="curve" smooth="yes"/>
      <point x="327.833" y="26"/>
      <point x="352" y="-5.83333"/>
      <point x="388" y="-9.16667" type="curve"/>
      <point x="391.167" y="-10"/>
      <point x="395.167" y="-10"/>
      <point x="398.333" y="-10" type="curve"/>
      <point x="434.5" y="-9.33333"/>
      <point x="472" y="21"/>
      <point x="503.333" y="77" type="curve"/>
      <point x="496.333" y="85"/>
      <point x="491" y="90.6667"/>
      <point x="480" y="90.6667" type="curve"/>
      <point x="460" y="61.6667"/>
      <point x="439.167" y="43.6667"/>
      <point x="428.167" y="43.6667" type="curve" smooth="yes"/>
      <point x="412.333" y="43.6667"/>
      <point x="404.667" y="56.3333"/>
      <point x="397.667" y="71.6667" type="curve"/>
      <point x="396" y="75"/>
      <point x="394.333" y="78.3333"/>
      <point x="392.667" y="81.6667" type="curve" smooth="yes"/>
      <point x="370.5" y="128.5"/>
      <point x="358.167" y="161.5"/>
      <point x="346.667" y="188.667" type="curve"/>
      <point x="343.333" y="194.333"/>
      <point x="341" y="200.667"/>
      <point x="337.667" y="206.167" type="curve"/>
      <point x="322.167" y="235"/>
      <point x="314.667" y="249.167"/>
      <point x="283.167" y="257.667" type="curve"/>
      <point x="283" y="261.667" type="line"/>
      <point x="331.5" y="304.667" type="line" smooth="yes"/>
      <point x="341.833" y="314"/>
      <point x="351.333" y="321.667"/>
      <point x="360" y="329.333" type="curve"/>
      <point x="391.167" y="354.833"/>
      <point x="411" y="365.167"/>
      <point x="427.667" y="365.167" type="curve" smooth="yes"/>
      <point x="438" y="365.167"/>
      <point x="444" y="362.5"/>
      <point x="449.333" y="358.5" type="curve"/>
      <point x="457.5" y="353.5"/>
      <point x="465.833" y="346.667" name=".hr01"/>
      <point x="485.333" y="346.667" type="curve" smooth="yes"/>
      <point x="500.667" y="346.667"/>
      <point x="524.333" y="363.5"/>
      <point x="531" y="388.333" type="curve"/>
      <point x="531.833" y="392.333"/>
      <point x="532.667" y="397.167"/>
      <point x="532.5" y="401.833" type="curve" smooth="yes"/>
      <point x="531.667" y="429.167"/>
      <point x="509.833" y="439"/>
      <point x="481" y="439" type="curve" smooth="yes"/>
      <point x="449" y="439"/>
      <point x="386.333" y="401"/>
      <point x="314.333" y="337" type="curve"/>
      <point x="281" y="308.833" type="line"/>
      <point x="278" y="306.667"/>
      <point x="275.833" y="303.833"/>
      <point x="272.833" y="301.667" type="curve"/>
      <point x="252.5" y="284.5"/>
      <point x="227.333" y="265.667"/>
      <point x="202.833" y="274.833" type="curve"/>
    </contour>
    <contour>
      <point x="163.333" y="27.8333" type="curve" smooth="yes"/>
      <point x="287.333" y="583" type="line" smooth="yes"/>
      <point x="298.833" y="635.5"/>
      <point x="304" y="657.833"/>
      <point x="312.333" y="686.5" type="curve"/>
      <point x="312.333" y="694.5"/>
      <point x="308.167" y="698"/>
      <point x="298.5" y="698" type="curve"/>
      <point x="256.167" y="684.167"/>
      <point x="195.833" y="675.833"/>
      <point x="151.333" y="672" type="curve"/>
      <point x="147.167" y="665"/>
      <point x="144.167" y="652.167"/>
      <point x="146.333" y="642.167" type="curve"/>
      <point x="189" y="638.333"/>
      <point x="206.833" y="628.167"/>
      <point x="206.833" y="607.667" type="curve" smooth="yes"/>
      <point x="206.833" y="600.667"/>
      <point x="204.833" y="584.167"/>
      <point x="200" y="563" type="curve" smooth="yes"/>
      <point x="79" y="23.1667" type="line" smooth="yes"/>
      <point x="75.6667" y="8.5"/>
      <point x="89.3333" y="0"/>
      <point x="99.3333" y="0" type="curve" smooth="yes"/>
      <point x="128.833" y="0" type="line" smooth="yes"/>
      <point x="146" y="0"/>
      <point x="159.5" y="9.33333"/>
    </contour>
  </outline>
</glyph>
<glyph name="l" format="2">
  <advance width="276"/>
  <unicode hex="006C"/>
  <anchor x="274.667" y="740" name="t.uni0302"/>
  <anchor x="131.667" y="-60" name="b.minus-60"/>
  <outline>
    <contour>
      <point x="196" y="511.834" type="line"/>
      <point x="108" y="118.834" type="line" smooth="yes"/>
      <point x="102.167" y="92.5"/>
      <point x="94.667" y="53"/>
      <point x="94.667" y="36.167" type="curve" smooth="yes"/>
      <point x="94.667" y="14.833"/>
      <point x="101.167" y="-10"/>
      <point x="138.167" y="-10" type="curve" smooth="yes"/>
      <point x="187.334" y="-10"/>
      <point x="244.167" y="18.333"/>
      <point x="290" y="90" type="curve"/>
      <point x="286.167" y="99.834"/>
      <point x="280" y="108.834"/>
      <point x="266.834" y="108.834" type="curve"/>
      <point x="237.5" y="73.834"/>
      <point x="205.167" y="52.667"/>
      <point x="193.5" y="52.667" type="curve" smooth="yes"/>
      <point x="185.5" y="52.667"/>
      <point x="180.834" y="59"/>
      <point x="180.834" y="67.334" type="curve" smooth="yes"/>
      <point x="180.834" y="76.167"/>
      <point x="183" y="91.334"/>
      <point x="191" y="127" type="curve" smooth="yes"/>
      <point x="278" y="511.834" type="line"/>
    </contour>
    <contour>
      <point x="196" y="511.834" type="line"/>
      <point x="278" y="511.834" type="line"/>
      <point x="293.833" y="581.834" type="line" smooth="yes"/>
      <point x="307" y="641"/>
      <point x="318.167" y="668"/>
      <point x="318.167" y="682.5" type="curve" smooth="yes"/>
      <point x="318.167" y="692.834"/>
      <point x="313" y="698"/>
      <point x="305.333" y="698" type="curve"/>
      <point x="273.5" y="691.334"/>
      <point x="209" y="686.667"/>
      <point x="161.833" y="685" type="curve"/>
      <point x="154.833" y="677"/>
      <point x="156.333" y="664.167"/>
      <point x="162.333" y="655.167" type="curve"/>
      <point x="202.333" y="652.167" type="line" smooth="yes"/>
      <point x="214.333" y="651.167"/>
      <point x="220.333" y="642.167"/>
      <point x="220.333" y="631" type="curve" smooth="yes"/>
      <point x="220.333" y="623.167"/>
      <point x="217.5" y="609.334"/>
      <point x="211.833" y="582.834" type="curve" smooth="yes"/>
    </contour>
  </outline>
</glyph>
